<?xml version="1.0" encoding="utf-8"?>
<!-- Generator: Adobe Illustrator 17.0.0, SVG Export Plug-In . SVG Version: 6.00 Build 0)  -->
<!DOCTYPE svg PUBLIC "-//W3C//DTD SVG 1.1//EN" "http://www.w3.org/Graphics/SVG/1.1/DTD/svg11.dtd">
<svg version="1.1" id="BACKGROUND" xmlns="http://www.w3.org/2000/svg" xmlns:xlink="http://www.w3.org/1999/xlink" x="0px" y="0px"
	 width="46.75px" height="47px" viewBox="0 0 46.75 47" enable-background="new 0 0 46.75 47" xml:space="preserve">
<g>
	<g>
		<g>
			
				<ellipse transform="matrix(0.7071 -0.7071 0.7071 0.7071 -9.4621 22.6521)" fill="#F16D9A" cx="22.612" cy="22.748" rx="22.296" ry="5.423"/>
		</g>
		<path fill="#93E3ED" d="M26.447,26.583C17.74,35.29,8.964,40.632,6.847,38.514l7.67,7.67c2.118,2.118,10.894-3.224,19.601-11.931
			c8.707-8.707,14.049-17.483,11.931-19.601l-7.67-7.67C40.496,9.1,35.155,17.876,26.447,26.583z"/>
	</g>
	<path fill="#424242" d="M12.785,12.921C4.632,21.074-2.084,30.866,0.855,33.804l7.67,7.67c2.939,2.939,12.73-3.777,20.883-11.931
		c8.153-8.153,14.87-17.945,11.931-20.884l-7.67-7.67C30.73-1.949,20.939,4.768,12.785,12.921z M4.177,26.305
		c2.217-3.642,5.73-7.94,9.891-12.101c4.161-4.162,8.459-7.674,12.102-9.892c4.059-2.471,5.841-2.414,6.217-2.039
		c0.375,0.375,0.431,2.157-2.04,6.217c-2.217,3.642-5.73,7.94-9.892,12.102c-4.162,4.162-8.459,7.674-12.101,9.891
		c-4.059,2.471-5.841,2.414-6.216,2.039C1.762,32.146,1.706,30.365,4.177,26.305z M40.056,9.943c0.375,0.375,0.431,2.157-2.04,6.217
		c-2.217,3.642-5.73,7.94-9.892,12.102s-8.459,7.675-12.101,9.891c-4.059,2.471-5.841,2.414-6.216,2.039l-5.816-5.816
		c0.046-0.009,0.094-0.022,0.14-0.033c0.052-0.012,0.104-0.024,0.157-0.037c0.13-0.032,0.262-0.068,0.396-0.107
		c0.039-0.011,0.077-0.021,0.116-0.033c0.173-0.053,0.35-0.111,0.53-0.175c0.041-0.014,0.083-0.031,0.124-0.046
		c0.143-0.052,0.287-0.108,0.434-0.167c0.059-0.024,0.118-0.048,0.177-0.073c0.142-0.059,0.286-0.122,0.432-0.188
		c0.051-0.023,0.101-0.045,0.152-0.068c0.195-0.09,0.392-0.184,0.593-0.284c0.033-0.016,0.066-0.034,0.099-0.051
		c0.17-0.086,0.341-0.175,0.515-0.267c0.064-0.034,0.129-0.07,0.194-0.105c0.152-0.083,0.306-0.168,0.461-0.257
		c0.061-0.035,0.122-0.069,0.184-0.105c0.212-0.123,0.426-0.248,0.642-0.38c0.012-0.007,0.023-0.014,0.035-0.021
		c0.206-0.125,0.414-0.256,0.623-0.389c0.066-0.042,0.133-0.086,0.2-0.128c0.162-0.104,0.325-0.211,0.489-0.32
		c0.069-0.046,0.137-0.091,0.207-0.137c0.202-0.136,0.406-0.275,0.61-0.417c0.024-0.016,0.047-0.032,0.071-0.049
		c0.228-0.159,0.458-0.323,0.689-0.489c0.066-0.048,0.132-0.096,0.198-0.144c0.17-0.124,0.341-0.25,0.513-0.377
		c0.075-0.055,0.149-0.111,0.224-0.167c0.189-0.142,0.38-0.287,0.571-0.434c0.046-0.035,0.091-0.07,0.137-0.105
		c0.235-0.182,0.47-0.367,0.707-0.555c0.063-0.05,0.125-0.101,0.188-0.151c0.178-0.143,0.356-0.287,0.535-0.433
		c0.077-0.063,0.153-0.125,0.23-0.189c0.183-0.151,0.366-0.303,0.549-0.457c0.058-0.049,0.116-0.097,0.174-0.146
		c0.239-0.201,0.477-0.405,0.716-0.611c0.051-0.044,0.101-0.088,0.152-0.132c0.19-0.165,0.38-0.331,0.57-0.499
		c0.077-0.068,0.154-0.137,0.231-0.205c0.175-0.156,0.35-0.313,0.525-0.472c0.067-0.061,0.135-0.122,0.202-0.183
		c0.237-0.216,0.473-0.433,0.709-0.653c0.035-0.032,0.069-0.065,0.103-0.097c0.203-0.19,0.406-0.381,0.608-0.573
		c0.074-0.07,0.147-0.141,0.221-0.211c0.171-0.163,0.34-0.327,0.51-0.492c0.07-0.069,0.141-0.137,0.211-0.205
		c0.233-0.228,0.464-0.456,0.694-0.686c0.23-0.23,0.458-0.462,0.686-0.694c0.069-0.07,0.137-0.141,0.205-0.211
		c0.165-0.17,0.329-0.34,0.492-0.51c0.07-0.074,0.141-0.147,0.211-0.221c0.192-0.202,0.383-0.405,0.573-0.608
		c0.032-0.034,0.065-0.069,0.097-0.103c0.219-0.236,0.437-0.472,0.653-0.709c0.062-0.067,0.122-0.135,0.184-0.203
		c0.158-0.175,0.316-0.35,0.471-0.525c0.069-0.077,0.137-0.154,0.206-0.231c0.168-0.19,0.334-0.379,0.499-0.569
		c0.044-0.051,0.089-0.101,0.132-0.152c0.206-0.239,0.41-0.477,0.611-0.716c0.049-0.058,0.098-0.117,0.147-0.175
		c0.153-0.183,0.306-0.366,0.456-0.549c0.063-0.077,0.126-0.154,0.189-0.231c0.146-0.178,0.289-0.356,0.432-0.534
		c0.05-0.063,0.102-0.126,0.152-0.189c0.188-0.236,0.372-0.471,0.554-0.706c0.036-0.047,0.071-0.093,0.107-0.14
		c0.146-0.19,0.29-0.379,0.432-0.568c0.056-0.075,0.112-0.15,0.168-0.225c0.127-0.171,0.252-0.341,0.376-0.51
		c0.049-0.067,0.098-0.134,0.146-0.2c0.166-0.231,0.33-0.46,0.488-0.688c0.018-0.025,0.034-0.05,0.052-0.075
		c0.141-0.203,0.279-0.405,0.413-0.606c0.047-0.07,0.093-0.139,0.139-0.209c0.108-0.163,0.214-0.325,0.318-0.486
		c0.043-0.067,0.087-0.135,0.13-0.202c0.132-0.207,0.261-0.414,0.385-0.618c0.008-0.013,0.017-0.027,0.025-0.04
		c0.131-0.216,0.257-0.429,0.379-0.641c0.036-0.062,0.071-0.124,0.106-0.186c0.088-0.154,0.173-0.307,0.255-0.458
		c0.036-0.065,0.071-0.13,0.106-0.195c0.092-0.173,0.181-0.343,0.266-0.512c0.017-0.034,0.035-0.068,0.052-0.101
		c0.1-0.2,0.194-0.397,0.283-0.592c0.024-0.052,0.046-0.103,0.069-0.154c0.065-0.145,0.127-0.288,0.187-0.43
		c0.025-0.06,0.05-0.119,0.074-0.179c0.059-0.146,0.114-0.29,0.167-0.432c0.015-0.041,0.032-0.084,0.047-0.125
		c0.064-0.18,0.122-0.356,0.175-0.529c0.012-0.039,0.022-0.077,0.033-0.116c0.039-0.135,0.075-0.267,0.107-0.397
		c0.013-0.052,0.025-0.104,0.036-0.156c0.011-0.047,0.024-0.095,0.033-0.141L40.056,9.943z"/>
</g>
</svg>
