<?xml version="1.0" encoding="utf-8"?>
<!-- Generator: Adobe Illustrator 17.0.0, SVG Export Plug-In . SVG Version: 6.00 Build 0)  -->
<!DOCTYPE svg PUBLIC "-//W3C//DTD SVG 1.1//EN" "http://www.w3.org/Graphics/SVG/1.1/DTD/svg11.dtd">
<svg version="1.1" id="Layer_1" xmlns="http://www.w3.org/2000/svg" xmlns:xlink="http://www.w3.org/1999/xlink" x="0px" y="0px"
	 width="224px" height="214.153px" viewBox="0 0 224 214.153" enable-background="new 0 0 224 214.153" xml:space="preserve">
<g>
	<path fill="#696969" d="M100.625,99.284c0.022-0.103,0.061-0.201,0.061-0.313c0-0.846-0.683-1.531-1.529-1.531
		c-0.14,0-0.269,0.046-0.399,0.081L100.625,99.284z"/>
	<path fill="#696969" d="M86.942,86.353c0.167-0.245,0.285-0.524,0.285-0.841c0-0.846-0.683-1.531-1.529-1.531
		c-0.348,0-0.653,0.138-0.911,0.333L86.942,86.353z"/>
	<circle fill="#696969" cx="166.451" cy="139.348" r="1.529"/>
	<circle fill="#696969" cx="166.451" cy="45.135" r="1.529"/>
	<circle fill="#696969" cx="139.534" cy="45.135" r="1.529"/>
	<circle fill="#696969" cx="152.993" cy="45.135" r="1.529"/>
	<circle fill="#696969" cx="179.91" cy="45.135" r="1.529"/>
	<circle fill="#696969" cx="206.828" cy="45.135" r="1.529"/>
	<circle fill="#696969" cx="85.698" cy="45.135" r="1.529"/>
	<circle fill="#696969" cx="126.075" cy="45.135" r="1.529"/>
	<circle fill="#696969" cx="193.369" cy="45.135" r="1.529"/>
	<circle fill="#696969" cx="72.239" cy="45.135" r="1.529"/>
	<circle fill="#696969" cx="112.616" cy="45.135" r="1.529"/>
	<circle fill="#696969" cx="99.157" cy="45.135" r="1.529"/>
	<path fill="#696969" d="M43.792,45.135c0,0.186,0.044,0.359,0.105,0.524l0.968,0.916c0.145,0.046,0.294,0.092,0.456,0.092
		c0.846,0,1.529-0.686,1.529-1.531c0-0.846-0.683-1.531-1.529-1.531C44.476,43.604,43.792,44.29,43.792,45.135z"/>
	<circle fill="#696969" cx="99.157" cy="31.676" r="1.529"/>
	<circle fill="#696969" cx="112.616" cy="31.676" r="1.529"/>
	<circle fill="#696969" cx="126.075" cy="31.676" r="1.529"/>
	<circle fill="#696969" cx="85.698" cy="31.676" r="1.529"/>
	<circle fill="#696969" cx="139.534" cy="31.676" r="1.529"/>
	<circle fill="#696969" cx="58.78" cy="31.676" r="1.529"/>
	<circle fill="#696969" cx="45.321" cy="31.676" r="1.529"/>
	<circle fill="#696969" cx="72.239" cy="31.676" r="1.529"/>
	<circle fill="#696969" cx="31.862" cy="31.676" r="1.529"/>
	<circle fill="#696969" cx="58.78" cy="45.135" r="1.529"/>
	<circle fill="#696969" cx="152.993" cy="72.053" r="1.529"/>
	<circle fill="#696969" cx="166.451" cy="72.053" r="1.529"/>
	<path fill="#696969" d="M57.304,58.331l1.823,1.724c0.672-0.16,1.183-0.738,1.183-1.461c0-0.846-0.683-1.531-1.529-1.531
		C58.027,57.063,57.431,57.617,57.304,58.331z"/>
	<circle fill="#696969" cx="206.828" cy="72.053" r="1.529"/>
	<circle fill="#696969" cx="72.239" cy="58.594" r="1.529"/>
	<circle fill="#696969" cx="193.369" cy="72.053" r="1.529"/>
	<path fill="#696969" d="M73.111,73.278c0.39-0.278,0.657-0.71,0.657-1.225c0-0.846-0.683-1.531-1.529-1.531
		c-0.543,0-0.999,0.3-1.271,0.729L73.111,73.278z"/>
	<circle fill="#696969" cx="112.616" cy="72.053" r="1.529"/>
	<circle fill="#696969" cx="99.157" cy="72.053" r="1.529"/>
	<circle fill="#696969" cx="126.075" cy="72.053" r="1.529"/>
	<circle fill="#696969" cx="152.993" cy="31.676" r="1.529"/>
	<circle fill="#696969" cx="139.534" cy="72.053" r="1.529"/>
	<circle fill="#696969" cx="179.91" cy="72.053" r="1.529"/>
	<circle fill="#696969" cx="166.451" cy="58.594" r="1.529"/>
	<circle fill="#696969" cx="85.698" cy="58.594" r="1.529"/>
	<circle fill="#696969" cx="152.993" cy="58.594" r="1.529"/>
	<circle fill="#696969" cx="206.828" cy="58.594" r="1.529"/>
	<circle fill="#696969" cx="193.369" cy="58.594" r="1.529"/>
	<circle fill="#696969" cx="179.91" cy="58.594" r="1.529"/>
	<circle fill="#696969" cx="99.157" cy="58.594" r="1.529"/>
	<circle fill="#696969" cx="112.616" cy="58.594" r="1.529"/>
	<circle fill="#696969" cx="126.075" cy="58.594" r="1.529"/>
	<circle fill="#696969" cx="139.534" cy="58.594" r="1.529"/>
	<circle fill="#696969" cx="31.862" cy="4.759" r="1.529"/>
	<circle fill="#696969" cx="193.369" cy="4.759" r="1.529"/>
	<circle fill="#696969" cx="166.451" cy="31.676" r="1.529"/>
	<circle fill="#696969" cx="72.239" cy="4.759" r="1.529"/>
	<circle fill="#696969" cx="179.91" cy="4.759" r="1.529"/>
	<circle fill="#696969" cx="85.698" cy="4.759" r="1.529"/>
	<circle fill="#696969" cx="99.157" cy="4.759" r="1.529"/>
	<circle fill="#696969" cx="112.616" cy="4.759" r="1.529"/>
	<circle fill="#696969" cx="126.075" cy="4.759" r="1.529"/>
	<circle fill="#696969" cx="139.534" cy="4.759" r="1.529"/>
	<circle fill="#696969" cx="152.993" cy="4.759" r="1.529"/>
	<circle fill="#696969" cx="166.451" cy="4.759" r="1.529"/>
	<circle fill="#696969" cx="58.78" cy="4.759" r="1.529"/>
	<circle fill="#696969" cx="45.321" cy="18.218" r="1.529"/>
	<circle fill="#696969" cx="58.78" cy="18.218" r="1.529"/>
	<circle fill="#696969" cx="85.698" cy="18.218" r="1.529"/>
	<circle fill="#696969" cx="99.157" cy="18.218" r="1.529"/>
	<circle fill="#696969" cx="31.862" cy="18.218" r="1.529"/>
	<circle fill="#696969" cx="179.91" cy="31.676" r="1.529"/>
	<circle fill="#696969" cx="193.369" cy="31.676" r="1.529"/>
	<circle fill="#696969" cx="18.404" cy="18.218" r="1.529"/>
	<circle fill="#696969" cx="112.616" cy="18.218" r="1.529"/>
	<circle fill="#696969" cx="72.239" cy="18.218" r="1.529"/>
	<circle fill="#696969" cx="4.945" cy="4.759" r="1.529"/>
	<circle fill="#696969" cx="18.404" cy="4.759" r="1.529"/>
	<circle fill="#696969" cx="179.91" cy="18.218" r="1.529"/>
	<circle fill="#696969" cx="85.698" cy="72.053" r="1.529"/>
	<circle fill="#696969" cx="45.321" cy="4.759" r="1.529"/>
	<circle fill="#696969" cx="166.451" cy="18.218" r="1.529"/>
	<circle fill="#696969" cx="139.534" cy="18.218" r="1.529"/>
	<circle fill="#696969" cx="152.993" cy="18.218" r="1.529"/>
	<circle fill="#696969" cx="126.075" cy="18.218" r="1.529"/>
	<circle fill="#696969" cx="193.369" cy="18.218" r="1.529"/>
	<path fill="#696969" d="M205.299,31.676c0,0.845,0.684,1.531,1.529,1.531c0.644,0,1.187-0.399,1.415-0.962l-0.162-1.395
		c-0.272-0.414-0.718-0.705-1.253-0.705C205.983,30.145,205.299,30.831,205.299,31.676z"/>
	<circle fill="#696969" cx="220.287" cy="193.183" r="1.529"/>
	<circle fill="#696969" cx="206.828" cy="193.183" r="1.529"/>
	<circle fill="#696969" cx="220.287" cy="179.724" r="1.529"/>
	<circle fill="#696969" cx="193.369" cy="179.724" r="1.529"/>
	<circle fill="#696969" cx="220.287" cy="206.642" r="1.529"/>
	<path fill="#696969" d="M218.758,139.348c0,0.845,0.684,1.531,1.529,1.531c0.153,0,0.294-0.046,0.434-0.088l-0.342-2.955
		c-0.031-0.002-0.059-0.02-0.092-0.02C219.441,137.816,218.758,138.502,218.758,139.348z"/>
	<path fill="#696969" d="M205.299,18.218c0,0.837,0.673,1.514,1.507,1.527l-0.342-2.983
		C205.799,16.927,205.299,17.501,205.299,18.218z"/>
	<path fill="#696969" d="M219.117,126.839l-0.188-1.623c-0.101,0.206-0.171,0.427-0.171,0.672
		C218.758,126.255,218.903,126.576,219.117,126.839z"/>
	<circle fill="#696969" cx="193.369" cy="85.512" r="1.529"/>
	<circle fill="#696969" cx="206.828" cy="179.724" r="1.529"/>
	<circle fill="#696969" cx="112.616" cy="98.971" r="1.529"/>
	<circle fill="#696969" cx="139.534" cy="98.971" r="1.529"/>
	<circle fill="#696969" cx="126.075" cy="98.971" r="1.529"/>
	<circle fill="#696969" cx="166.451" cy="98.971" r="1.529"/>
	<circle fill="#696969" cx="152.993" cy="98.971" r="1.529"/>
	<circle fill="#696969" cx="206.828" cy="112.43" r="1.529"/>
	<circle fill="#696969" cx="166.451" cy="112.43" r="1.529"/>
	<circle fill="#696969" cx="152.993" cy="112.43" r="1.529"/>
	<circle fill="#696969" cx="179.91" cy="112.43" r="1.529"/>
	<circle fill="#696969" cx="193.369" cy="112.43" r="1.529"/>
	<circle fill="#696969" cx="179.91" cy="98.971" r="1.529"/>
	<circle fill="#696969" cx="152.993" cy="85.512" r="1.529"/>
	<circle fill="#696969" cx="139.534" cy="85.512" r="1.529"/>
	<circle fill="#696969" cx="206.828" cy="98.971" r="1.529"/>
	<circle fill="#696969" cx="166.451" cy="85.512" r="1.529"/>
	<circle fill="#696969" cx="179.91" cy="85.512" r="1.529"/>
	<circle fill="#696969" cx="206.828" cy="85.512" r="1.529"/>
	<circle fill="#696969" cx="139.534" cy="112.43" r="1.529"/>
	<circle fill="#696969" cx="126.075" cy="85.512" r="1.529"/>
	<circle fill="#696969" cx="193.369" cy="98.971" r="1.529"/>
	<circle fill="#696969" cx="99.157" cy="85.512" r="1.529"/>
	<circle fill="#696969" cx="112.616" cy="85.512" r="1.529"/>
	<circle fill="#696969" cx="206.828" cy="166.265" r="1.529"/>
	<circle fill="#696969" cx="220.287" cy="152.806" r="1.529"/>
	<circle fill="#696969" cx="193.369" cy="152.806" r="1.529"/>
	<circle fill="#696969" cx="152.993" cy="139.348" r="1.529"/>
	<circle fill="#696969" cx="179.91" cy="152.806" r="1.529"/>
	<circle fill="#696969" cx="206.828" cy="152.806" r="1.529"/>
	<circle fill="#696969" cx="166.451" cy="152.806" r="1.529"/>
	<circle fill="#696969" cx="220.287" cy="166.265" r="1.529"/>
	<circle fill="#696969" cx="193.369" cy="166.265" r="1.529"/>
	<circle fill="#696969" cx="179.91" cy="166.265" r="1.529"/>
	<circle fill="#696969" cx="179.91" cy="139.348" r="1.529"/>
	<circle fill="#696969" cx="179.91" cy="125.889" r="1.529"/>
	<circle fill="#696969" cx="206.828" cy="125.889" r="1.529"/>
	<path fill="#696969" d="M112.988,110.975l1.069,1.008C113.899,111.479,113.501,111.107,112.988,110.975z"/>
	<circle fill="#696969" cx="166.451" cy="125.889" r="1.529"/>
	<circle fill="#696969" cx="193.369" cy="125.889" r="1.529"/>
	<circle fill="#696969" cx="139.534" cy="125.889" r="1.529"/>
	<circle fill="#696969" cx="206.828" cy="139.348" r="1.529"/>
	<circle fill="#696969" cx="152.993" cy="125.889" r="1.529"/>
	<circle fill="#696969" cx="193.369" cy="139.348" r="1.529"/>
	<circle fill="#696969" cx="126.075" cy="112.43" r="1.529"/>
</g>
</svg>
