<?xml version="1.0" encoding="utf-8"?>
<!-- Generator: Adobe Illustrator 17.0.0, SVG Export Plug-In . SVG Version: 6.00 Build 0)  -->
<!DOCTYPE svg PUBLIC "-//W3C//DTD SVG 1.1//EN" "http://www.w3.org/Graphics/SVG/1.1/DTD/svg11.dtd">
<svg version="1.1" id="Layer_1" xmlns="http://www.w3.org/2000/svg" xmlns:xlink="http://www.w3.org/1999/xlink" x="0px" y="0px"
	 width="175.911px" height="189.264px" viewBox="0 0 175.911 189.264" enable-background="new 0 0 175.911 189.264"
	 xml:space="preserve">
<g>
	<path fill="#474747" d="M174.73,189.262c0.651,0,1.181-0.527,1.181-1.184c0-0.654-0.53-1.184-1.181-1.184
		c-0.657,0-1.187,0.53-1.187,1.184C173.543,188.734,174.073,189.262,174.73,189.262z"/>
	<path fill="#474747" d="M161.38,189.262c0.654,0,1.184-0.527,1.184-1.184c0-0.654-0.53-1.184-1.184-1.184
		c-0.651,0-1.187,0.53-1.187,1.184C160.193,188.734,160.729,189.262,161.38,189.262z"/>
	<path fill="#474747" d="M148.03,189.262c0.651,0,1.184-0.527,1.184-1.184c0-0.654-0.533-1.184-1.184-1.184
		c-0.657,0-1.187,0.53-1.187,1.184C146.843,188.734,147.373,189.262,148.03,189.262z"/>
	<path fill="#474747" d="M134.68,189.262c0.654,0,1.184-0.527,1.184-1.184c0-0.654-0.53-1.184-1.184-1.184
		c-0.654,0-1.187,0.53-1.187,1.184C133.493,188.734,134.026,189.262,134.68,189.262z"/>
	<path fill="#474747" d="M121.33,189.262c0.657,0,1.184-0.527,1.184-1.184c0-0.654-0.527-1.184-1.184-1.184
		c-0.657,0-1.187,0.53-1.187,1.184C120.143,188.734,120.673,189.262,121.33,189.262z"/>
	<path fill="#474747" d="M107.982,189.264c0.651,0,1.181-0.53,1.181-1.187c0-0.654-0.53-1.184-1.181-1.184
		c-0.657,0-1.187,0.53-1.187,1.184C106.795,188.734,107.325,189.264,107.982,189.264z"/>
	<path fill="#474747" d="M94.629,189.264c0.657,0,1.187-0.53,1.187-1.187c0-0.654-0.53-1.184-1.187-1.184
		c-0.651,0-1.181,0.53-1.181,1.184C93.448,188.734,93.978,189.264,94.629,189.264z"/>
	<circle fill="#474747" cx="81.282" cy="188.079" r="1.185"/>
	<circle fill="#474747" cx="67.932" cy="188.079" r="1.185"/>
	<path fill="#474747" d="M54.581,189.264c0.659,0,1.184-0.53,1.184-1.187c0-0.654-0.524-1.184-1.184-1.184
		c-0.654,0-1.181,0.53-1.181,1.184C53.401,188.734,53.928,189.264,54.581,189.264z"/>
	<path fill="#474747" d="M41.234,189.264c0.651,0,1.187-0.53,1.187-1.187c0-0.654-0.536-1.184-1.187-1.184
		c-0.657,0-1.187,0.53-1.187,1.184C40.048,188.734,40.578,189.264,41.234,189.264z"/>
	<circle fill="#474747" cx="27.884" cy="188.079" r="1.185"/>
	<path fill="#474747" d="M14.534,189.264c0.657,0,1.187-0.53,1.187-1.187c0-0.654-0.53-1.184-1.187-1.184
		c-0.654,0-1.181,0.53-1.181,1.184C13.353,188.734,13.88,189.264,14.534,189.264z"/>
	<path fill="#474747" d="M1.184,189.264c0.654,0,1.19-0.53,1.19-1.187c0-0.654-0.536-1.184-1.19-1.184S0,187.424,0,188.078
		C0,188.734,0.53,189.264,1.184,189.264z"/>
	<path fill="#474747" d="M174.73,175.911c0.651,0,1.181-0.53,1.181-1.181c0-0.654-0.53-1.187-1.181-1.187
		c-0.657,0-1.187,0.533-1.187,1.187C173.543,175.381,174.073,175.911,174.73,175.911z"/>
	<path fill="#474747" d="M161.38,175.911c0.654,0,1.184-0.53,1.184-1.181c0-0.654-0.53-1.187-1.184-1.187
		c-0.651,0-1.187,0.533-1.187,1.187C160.193,175.381,160.729,175.911,161.38,175.911z"/>
	<path fill="#474747" d="M148.03,175.911c0.651,0,1.184-0.53,1.184-1.181c0-0.654-0.533-1.187-1.184-1.187
		c-0.657,0-1.187,0.533-1.187,1.187C146.843,175.381,147.373,175.911,148.03,175.911z"/>
	<path fill="#474747" d="M134.68,175.911c0.654,0,1.184-0.53,1.184-1.181c0-0.654-0.53-1.187-1.184-1.187
		c-0.654,0-1.187,0.533-1.187,1.187C133.493,175.381,134.026,175.911,134.68,175.911z"/>
	<path fill="#474747" d="M121.33,175.911c0.657,0,1.184-0.53,1.184-1.181c0-0.654-0.527-1.187-1.184-1.187
		c-0.657,0-1.187,0.533-1.187,1.187C120.143,175.381,120.673,175.911,121.33,175.911z"/>
	<path fill="#474747" d="M107.982,175.914c0.651,0,1.181-0.533,1.181-1.184s-0.53-1.187-1.181-1.187
		c-0.657,0-1.187,0.536-1.187,1.187S107.325,175.914,107.982,175.914z"/>
	<path fill="#474747" d="M94.629,175.914c0.657,0,1.187-0.533,1.187-1.184s-0.53-1.187-1.187-1.187
		c-0.651,0-1.181,0.536-1.181,1.187S93.978,175.914,94.629,175.914z"/>
	<path fill="#474747" d="M81.282,175.914c0.654,0,1.184-0.533,1.184-1.184s-0.53-1.187-1.184-1.187
		c-0.656,0-1.184,0.536-1.184,1.187S80.625,175.914,81.282,175.914z"/>
	<path fill="#474747" d="M67.932,175.914c0.654,0,1.184-0.533,1.184-1.184s-0.53-1.187-1.184-1.187
		c-0.651,0-1.184,0.536-1.184,1.187S67.281,175.914,67.932,175.914z"/>
	<path fill="#474747" d="M54.581,175.914c0.659,0,1.184-0.533,1.184-1.184s-0.524-1.187-1.184-1.187
		c-0.654,0-1.181,0.536-1.181,1.187S53.928,175.914,54.581,175.914z"/>
	<path fill="#474747" d="M41.234,175.914c0.651,0,1.187-0.533,1.187-1.184s-0.536-1.187-1.187-1.187
		c-0.657,0-1.187,0.536-1.187,1.187S40.578,175.914,41.234,175.914z"/>
	<path fill="#474747" d="M27.884,175.914c0.654,0,1.187-0.533,1.187-1.184s-0.533-1.187-1.187-1.187
		c-0.654,0-1.184,0.536-1.184,1.187S27.23,175.914,27.884,175.914z"/>
	<path fill="#474747" d="M14.534,175.914c0.657,0,1.187-0.533,1.187-1.184s-0.53-1.187-1.187-1.187
		c-0.654,0-1.181,0.536-1.181,1.187S13.88,175.914,14.534,175.914z"/>
	<path fill="#474747" d="M1.184,175.914c0.654,0,1.19-0.533,1.19-1.184s-0.536-1.187-1.19-1.187S0,174.079,0,174.73
		C0,175.381,0.53,175.914,1.184,175.914z"/>
	<path fill="#474747" d="M174.73,162.561c0.651,0,1.181-0.527,1.181-1.181c0-0.654-0.53-1.184-1.181-1.184
		c-0.657,0-1.187,0.53-1.187,1.184C173.543,162.034,174.073,162.561,174.73,162.561z"/>
	<circle fill="#474747" cx="161.38" cy="161.379" r="1.182"/>
	<path fill="#474747" d="M148.03,162.561c0.651,0,1.184-0.527,1.184-1.181c0-0.654-0.533-1.184-1.184-1.184
		c-0.657,0-1.187,0.53-1.187,1.184C146.843,162.034,147.373,162.561,148.03,162.561z"/>
	<circle fill="#474747" cx="134.68" cy="161.379" r="1.182"/>
	<path fill="#474747" d="M121.33,162.561c0.657,0,1.184-0.527,1.184-1.181c0-0.654-0.527-1.184-1.184-1.184
		c-0.657,0-1.187,0.53-1.187,1.184C120.143,162.034,120.673,162.561,121.33,162.561z"/>
	<path fill="#474747" d="M107.982,162.567c0.651,0,1.181-0.533,1.181-1.187c0-0.651-0.53-1.184-1.181-1.184
		c-0.657,0-1.187,0.533-1.187,1.184C106.795,162.034,107.325,162.567,107.982,162.567z"/>
	<path fill="#474747" d="M94.629,162.567c0.657,0,1.187-0.533,1.187-1.187c0-0.651-0.53-1.184-1.187-1.184
		c-0.651,0-1.181,0.533-1.181,1.184C93.448,162.034,93.978,162.567,94.629,162.567z"/>
	<path fill="#474747" d="M81.282,162.567c0.654,0,1.184-0.533,1.184-1.187c0-0.651-0.53-1.184-1.184-1.184
		c-0.656,0-1.184,0.533-1.184,1.184C80.098,162.034,80.625,162.567,81.282,162.567z"/>
	<path fill="#474747" d="M67.932,162.567c0.654,0,1.184-0.533,1.184-1.187c0-0.651-0.53-1.184-1.184-1.184
		c-0.651,0-1.184,0.533-1.184,1.184C66.748,162.034,67.281,162.567,67.932,162.567z"/>
	<path fill="#474747" d="M54.581,162.567c0.659,0,1.184-0.533,1.184-1.187c0-0.651-0.524-1.184-1.184-1.184
		c-0.654,0-1.181,0.533-1.181,1.184C53.401,162.034,53.928,162.567,54.581,162.567z"/>
	<path fill="#474747" d="M41.234,162.567c0.651,0,1.187-0.533,1.187-1.187c0-0.651-0.536-1.184-1.187-1.184
		c-0.657,0-1.187,0.533-1.187,1.184C40.048,162.034,40.578,162.567,41.234,162.567z"/>
	<path fill="#474747" d="M27.884,162.567c0.654,0,1.187-0.533,1.187-1.187c0-0.651-0.533-1.184-1.187-1.184
		c-0.654,0-1.184,0.533-1.184,1.184C26.7,162.034,27.23,162.567,27.884,162.567z"/>
	<path fill="#474747" d="M14.534,162.567c0.657,0,1.187-0.533,1.187-1.187c0-0.651-0.53-1.184-1.187-1.184
		c-0.654,0-1.181,0.533-1.181,1.184C13.353,162.034,13.88,162.567,14.534,162.567z"/>
	<path fill="#474747" d="M1.184,162.567c0.654,0,1.19-0.533,1.19-1.187c0-0.651-0.536-1.184-1.19-1.184S0,160.729,0,161.38
		C0,162.034,0.53,162.567,1.184,162.567z"/>
	<path fill="#474747" d="M174.73,149.214c0.651,0,1.181-0.527,1.181-1.184c0-0.657-0.53-1.187-1.181-1.187
		c-0.657,0-1.187,0.53-1.187,1.187C173.543,148.687,174.073,149.214,174.73,149.214z"/>
	<circle fill="#474747" cx="161.38" cy="148.029" r="1.185"/>
	<path fill="#474747" d="M148.03,149.214c0.651,0,1.184-0.527,1.184-1.184c0-0.657-0.533-1.187-1.184-1.187
		c-0.657,0-1.187,0.53-1.187,1.187C146.843,148.687,147.373,149.214,148.03,149.214z"/>
	<circle fill="#474747" cx="134.68" cy="148.029" r="1.185"/>
	<path fill="#474747" d="M121.33,149.214c0.657,0,1.184-0.527,1.184-1.184c0-0.657-0.527-1.187-1.184-1.187
		c-0.657,0-1.187,0.53-1.187,1.187C120.143,148.687,120.673,149.214,121.33,149.214z"/>
	<path fill="#474747" d="M107.982,149.217c0.651,0,1.181-0.53,1.181-1.184c0-0.66-0.53-1.19-1.181-1.19
		c-0.657,0-1.187,0.53-1.187,1.19C106.795,148.687,107.325,149.217,107.982,149.217z"/>
	<path fill="#474747" d="M94.629,149.217c0.657,0,1.187-0.53,1.187-1.184c0-0.66-0.53-1.19-1.187-1.19
		c-0.651,0-1.181,0.53-1.181,1.19C93.448,148.687,93.978,149.217,94.629,149.217z"/>
	<path fill="#474747" d="M81.282,149.217c0.654,0,1.184-0.53,1.184-1.184c0-0.66-0.53-1.19-1.184-1.19
		c-0.656,0-1.184,0.53-1.184,1.19C80.098,148.687,80.625,149.217,81.282,149.217z"/>
	<path fill="#474747" d="M67.932,149.217c0.654,0,1.184-0.53,1.184-1.184c0-0.66-0.53-1.19-1.184-1.19
		c-0.651,0-1.184,0.53-1.184,1.19C66.748,148.687,67.281,149.217,67.932,149.217z"/>
	<path fill="#474747" d="M54.581,149.217c0.659,0,1.184-0.53,1.184-1.184c0-0.66-0.524-1.19-1.184-1.19
		c-0.654,0-1.181,0.53-1.181,1.19C53.401,148.687,53.928,149.217,54.581,149.217z"/>
	<path fill="#474747" d="M41.234,149.217c0.651,0,1.187-0.53,1.187-1.184c0-0.66-0.536-1.19-1.187-1.19
		c-0.657,0-1.187,0.53-1.187,1.19C40.048,148.687,40.578,149.217,41.234,149.217z"/>
	<path fill="#474747" d="M27.884,149.217c0.654,0,1.187-0.53,1.187-1.184c0-0.66-0.533-1.19-1.187-1.19
		c-0.654,0-1.184,0.53-1.184,1.19C26.7,148.687,27.23,149.217,27.884,149.217z"/>
	<path fill="#474747" d="M14.534,149.217c0.657,0,1.187-0.53,1.187-1.184c0-0.66-0.53-1.19-1.187-1.19
		c-0.654,0-1.181,0.53-1.181,1.19C13.353,148.687,13.88,149.217,14.534,149.217z"/>
	<path fill="#474747" d="M1.184,149.217c0.654,0,1.19-0.53,1.19-1.184c0-0.66-0.536-1.19-1.19-1.19S0,147.373,0,148.033
		C0,148.687,0.53,149.217,1.184,149.217z"/>
	<path fill="#474747" d="M174.73,135.864c0.651,0,1.181-0.53,1.181-1.184c0-0.654-0.53-1.184-1.181-1.184
		c-0.657,0-1.187,0.53-1.187,1.184C173.543,135.334,174.073,135.864,174.73,135.864z"/>
	<circle fill="#474747" cx="161.38" cy="134.68" r="1.184"/>
	<path fill="#474747" d="M148.03,135.864c0.651,0,1.184-0.53,1.184-1.184c0-0.654-0.533-1.184-1.184-1.184
		c-0.657,0-1.187,0.53-1.187,1.184C146.843,135.334,147.373,135.864,148.03,135.864z"/>
	<circle fill="#474747" cx="134.68" cy="134.68" r="1.184"/>
	<path fill="#474747" d="M121.33,135.864c0.657,0,1.184-0.53,1.184-1.184c0-0.654-0.527-1.184-1.184-1.184
		c-0.657,0-1.187,0.53-1.187,1.184C120.143,135.334,120.673,135.864,121.33,135.864z"/>
	<path fill="#474747" d="M107.982,135.864c0.651,0,1.181-0.53,1.181-1.181c0-0.654-0.53-1.187-1.181-1.187
		c-0.657,0-1.187,0.533-1.187,1.187C106.795,135.334,107.325,135.864,107.982,135.864z"/>
	<path fill="#474747" d="M94.629,135.864c0.657,0,1.187-0.53,1.187-1.181c0-0.654-0.53-1.187-1.187-1.187
		c-0.651,0-1.181,0.533-1.181,1.187C93.448,135.334,93.978,135.864,94.629,135.864z"/>
	<path fill="#474747" d="M81.282,135.864c0.654,0,1.184-0.53,1.184-1.181c0-0.654-0.53-1.187-1.184-1.187
		c-0.656,0-1.184,0.533-1.184,1.187C80.098,135.334,80.625,135.864,81.282,135.864z"/>
	<path fill="#474747" d="M67.932,135.864c0.654,0,1.184-0.53,1.184-1.181c0-0.654-0.53-1.187-1.184-1.187
		c-0.651,0-1.184,0.533-1.184,1.187C66.748,135.334,67.281,135.864,67.932,135.864z"/>
	<path fill="#474747" d="M54.581,135.864c0.659,0,1.184-0.53,1.184-1.181c0-0.654-0.524-1.187-1.184-1.187
		c-0.654,0-1.181,0.533-1.181,1.187C53.401,135.334,53.928,135.864,54.581,135.864z"/>
	<path fill="#474747" d="M41.234,135.864c0.651,0,1.187-0.53,1.187-1.181c0-0.654-0.536-1.187-1.187-1.187
		c-0.657,0-1.187,0.533-1.187,1.187C40.048,135.334,40.578,135.864,41.234,135.864z"/>
	<path fill="#474747" d="M27.884,135.864c0.654,0,1.187-0.53,1.187-1.181c0-0.654-0.533-1.187-1.187-1.187
		c-0.654,0-1.184,0.533-1.184,1.187C26.7,135.334,27.23,135.864,27.884,135.864z"/>
	<path fill="#474747" d="M14.534,135.864c0.657,0,1.187-0.53,1.187-1.181c0-0.654-0.53-1.187-1.187-1.187
		c-0.654,0-1.181,0.533-1.181,1.187C13.353,135.334,13.88,135.864,14.534,135.864z"/>
	<path fill="#474747" d="M1.184,135.864c0.654,0,1.19-0.53,1.19-1.181c0-0.654-0.536-1.187-1.19-1.187S0,134.029,0,134.683
		C0,135.334,0.53,135.864,1.184,135.864z"/>
	<path fill="#474747" d="M174.73,122.516c0.651,0,1.181-0.527,1.181-1.187c0-0.654-0.53-1.184-1.181-1.184
		c-0.657,0-1.187,0.53-1.187,1.184C173.543,121.989,174.073,122.516,174.73,122.516z"/>
	<path fill="#474747" d="M161.38,122.516c0.654,0,1.184-0.527,1.184-1.187c0-0.654-0.53-1.184-1.184-1.184
		c-0.651,0-1.187,0.53-1.187,1.184C160.193,121.989,160.729,122.516,161.38,122.516z"/>
	<path fill="#474747" d="M148.03,122.516c0.651,0,1.184-0.527,1.184-1.187c0-0.654-0.533-1.184-1.184-1.184
		c-0.657,0-1.187,0.53-1.187,1.184C146.843,121.989,147.373,122.516,148.03,122.516z"/>
	<path fill="#474747" d="M134.68,122.516c0.654,0,1.184-0.527,1.184-1.187c0-0.654-0.53-1.184-1.184-1.184
		c-0.654,0-1.187,0.53-1.187,1.184C133.493,121.989,134.026,122.516,134.68,122.516z"/>
	<path fill="#474747" d="M121.33,122.516c0.657,0,1.184-0.527,1.184-1.187c0-0.654-0.527-1.184-1.184-1.184
		c-0.657,0-1.187,0.53-1.187,1.184C120.143,121.989,120.673,122.516,121.33,122.516z"/>
	<path fill="#474747" d="M107.982,122.516c0.651,0,1.181-0.527,1.181-1.184c0-0.657-0.53-1.187-1.181-1.187
		c-0.657,0-1.187,0.53-1.187,1.187C106.795,121.989,107.325,122.516,107.982,122.516z"/>
	<path fill="#474747" d="M94.629,122.516c0.657,0,1.187-0.527,1.187-1.184c0-0.657-0.53-1.187-1.187-1.187
		c-0.651,0-1.181,0.53-1.181,1.187C93.448,121.989,93.978,122.516,94.629,122.516z"/>
	<circle fill="#474747" cx="81.282" cy="121.331" r="1.185"/>
	<circle fill="#474747" cx="67.932" cy="121.331" r="1.185"/>
	<path fill="#474747" d="M54.581,122.516c0.659,0,1.184-0.527,1.184-1.184c0-0.657-0.524-1.187-1.184-1.187
		c-0.654,0-1.181,0.53-1.181,1.187C53.401,121.989,53.928,122.516,54.581,122.516z"/>
	<path fill="#474747" d="M41.234,122.516c0.651,0,1.187-0.527,1.187-1.184c0-0.657-0.536-1.187-1.187-1.187
		c-0.657,0-1.187,0.53-1.187,1.187C40.048,121.989,40.578,122.516,41.234,122.516z"/>
	<circle fill="#474747" cx="27.884" cy="121.331" r="1.185"/>
	<circle fill="#474747" cx="14.534" cy="121.331" r="1.185"/>
	<path fill="#474747" d="M1.184,122.516c0.654,0,1.19-0.527,1.19-1.184c0-0.657-0.536-1.187-1.19-1.187S0,120.676,0,121.332
		C0,121.989,0.53,122.516,1.184,122.516z"/>
	<path fill="#474747" d="M174.73,109.166c0.651,0,1.181-0.53,1.181-1.184s-0.53-1.187-1.181-1.187c-0.657,0-1.187,0.533-1.187,1.187
		S174.073,109.166,174.73,109.166z"/>
	<circle fill="#474747" cx="161.38" cy="107.981" r="1.185"/>
	<path fill="#474747" d="M148.03,109.166c0.651,0,1.184-0.53,1.184-1.184s-0.533-1.187-1.184-1.187
		c-0.657,0-1.187,0.533-1.187,1.187S147.373,109.166,148.03,109.166z"/>
	<circle fill="#474747" cx="134.68" cy="107.981" r="1.185"/>
	<path fill="#474747" d="M121.33,109.166c0.657,0,1.184-0.53,1.184-1.184s-0.527-1.187-1.184-1.187
		c-0.657,0-1.187,0.533-1.187,1.187S120.673,109.166,121.33,109.166z"/>
	<path fill="#474747" d="M107.982,109.166c0.651,0,1.181-0.53,1.181-1.181c0-0.657-0.53-1.19-1.181-1.19
		c-0.657,0-1.187,0.533-1.187,1.19C106.795,108.636,107.325,109.166,107.982,109.166z"/>
	<path fill="#474747" d="M94.629,109.166c0.657,0,1.187-0.53,1.187-1.181c0-0.657-0.53-1.19-1.187-1.19
		c-0.651,0-1.181,0.533-1.181,1.19C93.448,108.636,93.978,109.166,94.629,109.166z"/>
	<path fill="#474747" d="M81.282,109.166c0.654,0,1.184-0.53,1.184-1.181c0-0.657-0.53-1.19-1.184-1.19
		c-0.656,0-1.184,0.533-1.184,1.19C80.098,108.636,80.625,109.166,81.282,109.166z"/>
	<path fill="#474747" d="M67.932,109.166c0.654,0,1.184-0.53,1.184-1.181c0-0.657-0.53-1.19-1.184-1.19
		c-0.651,0-1.184,0.533-1.184,1.19C66.748,108.636,67.281,109.166,67.932,109.166z"/>
	<path fill="#474747" d="M54.581,109.166c0.659,0,1.184-0.53,1.184-1.181c0-0.657-0.524-1.19-1.184-1.19
		c-0.654,0-1.181,0.533-1.181,1.19C53.401,108.636,53.928,109.166,54.581,109.166z"/>
	<path fill="#474747" d="M41.234,109.166c0.651,0,1.187-0.53,1.187-1.181c0-0.657-0.536-1.19-1.187-1.19
		c-0.657,0-1.187,0.533-1.187,1.19C40.048,108.636,40.578,109.166,41.234,109.166z"/>
	<path fill="#474747" d="M27.884,109.166c0.654,0,1.187-0.53,1.187-1.181c0-0.657-0.533-1.19-1.187-1.19
		c-0.654,0-1.184,0.533-1.184,1.19C26.7,108.636,27.23,109.166,27.884,109.166z"/>
	<path fill="#474747" d="M14.534,109.166c0.657,0,1.187-0.53,1.187-1.181c0-0.657-0.53-1.19-1.187-1.19
		c-0.654,0-1.181,0.533-1.181,1.19C13.353,108.636,13.88,109.166,14.534,109.166z"/>
	<path fill="#474747" d="M1.184,109.166c0.654,0,1.19-0.53,1.19-1.181c0-0.657-0.536-1.19-1.19-1.19S0,107.329,0,107.985
		C0,108.636,0.53,109.166,1.184,109.166z"/>
	<path fill="#474747" d="M174.73,95.816c0.651,0,1.181-0.53,1.181-1.187c0-0.651-0.53-1.181-1.181-1.181
		c-0.657,0-1.187,0.53-1.187,1.181C173.543,95.286,174.073,95.816,174.73,95.816z"/>
	<path fill="#474747" d="M161.38,95.816c0.654,0,1.184-0.53,1.184-1.187c0-0.651-0.53-1.181-1.184-1.181
		c-0.651,0-1.187,0.53-1.187,1.181C160.193,95.286,160.729,95.816,161.38,95.816z"/>
	<path fill="#474747" d="M148.03,95.816c0.651,0,1.184-0.53,1.184-1.187c0-0.651-0.533-1.181-1.184-1.181
		c-0.657,0-1.187,0.53-1.187,1.181C146.843,95.286,147.373,95.816,148.03,95.816z"/>
	<path fill="#474747" d="M134.68,95.816c0.654,0,1.184-0.53,1.184-1.187c0-0.651-0.53-1.181-1.184-1.181
		c-0.654,0-1.187,0.53-1.187,1.181C133.493,95.286,134.026,95.816,134.68,95.816z"/>
	<path fill="#474747" d="M121.33,95.816c0.657,0,1.184-0.53,1.184-1.187c0-0.651-0.527-1.181-1.184-1.181
		c-0.657,0-1.187,0.53-1.187,1.181C120.143,95.286,120.673,95.816,121.33,95.816z"/>
	<path fill="#474747" d="M107.982,95.816c0.651,0,1.181-0.53,1.181-1.181c0-0.654-0.53-1.187-1.181-1.187
		c-0.657,0-1.187,0.533-1.187,1.187C106.795,95.286,107.325,95.816,107.982,95.816z"/>
	<path fill="#474747" d="M94.629,95.816c0.657,0,1.187-0.53,1.187-1.181c0-0.654-0.53-1.187-1.187-1.187
		c-0.651,0-1.181,0.533-1.181,1.187C93.448,95.286,93.978,95.816,94.629,95.816z"/>
	<path fill="#474747" d="M81.282,95.816c0.654,0,1.184-0.53,1.184-1.181c0-0.654-0.53-1.187-1.184-1.187
		c-0.656,0-1.184,0.533-1.184,1.187C80.098,95.286,80.625,95.816,81.282,95.816z"/>
	<path fill="#474747" d="M67.932,95.816c0.654,0,1.184-0.53,1.184-1.181c0-0.654-0.53-1.187-1.184-1.187
		c-0.651,0-1.184,0.533-1.184,1.187C66.748,95.286,67.281,95.816,67.932,95.816z"/>
	<path fill="#474747" d="M54.581,95.816c0.659,0,1.184-0.53,1.184-1.181c0-0.654-0.524-1.187-1.184-1.187
		c-0.654,0-1.181,0.533-1.181,1.187C53.401,95.286,53.928,95.816,54.581,95.816z"/>
	<path fill="#474747" d="M41.234,95.816c0.651,0,1.187-0.53,1.187-1.181c0-0.654-0.536-1.187-1.187-1.187
		c-0.657,0-1.187,0.533-1.187,1.187C40.048,95.286,40.578,95.816,41.234,95.816z"/>
	<path fill="#474747" d="M27.884,95.816c0.654,0,1.187-0.53,1.187-1.181c0-0.654-0.533-1.187-1.187-1.187
		c-0.654,0-1.184,0.533-1.184,1.187C26.7,95.286,27.23,95.816,27.884,95.816z"/>
	<path fill="#474747" d="M14.534,95.816c0.657,0,1.187-0.53,1.187-1.181c0-0.654-0.53-1.187-1.187-1.187
		c-0.654,0-1.181,0.533-1.181,1.187C13.353,95.286,13.88,95.816,14.534,95.816z"/>
	<path fill="#474747" d="M1.184,95.816c0.654,0,1.19-0.53,1.19-1.181c0-0.654-0.536-1.187-1.19-1.187S0,93.981,0,94.635
		C0,95.286,0.53,95.816,1.184,95.816z"/>
	<path fill="#474747" d="M174.73,82.466c0.651,0,1.181-0.53,1.181-1.184c0-0.654-0.53-1.187-1.181-1.187
		c-0.657,0-1.187,0.533-1.187,1.187C173.543,81.936,174.073,82.466,174.73,82.466z"/>
	<circle fill="#474747" cx="161.38" cy="81.281" r="1.185"/>
	<path fill="#474747" d="M148.03,82.466c0.651,0,1.184-0.53,1.184-1.184c0-0.654-0.533-1.187-1.184-1.187
		c-0.657,0-1.187,0.533-1.187,1.187C146.843,81.936,147.373,82.466,148.03,82.466z"/>
	<circle fill="#474747" cx="134.68" cy="81.281" r="1.185"/>
	<path fill="#474747" d="M121.33,82.466c0.657,0,1.184-0.53,1.184-1.184c0-0.654-0.527-1.187-1.184-1.187
		c-0.657,0-1.187,0.533-1.187,1.187C120.143,81.936,120.673,82.466,121.33,82.466z"/>
	<path fill="#474747" d="M107.982,82.466c0.651,0,1.181-0.53,1.181-1.184c0-0.651-0.53-1.187-1.181-1.187
		c-0.657,0-1.187,0.536-1.187,1.187C106.795,81.936,107.325,82.466,107.982,82.466z"/>
	<path fill="#474747" d="M94.629,82.466c0.657,0,1.187-0.53,1.187-1.184c0-0.651-0.53-1.187-1.187-1.187
		c-0.651,0-1.181,0.536-1.181,1.187C93.448,81.936,93.978,82.466,94.629,82.466z"/>
	<path fill="#474747" d="M81.282,82.466c0.654,0,1.184-0.53,1.184-1.184c0-0.651-0.53-1.187-1.184-1.187
		c-0.656,0-1.184,0.536-1.184,1.187C80.098,81.936,80.625,82.466,81.282,82.466z"/>
	<path fill="#474747" d="M67.932,82.466c0.654,0,1.184-0.53,1.184-1.184c0-0.651-0.53-1.187-1.184-1.187
		c-0.651,0-1.184,0.536-1.184,1.187C66.748,81.936,67.281,82.466,67.932,82.466z"/>
	<path fill="#474747" d="M54.581,82.466c0.659,0,1.184-0.53,1.184-1.184c0-0.651-0.524-1.187-1.184-1.187
		c-0.654,0-1.181,0.536-1.181,1.187C53.401,81.936,53.928,82.466,54.581,82.466z"/>
	<path fill="#474747" d="M41.234,82.466c0.651,0,1.187-0.53,1.187-1.184c0-0.651-0.536-1.187-1.187-1.187
		c-0.657,0-1.187,0.536-1.187,1.187C40.048,81.936,40.578,82.466,41.234,82.466z"/>
	<path fill="#474747" d="M27.884,82.466c0.654,0,1.187-0.53,1.187-1.184c0-0.651-0.533-1.187-1.187-1.187
		c-0.654,0-1.184,0.536-1.184,1.187C26.7,81.936,27.23,82.466,27.884,82.466z"/>
	<path fill="#474747" d="M14.534,82.466c0.657,0,1.187-0.53,1.187-1.184c0-0.651-0.53-1.187-1.187-1.187
		c-0.654,0-1.181,0.536-1.181,1.187C13.353,81.936,13.88,82.466,14.534,82.466z"/>
	<path fill="#474747" d="M1.184,82.466c0.654,0,1.19-0.53,1.19-1.184c0-0.651-0.536-1.187-1.19-1.187S0,80.631,0,81.282
		C0,81.936,0.53,82.466,1.184,82.466z"/>
	<path fill="#474747" d="M174.73,69.116c0.651,0,1.181-0.53,1.181-1.184c0-0.654-0.53-1.184-1.181-1.184
		c-0.657,0-1.187,0.53-1.187,1.184C173.543,68.586,174.073,69.116,174.73,69.116z"/>
	<circle fill="#474747" cx="161.38" cy="67.932" r="1.184"/>
	<path fill="#474747" d="M148.03,69.116c0.651,0,1.184-0.53,1.184-1.184c0-0.654-0.533-1.184-1.184-1.184
		c-0.657,0-1.187,0.53-1.187,1.184C146.843,68.586,147.373,69.116,148.03,69.116z"/>
	<circle fill="#474747" cx="134.68" cy="67.932" r="1.184"/>
	<path fill="#474747" d="M121.33,69.116c0.657,0,1.184-0.53,1.184-1.184c0-0.654-0.527-1.184-1.184-1.184
		c-0.657,0-1.187,0.53-1.187,1.184C120.143,68.586,120.673,69.116,121.33,69.116z"/>
	<path fill="#474747" d="M107.982,69.116c0.651,0,1.181-0.527,1.181-1.181c0-0.654-0.53-1.184-1.181-1.184
		c-0.657,0-1.187,0.53-1.187,1.184C106.795,68.589,107.325,69.116,107.982,69.116z"/>
	<path fill="#474747" d="M94.629,69.116c0.657,0,1.187-0.527,1.187-1.181c0-0.654-0.53-1.184-1.187-1.184
		c-0.651,0-1.181,0.53-1.181,1.184C93.448,68.589,93.978,69.116,94.629,69.116z"/>
	<circle fill="#474747" cx="81.282" cy="67.933" r="1.182"/>
	<circle fill="#474747" cx="67.932" cy="67.933" r="1.182"/>
	<path fill="#474747" d="M54.581,69.116c0.659,0,1.184-0.527,1.184-1.181c0-0.654-0.524-1.184-1.184-1.184
		c-0.654,0-1.181,0.53-1.181,1.184C53.401,68.589,53.928,69.116,54.581,69.116z"/>
	<path fill="#474747" d="M41.234,69.116c0.651,0,1.187-0.527,1.187-1.181c0-0.654-0.536-1.184-1.187-1.184
		c-0.657,0-1.187,0.53-1.187,1.184C40.048,68.589,40.578,69.116,41.234,69.116z"/>
	<circle fill="#474747" cx="27.884" cy="67.933" r="1.182"/>
	<circle fill="#474747" cx="14.534" cy="67.933" r="1.182"/>
	<path fill="#474747" d="M1.184,69.116c0.654,0,1.19-0.527,1.19-1.181c0-0.654-0.536-1.184-1.19-1.184S0,67.281,0,67.935
		C0,68.589,0.53,69.116,1.184,69.116z"/>
	<path fill="#474747" d="M174.73,55.766c0.651,0,1.181-0.527,1.181-1.181c0-0.651-0.53-1.184-1.181-1.184
		c-0.657,0-1.187,0.533-1.187,1.184C173.543,55.239,174.073,55.766,174.73,55.766z"/>
	<circle fill="#474747" cx="161.38" cy="54.583" r="1.182"/>
	<path fill="#474747" d="M148.03,55.766c0.651,0,1.184-0.527,1.184-1.181c0-0.651-0.533-1.184-1.184-1.184
		c-0.657,0-1.187,0.533-1.187,1.184C146.843,55.239,147.373,55.766,148.03,55.766z"/>
	<circle fill="#474747" cx="134.68" cy="54.583" r="1.182"/>
	<path fill="#474747" d="M121.33,55.766c0.657,0,1.184-0.527,1.184-1.181c0-0.651-0.527-1.184-1.184-1.184
		c-0.657,0-1.187,0.533-1.187,1.184C120.143,55.239,120.673,55.766,121.33,55.766z"/>
	<path fill="#474747" d="M107.982,55.766c0.651,0,1.181-0.527,1.181-1.181c0-0.651-0.53-1.184-1.181-1.184
		c-0.657,0-1.187,0.533-1.187,1.184C106.795,55.239,107.325,55.766,107.982,55.766z"/>
	<path fill="#474747" d="M94.629,55.766c0.657,0,1.187-0.527,1.187-1.181c0-0.651-0.53-1.184-1.187-1.184
		c-0.651,0-1.181,0.533-1.181,1.184C93.448,55.239,93.978,55.766,94.629,55.766z"/>
	<circle fill="#474747" cx="81.282" cy="54.583" r="1.182"/>
	<circle fill="#474747" cx="67.932" cy="54.583" r="1.182"/>
	<path fill="#474747" d="M54.581,55.766c0.659,0,1.184-0.527,1.184-1.181c0-0.651-0.524-1.184-1.184-1.184
		c-0.654,0-1.181,0.533-1.181,1.184C53.401,55.239,53.928,55.766,54.581,55.766z"/>
	<path fill="#474747" d="M41.234,55.766c0.651,0,1.187-0.527,1.187-1.181c0-0.651-0.536-1.184-1.187-1.184
		c-0.657,0-1.187,0.533-1.187,1.184C40.048,55.239,40.578,55.766,41.234,55.766z"/>
	<circle fill="#474747" cx="27.884" cy="54.583" r="1.182"/>
	<circle fill="#474747" cx="14.534" cy="54.583" r="1.182"/>
	<path fill="#474747" d="M1.184,55.766c0.654,0,1.19-0.527,1.19-1.181c0-0.651-0.536-1.184-1.19-1.184S0,53.934,0,54.585
		C0,55.239,0.53,55.766,1.184,55.766z"/>
	<path fill="#474747" d="M174.73,42.418c0.651,0,1.181-0.524,1.181-1.184c0-0.654-0.53-1.184-1.181-1.184
		c-0.657,0-1.187,0.53-1.187,1.184C173.543,41.894,174.073,42.418,174.73,42.418z"/>
	<path fill="#474747" d="M161.38,42.418c0.654,0,1.184-0.524,1.184-1.184c0-0.654-0.53-1.184-1.184-1.184
		c-0.651,0-1.187,0.53-1.187,1.184C160.193,41.894,160.729,42.418,161.38,42.418z"/>
	<path fill="#474747" d="M148.03,42.418c0.651,0,1.184-0.524,1.184-1.184c0-0.654-0.533-1.184-1.184-1.184
		c-0.657,0-1.187,0.53-1.187,1.184C146.843,41.894,147.373,42.418,148.03,42.418z"/>
	<path fill="#474747" d="M134.68,42.418c0.654,0,1.184-0.524,1.184-1.184c0-0.654-0.53-1.184-1.184-1.184
		c-0.654,0-1.187,0.53-1.187,1.184C133.493,41.894,134.026,42.418,134.68,42.418z"/>
	<path fill="#474747" d="M121.33,42.418c0.657,0,1.184-0.524,1.184-1.184c0-0.654-0.527-1.184-1.184-1.184
		c-0.657,0-1.187,0.53-1.187,1.184C120.143,41.894,120.673,42.418,121.33,42.418z"/>
	<path fill="#474747" d="M107.982,42.418c0.651,0,1.181-0.524,1.181-1.184c0-0.654-0.53-1.184-1.181-1.184
		c-0.657,0-1.187,0.53-1.187,1.184C106.795,41.894,107.325,42.418,107.982,42.418z"/>
	<path fill="#474747" d="M94.629,42.418c0.657,0,1.187-0.524,1.187-1.184c0-0.654-0.53-1.184-1.187-1.184
		c-0.651,0-1.181,0.53-1.181,1.184C93.448,41.894,93.978,42.418,94.629,42.418z"/>
	<path fill="#474747" d="M81.282,42.418c0.654,0,1.184-0.524,1.184-1.184c0-0.654-0.53-1.184-1.184-1.184
		c-0.656,0-1.184,0.53-1.184,1.184C80.098,41.894,80.625,42.418,81.282,42.418z"/>
	<path fill="#474747" d="M67.932,42.418c0.654,0,1.184-0.524,1.184-1.184c0-0.654-0.53-1.184-1.184-1.184
		c-0.651,0-1.184,0.53-1.184,1.184C66.748,41.894,67.281,42.418,67.932,42.418z"/>
	<path fill="#474747" d="M54.581,42.418c0.659,0,1.184-0.524,1.184-1.184c0-0.654-0.524-1.184-1.184-1.184
		c-0.654,0-1.181,0.53-1.181,1.184C53.401,41.894,53.928,42.418,54.581,42.418z"/>
	<path fill="#474747" d="M41.234,42.418c0.651,0,1.187-0.524,1.187-1.184c0-0.654-0.536-1.184-1.187-1.184
		c-0.657,0-1.187,0.53-1.187,1.184C40.048,41.894,40.578,42.418,41.234,42.418z"/>
	<path fill="#474747" d="M27.884,42.418c0.654,0,1.187-0.524,1.187-1.184c0-0.654-0.533-1.184-1.187-1.184
		c-0.654,0-1.184,0.53-1.184,1.184C26.7,41.894,27.23,42.418,27.884,42.418z"/>
	<path fill="#474747" d="M14.534,42.418c0.657,0,1.187-0.524,1.187-1.184c0-0.654-0.53-1.184-1.187-1.184
		c-0.654,0-1.181,0.53-1.181,1.184C13.353,41.894,13.88,42.418,14.534,42.418z"/>
	<path fill="#474747" d="M1.184,42.418c0.654,0,1.19-0.524,1.19-1.184c0-0.654-0.536-1.184-1.19-1.184S0,40.581,0,41.234
		C0,41.894,0.53,42.418,1.184,42.418z"/>
	<path fill="#474747" d="M174.73,29.068c0.651,0,1.181-0.53,1.181-1.184c0-0.651-0.53-1.184-1.181-1.184
		c-0.657,0-1.187,0.533-1.187,1.184C173.543,28.538,174.073,29.068,174.73,29.068z"/>
	<circle fill="#474747" cx="161.38" cy="27.884" r="1.184"/>
	<path fill="#474747" d="M148.03,29.068c0.651,0,1.184-0.53,1.184-1.184c0-0.651-0.533-1.184-1.184-1.184
		c-0.657,0-1.187,0.533-1.187,1.184C146.843,28.538,147.373,29.068,148.03,29.068z"/>
	<circle fill="#474747" cx="134.68" cy="27.884" r="1.184"/>
	<path fill="#474747" d="M121.33,29.068c0.657,0,1.184-0.53,1.184-1.184c0-0.651-0.527-1.184-1.184-1.184
		c-0.657,0-1.187,0.533-1.187,1.184C120.143,28.538,120.673,29.068,121.33,29.068z"/>
	<path fill="#474747" d="M107.982,29.068c0.651,0,1.181-0.53,1.181-1.184c0-0.651-0.53-1.184-1.181-1.184
		c-0.657,0-1.187,0.533-1.187,1.184C106.795,28.538,107.325,29.068,107.982,29.068z"/>
	<path fill="#474747" d="M94.629,29.068c0.657,0,1.187-0.53,1.187-1.184c0-0.651-0.53-1.184-1.187-1.184
		c-0.651,0-1.181,0.533-1.181,1.184C93.448,28.538,93.978,29.068,94.629,29.068z"/>
	<circle fill="#474747" cx="81.282" cy="27.884" r="1.184"/>
	<circle fill="#474747" cx="67.932" cy="27.884" r="1.184"/>
	<path fill="#474747" d="M54.581,29.068c0.659,0,1.184-0.53,1.184-1.184c0-0.651-0.524-1.184-1.184-1.184
		c-0.654,0-1.181,0.533-1.181,1.184C53.401,28.538,53.928,29.068,54.581,29.068z"/>
	<path fill="#474747" d="M41.234,29.068c0.651,0,1.187-0.53,1.187-1.184c0-0.651-0.536-1.184-1.187-1.184
		c-0.657,0-1.187,0.533-1.187,1.184C40.048,28.538,40.578,29.068,41.234,29.068z"/>
	<circle fill="#474747" cx="27.884" cy="27.884" r="1.184"/>
	<circle fill="#474747" cx="14.534" cy="27.884" r="1.184"/>
	<path fill="#474747" d="M1.184,29.068c0.654,0,1.19-0.53,1.19-1.184c0-0.651-0.536-1.184-1.19-1.184S0,27.233,0,27.884
		C0,28.538,0.53,29.068,1.184,29.068z"/>
	<path fill="#474747" d="M174.73,15.718c0.651,0,1.181-0.524,1.181-1.181c0-0.654-0.53-1.187-1.181-1.187
		c-0.657,0-1.187,0.533-1.187,1.187C173.543,15.194,174.073,15.718,174.73,15.718z"/>
	<path fill="#474747" d="M161.38,15.718c0.654,0,1.184-0.524,1.184-1.181c0-0.654-0.53-1.187-1.184-1.187
		c-0.651,0-1.187,0.533-1.187,1.187C160.193,15.194,160.729,15.718,161.38,15.718z"/>
	<path fill="#474747" d="M148.03,15.718c0.651,0,1.184-0.524,1.184-1.181c0-0.654-0.533-1.187-1.184-1.187
		c-0.657,0-1.187,0.533-1.187,1.187C146.843,15.194,147.373,15.718,148.03,15.718z"/>
	<path fill="#474747" d="M134.68,15.718c0.654,0,1.184-0.524,1.184-1.181c0-0.654-0.53-1.187-1.184-1.187
		c-0.654,0-1.187,0.533-1.187,1.187C133.493,15.194,134.026,15.718,134.68,15.718z"/>
	<path fill="#474747" d="M121.33,15.718c0.657,0,1.184-0.524,1.184-1.181c0-0.654-0.527-1.187-1.184-1.187
		c-0.657,0-1.187,0.533-1.187,1.187C120.143,15.194,120.673,15.718,121.33,15.718z"/>
	<path fill="#474747" d="M107.982,15.718c0.651,0,1.181-0.524,1.181-1.181c0-0.654-0.53-1.187-1.181-1.187
		c-0.657,0-1.187,0.533-1.187,1.187C106.795,15.194,107.325,15.718,107.982,15.718z"/>
	<path fill="#474747" d="M94.629,15.718c0.657,0,1.187-0.524,1.187-1.181c0-0.654-0.53-1.187-1.187-1.187
		c-0.651,0-1.181,0.533-1.181,1.187C93.448,15.194,93.978,15.718,94.629,15.718z"/>
	<circle fill="#474747" cx="81.282" cy="14.534" r="1.184"/>
	<circle fill="#474747" cx="67.932" cy="14.534" r="1.184"/>
	<path fill="#474747" d="M54.581,15.718c0.659,0,1.184-0.524,1.184-1.181c0-0.654-0.524-1.187-1.184-1.187
		c-0.654,0-1.181,0.533-1.181,1.187C53.401,15.194,53.928,15.718,54.581,15.718z"/>
	<path fill="#474747" d="M41.234,15.718c0.651,0,1.187-0.524,1.187-1.181c0-0.654-0.536-1.187-1.187-1.187
		c-0.657,0-1.187,0.533-1.187,1.187C40.048,15.194,40.578,15.718,41.234,15.718z"/>
	<circle fill="#474747" cx="27.884" cy="14.534" r="1.184"/>
	<circle fill="#474747" cx="14.534" cy="14.534" r="1.184"/>
	<path fill="#474747" d="M1.184,15.718c0.654,0,1.19-0.524,1.19-1.181c0-0.654-0.536-1.187-1.19-1.187S0,13.883,0,14.537
		C0,15.194,0.53,15.718,1.184,15.718z"/>
	<path fill="#474747" d="M174.73,2.371c0.651,0,1.181-0.53,1.181-1.184S175.381,0,174.73,0c-0.657,0-1.187,0.533-1.187,1.187
		S174.073,2.371,174.73,2.371z"/>
	<circle fill="#474747" cx="161.38" cy="1.185" r="1.185"/>
	<path fill="#474747" d="M148.03,2.371c0.651,0,1.184-0.53,1.184-1.184S148.681,0,148.03,0c-0.657,0-1.187,0.533-1.187,1.187
		S147.373,2.371,148.03,2.371z"/>
	<circle fill="#474747" cx="134.68" cy="1.185" r="1.185"/>
	<path fill="#474747" d="M121.33,2.371c0.657,0,1.184-0.53,1.184-1.184S121.986,0,121.33,0c-0.657,0-1.187,0.533-1.187,1.187
		S120.673,2.371,121.33,2.371z"/>
	<path fill="#474747" d="M107.982,2.371c0.651,0,1.181-0.53,1.181-1.184S108.633,0,107.982,0c-0.657,0-1.187,0.533-1.187,1.187
		S107.325,2.371,107.982,2.371z"/>
	<path fill="#474747" d="M94.629,2.371c0.657,0,1.187-0.53,1.187-1.184S95.286,0,94.629,0c-0.651,0-1.181,0.533-1.181,1.187
		S93.978,2.371,94.629,2.371z"/>
	<circle fill="#474747" cx="81.282" cy="1.185" r="1.185"/>
	<circle fill="#474747" cx="67.932" cy="1.185" r="1.185"/>
	<path fill="#474747" d="M54.581,2.371c0.659,0,1.184-0.53,1.184-1.184S55.241,0,54.581,0c-0.654,0-1.181,0.533-1.181,1.187
		S53.928,2.371,54.581,2.371z"/>
	<path fill="#474747" d="M41.234,2.371c0.651,0,1.187-0.53,1.187-1.184S41.885,0,41.234,0c-0.657,0-1.187,0.533-1.187,1.187
		S40.578,2.371,41.234,2.371z"/>
	<circle fill="#474747" cx="27.884" cy="1.185" r="1.185"/>
	<circle fill="#474747" cx="14.534" cy="1.185" r="1.185"/>
	<path fill="#474747" d="M1.184,2.371c0.654,0,1.19-0.53,1.19-1.184S1.838,0,1.184,0C0.53,0,0,0.533,0,1.187
		C0,1.841,0.53,2.371,1.184,2.371z"/>
</g>
</svg>
