<?xml version="1.0" encoding="utf-8"?>
<!-- Generator: Adobe Illustrator 17.0.0, SVG Export Plug-In . SVG Version: 6.00 Build 0)  -->
<!DOCTYPE svg PUBLIC "-//W3C//DTD SVG 1.1//EN" "http://www.w3.org/Graphics/SVG/1.1/DTD/svg11.dtd">
<svg version="1.1" id="Layer_1" xmlns="http://www.w3.org/2000/svg" xmlns:xlink="http://www.w3.org/1999/xlink" x="0px" y="0px"
	 width="180px" height="408.25px" viewBox="0 0 180 408.25" enable-background="new 0 0 180 408.25" xml:space="preserve">
<g>
	<path fill="#474747" d="M176.501,405.918c0.653,0.002,1.186-0.53,1.188-1.182c0.002-0.658-0.527-1.191-1.179-1.194
		c-0.658-0.003-1.191,0.527-1.194,1.185C175.314,405.379,175.843,405.915,176.501,405.918z"/>
	<path fill="#474747" d="M163.119,405.867c0.655,0.002,1.189-0.53,1.191-1.182c0.002-0.658-0.527-1.191-1.182-1.194
		c-0.653-0.002-1.192,0.527-1.194,1.185C161.931,405.329,162.466,405.865,163.119,405.867z"/>
	<path fill="#474747" d="M149.735,405.817c0.653,0.002,1.192-0.53,1.194-1.182c0.002-0.658-0.533-1.191-1.185-1.194
		c-0.658-0.002-1.191,0.527-1.194,1.185C148.548,405.278,149.077,405.815,149.735,405.817z"/>
	<path fill="#474747" d="M136.352,405.767c0.656,0.002,1.192-0.53,1.194-1.182c0.002-0.658-0.53-1.191-1.185-1.194
		c-0.655-0.002-1.189,0.527-1.191,1.185C135.168,405.228,135.697,405.764,136.352,405.767z"/>
	<path fill="#474747" d="M122.97,405.716c0.658,0.003,1.191-0.53,1.194-1.182c0.002-0.658-0.527-1.191-1.185-1.194
		c-0.656-0.002-1.186,0.527-1.188,1.185C121.788,405.178,122.314,405.714,122.97,405.716z"/>
	<path fill="#474747" d="M109.589,405.666c0.653,0.002,1.189-0.527,1.191-1.182c0.002-0.658-0.53-1.191-1.182-1.194
		c-0.658-0.002-1.192,0.527-1.194,1.185C108.402,405.13,108.931,405.664,109.589,405.666z"/>
	<path fill="#474747" d="M96.203,405.616c0.658,0.002,1.192-0.527,1.194-1.182c0.002-0.658-0.527-1.191-1.185-1.194
		c-0.653-0.002-1.186,0.527-1.188,1.185C95.021,405.08,95.551,405.613,96.203,405.616z"/>
	<circle fill="#474747" cx="82.828" cy="404.377" r="1.188"/>
	<path fill="#474747" d="M69.44,405.515c0.656,0.002,1.191-0.527,1.194-1.182c0.002-0.658-0.529-1.191-1.185-1.194
		c-0.653-0.002-1.189,0.527-1.191,1.185C68.256,404.979,68.788,405.513,69.44,405.515z"/>
	<path fill="#474747" d="M56.063,405.465c0.655,0.002,1.186-0.527,1.188-1.182c0.002-0.658-0.524-1.191-1.179-1.194
		c-0.661-0.003-1.192,0.527-1.194,1.185C54.875,404.929,55.402,405.462,56.063,405.465z"/>
	<circle fill="#474747" cx="42.682" cy="404.226" r="1.188"/>
	<path fill="#474747" d="M29.297,405.364c0.653,0.002,1.189-0.527,1.191-1.182c0.002-0.658-0.53-1.191-1.182-1.194
		c-0.658-0.002-1.191,0.527-1.194,1.185C28.11,404.828,28.639,405.361,29.297,405.364z"/>
	<path fill="#474747" d="M15.914,405.314c0.655,0.002,1.189-0.527,1.191-1.182c0.002-0.658-0.527-1.191-1.182-1.194
		c-0.658-0.002-1.189,0.527-1.191,1.185C14.729,404.778,15.256,405.311,15.914,405.314z"/>
	<path fill="#474747" d="M2.54,402.887c-0.655-0.002-1.191,0.527-1.194,1.185c-0.002,0.656,0.53,1.189,1.185,1.191
		c0.653,0.002,1.191-0.527,1.194-1.182C3.727,403.422,3.193,402.889,2.54,402.887z"/>
	<path fill="#474747" d="M176.552,392.532c0.653,0.002,1.186-0.524,1.188-1.179c0.002-0.658-0.527-1.189-1.179-1.191
		c-0.658-0.002-1.191,0.524-1.194,1.182C175.364,391.999,175.894,392.529,176.552,392.532z"/>
	<path fill="#474747" d="M163.169,392.481c0.656,0.002,1.189-0.524,1.191-1.179c0.002-0.658-0.527-1.189-1.182-1.191
		c-0.653-0.002-1.192,0.524-1.194,1.182C161.981,391.948,162.516,392.479,163.169,392.481z"/>
	<path fill="#474747" d="M149.786,392.431c0.653,0.002,1.192-0.524,1.194-1.179c0.002-0.658-0.533-1.189-1.185-1.191
		c-0.658-0.002-1.191,0.524-1.194,1.182C148.598,391.898,149.128,392.428,149.786,392.431z"/>
	<path fill="#474747" d="M136.403,392.381c0.655,0.002,1.192-0.524,1.194-1.179c0.002-0.658-0.53-1.189-1.185-1.191
		c-0.655-0.002-1.189,0.524-1.191,1.182C135.218,391.848,135.748,392.378,136.403,392.381z"/>
	<path fill="#474747" d="M123.02,392.33c0.658,0.002,1.191-0.524,1.194-1.179c0.002-0.658-0.527-1.189-1.185-1.191
		c-0.655-0.002-1.186,0.524-1.188,1.182C121.838,391.797,122.364,392.328,123.02,392.33z"/>
	<path fill="#474747" d="M109.64,392.28c0.653,0.002,1.189-0.524,1.191-1.179c0.002-0.658-0.53-1.189-1.182-1.191
		c-0.658-0.002-1.192,0.524-1.194,1.182C108.452,391.747,108.981,392.277,109.64,392.28z"/>
	<path fill="#474747" d="M96.254,392.23c0.658,0.002,1.192-0.524,1.194-1.179c0.002-0.658-0.527-1.189-1.185-1.191
		c-0.653-0.002-1.186,0.524-1.188,1.182C95.072,391.697,95.601,392.227,96.254,392.23z"/>
	<path fill="#474747" d="M82.874,392.179c0.655,0.002,1.192-0.524,1.194-1.179c0.002-0.658-0.53-1.189-1.185-1.191
		c-0.658-0.003-1.188,0.524-1.191,1.182C81.689,391.646,82.215,392.177,82.874,392.179z"/>
	<path fill="#474747" d="M69.491,392.129c0.656,0.002,1.191-0.524,1.194-1.179c0.002-0.658-0.529-1.189-1.185-1.191
		c-0.653-0.002-1.189,0.524-1.191,1.182C68.306,391.596,68.838,392.126,69.491,392.129z"/>
	<path fill="#474747" d="M56.114,392.079c0.655,0.002,1.186-0.524,1.188-1.179c0.002-0.658-0.524-1.188-1.179-1.191
		c-0.661-0.003-1.192,0.524-1.194,1.182C54.926,391.546,55.452,392.076,56.114,392.079z"/>
	<path fill="#474747" d="M42.727,392.028c0.658,0.002,1.192-0.524,1.194-1.179c0.002-0.658-0.527-1.189-1.185-1.191
		c-0.658-0.003-1.191,0.524-1.194,1.182C41.54,391.495,42.069,392.026,42.727,392.028z"/>
	<path fill="#474747" d="M29.347,391.978c0.653,0.002,1.189-0.524,1.191-1.179c0.002-0.658-0.53-1.189-1.182-1.191
		c-0.658-0.002-1.191,0.524-1.194,1.182C28.16,391.445,28.689,391.975,29.347,391.978z"/>
	<path fill="#474747" d="M15.965,391.928c0.655,0.002,1.189-0.524,1.191-1.179c0.002-0.658-0.527-1.189-1.182-1.191
		c-0.658-0.002-1.189,0.524-1.191,1.182C14.78,391.395,15.306,391.925,15.965,391.928z"/>
	<path fill="#474747" d="M2.581,391.877c0.653,0.002,1.191-0.524,1.194-1.179c0.002-0.658-0.532-1.189-1.185-1.191
		c-0.655-0.002-1.191,0.524-1.194,1.182C1.394,391.344,1.926,391.875,2.581,391.877z"/>
	<path fill="#474747" d="M176.602,379.154c0.653,0.002,1.186-0.527,1.188-1.185c0.002-0.658-0.527-1.192-1.179-1.194
		c-0.658-0.002-1.191,0.527-1.194,1.185C175.415,378.619,175.944,379.152,176.602,379.154z"/>
	<circle fill="#474747" cx="163.224" cy="377.915" r="1.19"/>
	<path fill="#474747" d="M149.836,379.054c0.653,0.002,1.192-0.527,1.194-1.185c0.002-0.658-0.533-1.192-1.185-1.194
		c-0.658-0.003-1.191,0.527-1.194,1.185C148.649,378.518,149.178,379.051,149.836,379.054z"/>
	<circle fill="#474747" cx="136.458" cy="377.814" r="1.19"/>
	<circle fill="#474747" cx="123.075" cy="377.763" r="1.19"/>
	<path fill="#474747" d="M109.69,378.903c0.653,0.002,1.189-0.527,1.191-1.182c0.002-0.661-0.53-1.194-1.182-1.197
		c-0.658-0.003-1.192,0.527-1.194,1.188C108.502,378.367,109.032,378.9,109.69,378.903z"/>
	<path fill="#474747" d="M96.304,378.852c0.658,0.003,1.192-0.527,1.194-1.182c0.002-0.661-0.527-1.194-1.185-1.197
		c-0.653-0.002-1.186,0.527-1.188,1.188C95.122,378.317,95.651,378.85,96.304,378.852z"/>
	<path fill="#474747" d="M82.924,378.802c0.656,0.002,1.192-0.527,1.194-1.182c0.002-0.661-0.53-1.194-1.185-1.197
		c-0.658-0.002-1.189,0.527-1.191,1.188C81.739,378.266,82.266,378.8,82.924,378.802z"/>
	<path fill="#474747" d="M69.541,378.752c0.656,0.002,1.191-0.527,1.194-1.182c0.002-0.661-0.529-1.194-1.185-1.197
		c-0.653-0.002-1.189,0.527-1.191,1.188C68.356,378.216,68.889,378.749,69.541,378.752z"/>
	<path fill="#474747" d="M56.164,378.701c0.655,0.002,1.186-0.527,1.188-1.182c0.002-0.661-0.524-1.194-1.179-1.197
		c-0.661-0.002-1.192,0.527-1.194,1.188C54.976,378.166,55.502,378.699,56.164,378.701z"/>
	<path fill="#474747" d="M42.778,378.651c0.658,0.002,1.192-0.527,1.194-1.182c0.002-0.661-0.527-1.194-1.185-1.197
		c-0.658-0.002-1.191,0.527-1.194,1.188C41.59,378.115,42.12,378.649,42.778,378.651z"/>
	<path fill="#474747" d="M29.398,378.601c0.653,0.002,1.189-0.527,1.191-1.182c0.002-0.661-0.53-1.194-1.182-1.197
		c-0.658-0.002-1.191,0.527-1.194,1.188C28.21,378.065,28.74,378.598,29.398,378.601z"/>
	<path fill="#474747" d="M16.015,378.55c0.655,0.002,1.189-0.527,1.191-1.182c0.002-0.661-0.527-1.194-1.182-1.197
		c-0.658-0.002-1.189,0.527-1.191,1.188C14.83,378.015,15.356,378.548,16.015,378.55z"/>
	<path fill="#474747" d="M2.632,378.5c0.653,0.002,1.191-0.527,1.194-1.182c0.002-0.661-0.532-1.194-1.185-1.197
		c-0.655-0.002-1.191,0.527-1.194,1.188C1.444,377.964,1.976,378.498,2.632,378.5z"/>
	<path fill="#474747" d="M176.652,365.769c0.653,0.002,1.186-0.527,1.188-1.182c0.002-0.658-0.527-1.189-1.179-1.191
		c-0.658-0.002-1.191,0.524-1.194,1.182C175.465,365.233,175.994,365.766,176.652,365.769z"/>
	<path fill="#474747" d="M163.27,365.718c0.655,0.002,1.189-0.527,1.191-1.182c0.002-0.658-0.527-1.189-1.182-1.191
		c-0.653-0.002-1.192,0.524-1.194,1.182C162.082,365.183,162.617,365.716,163.27,365.718z"/>
	<path fill="#474747" d="M149.887,365.668c0.653,0.002,1.192-0.527,1.194-1.182c0.002-0.658-0.533-1.189-1.185-1.191
		c-0.658-0.002-1.191,0.524-1.194,1.182C148.699,365.132,149.228,365.666,149.887,365.668z"/>
	<path fill="#474747" d="M136.503,365.618c0.656,0.002,1.192-0.527,1.194-1.182c0.002-0.658-0.53-1.189-1.185-1.191
		c-0.655-0.002-1.188,0.524-1.191,1.182C135.319,365.082,135.848,365.615,136.503,365.618z"/>
	<path fill="#474747" d="M123.121,365.567c0.658,0.002,1.191-0.527,1.194-1.182c0.002-0.658-0.527-1.189-1.185-1.191
		c-0.656-0.002-1.186,0.524-1.188,1.182C121.939,365.032,122.465,365.565,123.121,365.567z"/>
	<path fill="#474747" d="M109.74,365.517c0.653,0.002,1.189-0.527,1.191-1.179c0.002-0.661-0.53-1.192-1.182-1.194
		c-0.658-0.002-1.192,0.524-1.194,1.185C108.553,364.981,109.082,365.515,109.74,365.517z"/>
	<path fill="#474747" d="M96.354,365.467c0.658,0.002,1.192-0.527,1.194-1.179c0.002-0.661-0.527-1.192-1.185-1.194
		c-0.653-0.002-1.186,0.524-1.188,1.185C95.173,364.931,95.702,365.464,96.354,365.467z"/>
	<path fill="#474747" d="M82.974,365.416c0.655,0.002,1.192-0.527,1.194-1.179c0.002-0.661-0.53-1.192-1.185-1.194
		c-0.658-0.002-1.188,0.524-1.191,1.185C81.79,364.881,82.316,365.414,82.974,365.416z"/>
	<path fill="#474747" d="M69.591,365.366c0.656,0.002,1.191-0.527,1.194-1.179c0.002-0.661-0.529-1.192-1.185-1.194
		c-0.653-0.002-1.189,0.524-1.191,1.185C68.407,364.83,68.939,365.363,69.591,365.366z"/>
	<path fill="#474747" d="M56.214,365.316c0.655,0.002,1.186-0.527,1.188-1.179c0.002-0.661-0.524-1.192-1.179-1.194
		c-0.661-0.002-1.192,0.524-1.194,1.185C55.026,364.78,55.553,365.313,56.214,365.316z"/>
	<path fill="#474747" d="M42.828,365.265c0.658,0.002,1.192-0.527,1.194-1.179c0.002-0.661-0.527-1.192-1.185-1.194
		c-0.658-0.002-1.191,0.524-1.194,1.185C41.641,364.729,42.17,365.263,42.828,365.265z"/>
	<path fill="#474747" d="M29.448,365.215c0.653,0.002,1.189-0.527,1.191-1.179c0.002-0.661-0.53-1.192-1.182-1.194
		c-0.658-0.002-1.191,0.524-1.194,1.185C28.261,364.679,28.79,365.212,29.448,365.215z"/>
	<path fill="#474747" d="M16.065,365.165c0.655,0.002,1.189-0.527,1.191-1.179c0.002-0.661-0.527-1.192-1.182-1.194
		c-0.658-0.002-1.189,0.524-1.191,1.185C14.88,364.629,15.407,365.162,16.065,365.165z"/>
	<path fill="#474747" d="M2.682,365.114c0.653,0.002,1.191-0.527,1.194-1.179c0.002-0.661-0.532-1.192-1.185-1.194
		c-0.655-0.002-1.191,0.524-1.194,1.185C1.495,364.578,2.027,365.112,2.682,365.114z"/>
	<path fill="#474747" d="M176.703,352.389c0.653,0.002,1.186-0.53,1.188-1.185c0.002-0.655-0.527-1.186-1.179-1.188
		c-0.658-0.003-1.191,0.524-1.194,1.179C175.515,351.85,176.045,352.386,176.703,352.389z"/>
	<circle fill="#474747" cx="163.324" cy="351.151" r="1.187"/>
	<path fill="#474747" d="M149.937,352.288c0.653,0.002,1.192-0.53,1.194-1.185c0.002-0.655-0.533-1.186-1.185-1.188
		c-0.658-0.002-1.191,0.524-1.194,1.179C148.749,351.749,149.279,352.285,149.937,352.288z"/>
	<path fill="#474747" d="M136.554,352.238c0.655,0.002,1.192-0.53,1.194-1.185c0.002-0.655-0.53-1.186-1.185-1.188
		c-0.655-0.002-1.189,0.524-1.191,1.179C135.369,351.699,135.899,352.235,136.554,352.238z"/>
	<path fill="#474747" d="M123.171,352.187c0.658,0.002,1.191-0.53,1.194-1.185c0.002-0.655-0.527-1.186-1.185-1.188
		c-0.655-0.002-1.186,0.524-1.188,1.179C121.989,351.648,122.515,352.185,123.171,352.187z"/>
	<path fill="#474747" d="M109.791,352.137c0.653,0.002,1.189-0.527,1.191-1.182c0.002-0.658-0.53-1.189-1.182-1.191
		c-0.658-0.002-1.192,0.524-1.194,1.182C108.603,351.601,109.132,352.134,109.791,352.137z"/>
	<path fill="#474747" d="M96.405,352.086c0.658,0.002,1.192-0.527,1.194-1.182c0.002-0.658-0.527-1.189-1.185-1.191
		c-0.653-0.002-1.186,0.524-1.188,1.182C95.223,351.551,95.752,352.084,96.405,352.086z"/>
	<circle fill="#474747" cx="83.029" cy="350.849" r="1.187"/>
	<path fill="#474747" d="M69.642,351.986c0.656,0.002,1.191-0.527,1.194-1.182c0.002-0.658-0.529-1.189-1.185-1.191
		c-0.653-0.002-1.189,0.524-1.191,1.182C68.457,351.45,68.989,351.983,69.642,351.986z"/>
	<path fill="#474747" d="M56.265,351.935c0.655,0.002,1.186-0.527,1.188-1.182c0.002-0.658-0.524-1.189-1.179-1.191
		c-0.661-0.003-1.192,0.524-1.194,1.182C55.077,351.4,55.603,351.933,56.265,351.935z"/>
	<circle fill="#474747" cx="42.883" cy="350.698" r="1.187"/>
	<path fill="#474747" d="M29.498,351.835c0.653,0.002,1.189-0.527,1.191-1.182c0.002-0.658-0.53-1.189-1.182-1.191
		c-0.658-0.002-1.191,0.524-1.194,1.182C28.311,351.299,28.84,351.832,29.498,351.835z"/>
	<path fill="#474747" d="M16.116,351.784c0.655,0.002,1.189-0.527,1.191-1.182c0.002-0.658-0.527-1.189-1.182-1.191
		c-0.658-0.002-1.189,0.524-1.191,1.182C14.931,351.249,15.457,351.782,16.116,351.784z"/>
	<path fill="#474747" d="M2.732,351.734c0.653,0.002,1.191-0.527,1.194-1.182c0.002-0.658-0.532-1.189-1.185-1.191
		c-0.655-0.002-1.191,0.524-1.194,1.182C1.545,351.198,2.077,351.732,2.732,351.734z"/>
	<path fill="#474747" d="M176.753,339.005c0.653,0.002,1.186-0.53,1.188-1.182c0.002-0.658-0.527-1.189-1.179-1.191
		c-0.658-0.002-1.191,0.524-1.194,1.182C175.566,338.467,176.095,339.003,176.753,339.005z"/>
	<path fill="#474747" d="M163.37,338.955c0.656,0.002,1.189-0.53,1.191-1.182c0.002-0.658-0.527-1.189-1.182-1.191
		c-0.653-0.002-1.192,0.524-1.194,1.182C162.183,338.416,162.718,338.953,163.37,338.955z"/>
	<path fill="#474747" d="M149.987,338.905c0.653,0.002,1.192-0.53,1.194-1.182c0.002-0.658-0.533-1.189-1.185-1.191
		c-0.658-0.002-1.191,0.524-1.194,1.182C148.8,338.366,149.329,338.902,149.987,338.905z"/>
	<path fill="#474747" d="M136.604,338.854c0.656,0.002,1.192-0.53,1.194-1.182c0.002-0.658-0.53-1.189-1.185-1.191
		c-0.655-0.002-1.189,0.524-1.191,1.182C135.42,338.316,135.949,338.852,136.604,338.854z"/>
	<path fill="#474747" d="M123.221,338.804c0.658,0.002,1.191-0.53,1.194-1.182c0.002-0.658-0.527-1.189-1.185-1.191
		c-0.655-0.002-1.186,0.524-1.188,1.182C122.039,338.265,122.566,338.802,123.221,338.804z"/>
	<path fill="#474747" d="M109.841,338.754c0.653,0.002,1.189-0.527,1.191-1.182c0.002-0.658-0.53-1.189-1.182-1.191
		c-0.658-0.002-1.192,0.524-1.194,1.182C108.653,338.218,109.183,338.751,109.841,338.754z"/>
	<path fill="#474747" d="M96.455,338.703c0.658,0.002,1.192-0.527,1.194-1.182c0.002-0.658-0.527-1.189-1.185-1.191
		c-0.653-0.002-1.186,0.524-1.188,1.182C95.273,338.168,95.803,338.701,96.455,338.703z"/>
	<path fill="#474747" d="M83.075,338.653c0.655,0.002,1.192-0.527,1.194-1.182c0.002-0.658-0.53-1.189-1.185-1.191
		c-0.658-0.003-1.188,0.524-1.191,1.182C81.89,338.117,82.417,338.651,83.075,338.653z"/>
	<path fill="#474747" d="M69.692,338.603c0.656,0.002,1.191-0.527,1.194-1.182c0.002-0.658-0.529-1.189-1.185-1.191
		c-0.653-0.002-1.189,0.524-1.191,1.182C68.507,338.067,69.04,338.6,69.692,338.603z"/>
	<path fill="#474747" d="M56.315,338.552c0.655,0.002,1.186-0.527,1.188-1.182c0.002-0.658-0.524-1.189-1.179-1.191
		c-0.661-0.003-1.192,0.524-1.194,1.182C55.127,338.017,55.654,338.55,56.315,338.552z"/>
	<path fill="#474747" d="M42.929,338.502c0.658,0.002,1.192-0.527,1.194-1.182c0.002-0.658-0.527-1.189-1.185-1.191
		c-0.658-0.003-1.191,0.524-1.194,1.182C41.741,337.966,42.271,338.5,42.929,338.502z"/>
	<path fill="#474747" d="M29.549,338.452c0.653,0.002,1.189-0.527,1.191-1.182c0.002-0.658-0.53-1.189-1.182-1.191
		c-0.658-0.002-1.191,0.524-1.194,1.182C28.361,337.916,28.891,338.449,29.549,338.452z"/>
	<path fill="#474747" d="M16.166,338.401c0.655,0.002,1.189-0.527,1.191-1.182c0.002-0.658-0.527-1.189-1.182-1.191
		c-0.658-0.002-1.189,0.524-1.191,1.182C14.981,337.866,15.507,338.399,16.166,338.401z"/>
	<path fill="#474747" d="M2.783,338.351c0.653,0.002,1.191-0.527,1.194-1.182c0.002-0.658-0.532-1.189-1.185-1.191
		c-0.655-0.002-1.191,0.524-1.194,1.182C1.595,337.815,2.127,338.349,2.783,338.351z"/>
	<path fill="#474747" d="M176.803,325.622c0.653,0.002,1.186-0.53,1.188-1.185c0.002-0.65-0.527-1.189-1.179-1.191
		c-0.658-0.002-1.191,0.533-1.194,1.182C175.616,325.084,176.145,325.62,176.803,325.622z"/>
	<path fill="#474747" d="M163.421,325.572c0.655,0.002,1.189-0.53,1.191-1.185c0.002-0.65-0.527-1.189-1.182-1.191
		c-0.653-0.002-1.192,0.533-1.194,1.182C162.233,325.034,162.768,325.57,163.421,325.572z"/>
	<path fill="#474747" d="M150.038,325.522c0.653,0.002,1.192-0.53,1.194-1.185c0.002-0.65-0.533-1.189-1.185-1.191
		c-0.658-0.003-1.191,0.533-1.194,1.182C148.85,324.983,149.379,325.519,150.038,325.522z"/>
	<path fill="#474747" d="M136.654,325.471c0.656,0.002,1.192-0.53,1.194-1.185c0.002-0.65-0.53-1.189-1.185-1.191
		c-0.655-0.002-1.189,0.533-1.191,1.182C135.47,324.933,135.999,325.469,136.654,325.471z"/>
	<path fill="#474747" d="M123.272,325.421c0.658,0.002,1.191-0.53,1.194-1.185c0.002-0.65-0.527-1.189-1.185-1.191
		c-0.655-0.002-1.186,0.533-1.188,1.182C122.09,324.883,122.616,325.418,123.272,325.421z"/>
	<path fill="#474747" d="M109.891,325.371c0.653,0.002,1.189-0.527,1.191-1.179c0.002-0.655-0.53-1.189-1.182-1.191
		c-0.658-0.002-1.192,0.527-1.194,1.182C108.704,324.835,109.233,325.368,109.891,325.371z"/>
	<path fill="#474747" d="M96.505,325.32c0.658,0.003,1.192-0.527,1.194-1.179c0.002-0.655-0.527-1.189-1.185-1.191
		c-0.653-0.002-1.186,0.527-1.188,1.182C95.324,324.785,95.853,325.318,96.505,325.32z"/>
	<circle fill="#474747" cx="83.13" cy="324.085" r="1.185"/>
	<path fill="#474747" d="M69.742,325.22c0.656,0.002,1.191-0.527,1.194-1.179c0.002-0.655-0.529-1.189-1.185-1.191
		c-0.653-0.002-1.189,0.527-1.191,1.182C68.558,324.684,69.09,325.217,69.742,325.22z"/>
	<path fill="#474747" d="M56.365,325.169c0.655,0.002,1.186-0.527,1.188-1.179c0.002-0.655-0.524-1.189-1.179-1.191
		c-0.661-0.003-1.192,0.527-1.194,1.182C55.178,324.634,55.704,325.167,56.365,325.169z"/>
	<circle fill="#474747" cx="42.984" cy="323.934" r="1.185"/>
	<path fill="#474747" d="M29.599,325.069c0.653,0.002,1.189-0.527,1.191-1.179c0.002-0.655-0.53-1.189-1.182-1.191
		c-0.658-0.002-1.191,0.527-1.194,1.182C28.412,324.533,28.941,325.066,29.599,325.069z"/>
	<path fill="#474747" d="M16.216,325.018c0.655,0.002,1.189-0.527,1.191-1.179c0.002-0.655-0.527-1.189-1.182-1.191
		c-0.658-0.003-1.189,0.527-1.191,1.182C15.031,324.483,15.558,325.016,16.216,325.018z"/>
	<path fill="#474747" d="M2.833,324.968c0.653,0.002,1.191-0.527,1.194-1.179c0.002-0.655-0.532-1.189-1.185-1.191
		c-0.655-0.002-1.191,0.527-1.194,1.182C1.646,324.432,2.178,324.965,2.833,324.968z"/>
	<path fill="#474747" d="M176.854,312.24c0.653,0.002,1.186-0.524,1.188-1.182c0.002-0.656-0.527-1.189-1.179-1.191
		c-0.658-0.002-1.191,0.527-1.194,1.182C175.666,311.707,176.196,312.237,176.854,312.24z"/>
	<path fill="#474747" d="M163.471,312.189c0.656,0.002,1.189-0.524,1.191-1.182c0.002-0.655-0.527-1.189-1.182-1.191
		c-0.653-0.002-1.192,0.527-1.194,1.182C162.283,311.656,162.818,312.187,163.471,312.189z"/>
	<path fill="#474747" d="M150.088,312.139c0.653,0.002,1.192-0.524,1.194-1.182c0.002-0.655-0.533-1.189-1.185-1.191
		c-0.658-0.002-1.191,0.527-1.194,1.182C148.9,311.606,149.43,312.136,150.088,312.139z"/>
	<path fill="#474747" d="M136.705,312.089c0.655,0.002,1.192-0.524,1.194-1.182c0.002-0.655-0.53-1.189-1.185-1.191
		c-0.655-0.002-1.189,0.527-1.191,1.182C135.52,311.556,136.05,312.086,136.705,312.089z"/>
	<path fill="#474747" d="M123.322,312.038c0.658,0.002,1.191-0.524,1.194-1.182c0.002-0.655-0.527-1.189-1.185-1.191
		c-0.655-0.002-1.186,0.527-1.188,1.182C122.14,311.505,122.666,312.036,123.322,312.038z"/>
	<path fill="#474747" d="M109.942,311.988c0.653,0.002,1.189-0.524,1.191-1.182c0.002-0.653-0.53-1.186-1.182-1.188
		c-0.658-0.002-1.192,0.527-1.194,1.179C108.754,311.455,109.283,311.985,109.942,311.988z"/>
	<path fill="#474747" d="M96.556,311.937c0.658,0.003,1.192-0.524,1.194-1.182c0.002-0.653-0.527-1.186-1.185-1.188
		c-0.653-0.002-1.186,0.527-1.188,1.179C95.374,311.405,95.903,311.935,96.556,311.937z"/>
	<path fill="#474747" d="M83.176,311.887c0.655,0.002,1.192-0.524,1.194-1.182c0.002-0.653-0.53-1.186-1.185-1.188
		c-0.658-0.002-1.189,0.527-1.191,1.179C81.991,311.354,82.518,311.885,83.176,311.887z"/>
	<path fill="#474747" d="M69.793,311.837c0.656,0.002,1.191-0.524,1.194-1.182c0.002-0.653-0.529-1.186-1.185-1.188
		c-0.653-0.002-1.189,0.527-1.191,1.179C68.608,311.304,69.14,311.834,69.793,311.837z"/>
	<path fill="#474747" d="M56.416,311.786c0.655,0.002,1.186-0.524,1.188-1.182c0.002-0.653-0.524-1.186-1.179-1.188
		c-0.661-0.002-1.192,0.527-1.194,1.179C55.228,311.254,55.754,311.784,56.416,311.786z"/>
	<path fill="#474747" d="M43.03,311.736c0.658,0.002,1.192-0.524,1.194-1.182c0.002-0.653-0.527-1.186-1.185-1.188
		c-0.658-0.002-1.191,0.527-1.194,1.179C41.842,311.203,42.371,311.734,43.03,311.736z"/>
	<path fill="#474747" d="M29.649,311.686c0.653,0.002,1.189-0.524,1.191-1.182c0.002-0.653-0.53-1.186-1.182-1.188
		c-0.658-0.002-1.191,0.527-1.194,1.179C28.462,311.153,28.991,311.683,29.649,311.686z"/>
	<path fill="#474747" d="M16.267,311.635c0.655,0.002,1.189-0.524,1.191-1.182c0.002-0.653-0.527-1.186-1.182-1.188
		c-0.658-0.002-1.189,0.527-1.191,1.179C15.082,311.103,15.608,311.633,16.267,311.635z"/>
	<path fill="#474747" d="M2.883,311.585c0.653,0.002,1.191-0.524,1.194-1.182c0.002-0.653-0.532-1.186-1.185-1.188
		c-0.655-0.002-1.191,0.527-1.194,1.179C1.696,311.052,2.228,311.583,2.883,311.585z"/>
	<path fill="#474747" d="M176.904,298.859c0.653,0.002,1.186-0.53,1.188-1.182c0.002-0.658-0.527-1.191-1.179-1.194
		c-0.658-0.002-1.191,0.527-1.194,1.185C175.717,298.321,176.246,298.857,176.904,298.859z"/>
	<path fill="#474747" d="M163.521,298.809c0.656,0.002,1.189-0.53,1.191-1.182c0.002-0.658-0.527-1.191-1.182-1.194
		c-0.653-0.002-1.192,0.527-1.194,1.185C162.334,298.27,162.869,298.807,163.521,298.809z"/>
	<path fill="#474747" d="M150.138,298.759c0.653,0.002,1.192-0.53,1.194-1.182c0.002-0.658-0.533-1.191-1.185-1.194
		c-0.658-0.002-1.191,0.527-1.194,1.185C148.951,298.22,149.48,298.756,150.138,298.759z"/>
	<path fill="#474747" d="M136.755,298.708c0.656,0.002,1.192-0.53,1.194-1.182c0.002-0.658-0.53-1.191-1.185-1.194
		c-0.655-0.002-1.189,0.527-1.191,1.185C135.571,298.17,136.1,298.706,136.755,298.708z"/>
	<path fill="#474747" d="M123.372,298.658c0.658,0.002,1.191-0.53,1.194-1.182c0.002-0.658-0.527-1.191-1.185-1.194
		c-0.655-0.002-1.186,0.527-1.188,1.185C122.19,298.119,122.717,298.656,123.372,298.658z"/>
	<path fill="#474747" d="M109.992,298.611c0.653,0.002,1.189-0.533,1.191-1.185c0.002-0.656-0.53-1.191-1.182-1.194
		c-0.658-0.002-1.192,0.529-1.194,1.185C108.804,298.069,109.334,298.608,109.992,298.611z"/>
	<path fill="#474747" d="M96.606,298.56c0.658,0.002,1.192-0.533,1.194-1.185c0.002-0.655-0.527-1.191-1.185-1.194
		c-0.653-0.002-1.186,0.53-1.188,1.185C95.424,298.019,95.954,298.558,96.606,298.56z"/>
	<path fill="#474747" d="M83.226,298.51c0.655,0.002,1.192-0.533,1.194-1.185c0.002-0.656-0.53-1.191-1.185-1.194
		c-0.658-0.002-1.189,0.53-1.191,1.185C82.041,297.968,82.568,298.507,83.226,298.51z"/>
	<path fill="#474747" d="M69.843,298.46c0.656,0.002,1.191-0.533,1.194-1.185c0.002-0.656-0.529-1.191-1.185-1.194
		c-0.653-0.002-1.189,0.53-1.191,1.185C68.658,297.918,69.191,298.457,69.843,298.46z"/>
	<path fill="#474747" d="M56.466,298.409c0.655,0.002,1.186-0.533,1.188-1.185c0.002-0.655-0.524-1.191-1.179-1.194
		c-0.661-0.002-1.192,0.53-1.194,1.185C55.278,297.868,55.805,298.407,56.466,298.409z"/>
	<path fill="#474747" d="M43.08,298.359c0.658,0.002,1.192-0.533,1.194-1.185c0.002-0.656-0.527-1.191-1.185-1.194
		c-0.658-0.002-1.191,0.53-1.194,1.185C41.892,297.817,42.422,298.356,43.08,298.359z"/>
	<path fill="#474747" d="M29.7,298.309c0.653,0.002,1.189-0.533,1.191-1.185c0.002-0.656-0.53-1.191-1.182-1.194
		c-0.658-0.002-1.191,0.53-1.194,1.185C28.512,297.767,29.042,298.306,29.7,298.309z"/>
	<path fill="#474747" d="M16.317,298.258c0.655,0.002,1.189-0.533,1.191-1.185c0.002-0.655-0.527-1.191-1.182-1.194
		c-0.658-0.002-1.189,0.53-1.191,1.185C15.132,297.717,15.658,298.256,16.317,298.258z"/>
	<path fill="#474747" d="M2.934,298.208c0.653,0.002,1.191-0.533,1.194-1.185c0.002-0.656-0.532-1.191-1.185-1.194
		c-0.655-0.002-1.191,0.53-1.194,1.185C1.746,297.666,2.278,298.205,2.934,298.208z"/>
	<path fill="#474747" d="M176.955,285.476c0.653,0.002,1.186-0.527,1.188-1.182c0.002-0.655-0.527-1.189-1.179-1.191
		c-0.658-0.003-1.191,0.527-1.194,1.182C175.767,284.94,176.296,285.474,176.955,285.476z"/>
	<circle fill="#474747" cx="163.576" cy="284.239" r="1.187"/>
	<path fill="#474747" d="M150.189,285.376c0.653,0.002,1.192-0.527,1.194-1.182c0.002-0.655-0.533-1.189-1.185-1.191
		c-0.658-0.002-1.191,0.527-1.194,1.182C149.001,284.84,149.53,285.373,150.189,285.376z"/>
	<circle fill="#474747" cx="136.81" cy="284.139" r="1.187"/>
	<circle fill="#474747" cx="123.427" cy="284.088" r="1.187"/>
	<path fill="#474747" d="M110.043,285.228c0.653,0.002,1.189-0.53,1.191-1.185c0.002-0.656-0.53-1.189-1.182-1.191
		c-0.658-0.002-1.192,0.527-1.194,1.182C108.855,284.689,109.384,285.225,110.043,285.228z"/>
	<path fill="#474747" d="M96.656,285.177c0.658,0.002,1.192-0.53,1.194-1.185c0.002-0.655-0.527-1.189-1.185-1.191
		c-0.653-0.002-1.186,0.527-1.188,1.182C95.475,284.638,96.004,285.175,96.656,285.177z"/>
	<circle fill="#474747" cx="83.281" cy="283.939" r="1.188"/>
	<path fill="#474747" d="M69.893,285.076c0.656,0.002,1.191-0.53,1.194-1.185c0.002-0.656-0.529-1.189-1.185-1.191
		c-0.653-0.002-1.189,0.527-1.191,1.182C68.709,284.538,69.241,285.074,69.893,285.076z"/>
	<path fill="#474747" d="M56.516,285.026c0.655,0.002,1.186-0.53,1.188-1.185c0.002-0.655-0.524-1.189-1.179-1.191
		c-0.661-0.003-1.192,0.527-1.194,1.182C55.329,284.487,55.855,285.024,56.516,285.026z"/>
	<circle fill="#474747" cx="43.135" cy="283.788" r="1.188"/>
	<path fill="#474747" d="M29.75,284.925c0.653,0.002,1.189-0.53,1.191-1.185c0.002-0.656-0.53-1.189-1.182-1.191
		c-0.658-0.002-1.191,0.527-1.194,1.182C28.563,284.387,29.092,284.923,29.75,284.925z"/>
	<path fill="#474747" d="M16.367,284.875c0.655,0.002,1.189-0.53,1.191-1.185c0.002-0.655-0.527-1.189-1.182-1.191
		c-0.658-0.002-1.189,0.527-1.191,1.182C15.182,284.336,15.709,284.873,16.367,284.875z"/>
	<path fill="#474747" d="M2.984,284.825c0.653,0.002,1.191-0.53,1.194-1.185c0.002-0.656-0.532-1.189-1.185-1.191
		c-0.655-0.002-1.191,0.527-1.194,1.182C1.797,284.286,2.329,284.822,2.984,284.825z"/>
	<path fill="#474747" d="M177.005,272.096c0.653,0.002,1.186-0.527,1.188-1.185c0.002-0.658-0.527-1.192-1.179-1.194
		c-0.658-0.002-1.191,0.527-1.194,1.185C175.817,271.56,176.347,272.094,177.005,272.096z"/>
	<circle fill="#474747" cx="163.627" cy="270.856" r="1.19"/>
	<path fill="#474747" d="M150.239,271.995c0.653,0.002,1.192-0.527,1.194-1.185c0.002-0.658-0.533-1.192-1.185-1.194
		c-0.658-0.002-1.191,0.527-1.194,1.185C149.051,271.46,149.581,271.993,150.239,271.995z"/>
	<circle fill="#474747" cx="136.86" cy="270.755" r="1.19"/>
	<circle fill="#474747" cx="123.477" cy="270.705" r="1.19"/>
	<path fill="#474747" d="M110.093,271.844c0.653,0.002,1.189-0.524,1.191-1.185c0.002-0.655-0.53-1.189-1.182-1.191
		c-0.658-0.002-1.192,0.527-1.194,1.182C108.905,271.312,109.434,271.842,110.093,271.844z"/>
	<path fill="#474747" d="M96.707,271.794c0.658,0.002,1.192-0.524,1.194-1.185c0.002-0.655-0.527-1.189-1.185-1.191
		c-0.653-0.002-1.186,0.527-1.188,1.182C95.525,271.261,96.054,271.792,96.707,271.794z"/>
	<path fill="#474747" d="M83.327,271.744c0.655,0.002,1.192-0.524,1.194-1.185c0.002-0.655-0.53-1.189-1.185-1.191
		c-0.658-0.002-1.189,0.527-1.191,1.182C82.142,271.211,82.669,271.741,83.327,271.744z"/>
	<path fill="#474747" d="M69.944,271.693c0.656,0.002,1.191-0.524,1.194-1.185c0.002-0.655-0.529-1.189-1.185-1.191
		c-0.653-0.002-1.189,0.527-1.191,1.182C68.759,271.161,69.291,271.691,69.944,271.693z"/>
	<path fill="#474747" d="M56.567,271.643c0.655,0.002,1.186-0.524,1.188-1.185c0.002-0.655-0.524-1.189-1.179-1.191
		c-0.661-0.003-1.192,0.527-1.194,1.182C55.379,271.11,55.905,271.641,56.567,271.643z"/>
	<path fill="#474747" d="M43.181,271.593c0.658,0.002,1.192-0.524,1.194-1.185c0.002-0.655-0.527-1.189-1.185-1.191
		c-0.658-0.002-1.191,0.527-1.194,1.182C41.993,271.06,42.522,271.59,43.181,271.593z"/>
	<path fill="#474747" d="M29.8,271.542c0.653,0.002,1.189-0.524,1.191-1.185c0.002-0.655-0.53-1.189-1.182-1.191
		c-0.658-0.002-1.191,0.527-1.194,1.182C28.613,271.01,29.142,271.54,29.8,271.542z"/>
	<path fill="#474747" d="M16.418,271.492c0.655,0.002,1.189-0.524,1.191-1.185c0.002-0.655-0.527-1.189-1.182-1.191
		c-0.658-0.003-1.189,0.527-1.191,1.182C15.233,270.959,15.759,271.49,16.418,271.492z"/>
	<path fill="#474747" d="M3.035,271.442c0.653,0.002,1.191-0.524,1.194-1.185c0.002-0.655-0.532-1.189-1.185-1.191
		c-0.655-0.002-1.191,0.527-1.194,1.182C1.847,270.909,2.379,271.439,3.035,271.442z"/>
	<path fill="#474747" d="M177.055,258.71c0.653,0.002,1.186-0.527,1.188-1.182c0.002-0.656-0.527-1.189-1.179-1.191
		c-0.658-0.002-1.191,0.527-1.194,1.182S176.397,258.708,177.055,258.71z"/>
	<circle fill="#474747" cx="163.677" cy="257.473" r="1.187"/>
	<path fill="#474747" d="M150.289,258.61c0.653,0.002,1.189-0.527,1.191-1.182c0.002-0.655-0.53-1.189-1.182-1.191
		c-0.658-0.002-1.191,0.527-1.194,1.182C149.102,258.074,149.631,258.607,150.289,258.61z"/>
	<circle fill="#474747" cx="136.911" cy="257.373" r="1.187"/>
	<path fill="#474747" d="M123.523,258.509c0.658,0.002,1.189-0.527,1.191-1.182c0.002-0.655-0.524-1.189-1.182-1.191
		c-0.658-0.002-1.192,0.527-1.194,1.182C122.336,257.973,122.865,258.507,123.523,258.509z"/>
	<path fill="#474747" d="M110.143,258.462c0.653,0.002,1.186-0.53,1.188-1.185c0.002-0.655-0.527-1.189-1.179-1.191
		c-0.658-0.002-1.192,0.527-1.194,1.182C108.955,257.923,109.485,258.459,110.143,258.462z"/>
	<path fill="#474747" d="M96.757,258.411c0.658,0.002,1.192-0.53,1.194-1.185c0.002-0.656-0.527-1.189-1.185-1.191
		c-0.653-0.002-1.186,0.527-1.188,1.182S96.105,258.409,96.757,258.411z"/>
	<circle fill="#474747" cx="83.381" cy="257.173" r="1.188"/>
	<circle fill="#474747" cx="69.999" cy="257.122" r="1.188"/>
	<path fill="#474747" d="M56.611,258.26c0.661,0.003,1.189-0.53,1.191-1.185c0.002-0.655-0.521-1.188-1.182-1.191
		c-0.655-0.002-1.186,0.527-1.188,1.182C55.429,257.721,55.956,258.258,56.611,258.26z"/>
	<path fill="#474747" d="M43.231,258.21c0.653,0.002,1.192-0.53,1.194-1.185c0.002-0.655-0.533-1.189-1.185-1.191
		c-0.658-0.002-1.191,0.527-1.194,1.182C42.043,257.671,42.573,258.207,43.231,258.21z"/>
	<circle fill="#474747" cx="29.853" cy="256.971" r="1.188"/>
	<path fill="#474747" d="M16.465,258.109c0.658,0.002,1.191-0.53,1.194-1.185c0.002-0.656-0.527-1.189-1.185-1.191
		c-0.655-0.002-1.186,0.527-1.188,1.182S15.81,258.107,16.465,258.109z"/>
	<path fill="#474747" d="M3.082,258.059c0.655,0.002,1.194-0.53,1.197-1.185c0.002-0.655-0.532-1.189-1.188-1.191
		s-1.189,0.527-1.191,1.182S2.426,258.056,3.082,258.059z"/>
	<path fill="#474747" d="M177.106,245.33c0.653,0.002,1.186-0.524,1.188-1.185c0.002-0.655-0.527-1.189-1.179-1.191
		c-0.658-0.002-1.191,0.527-1.194,1.182C175.918,244.797,176.447,245.328,177.106,245.33z"/>
	<path fill="#474747" d="M163.723,245.28c0.655,0.002,1.188-0.524,1.191-1.185c0.002-0.655-0.527-1.189-1.182-1.191
		c-0.653-0.002-1.192,0.527-1.194,1.182C162.535,244.747,163.07,245.277,163.723,245.28z"/>
	<path fill="#474747" d="M150.34,245.23c0.653,0.002,1.189-0.524,1.191-1.185c0.002-0.656-0.53-1.189-1.182-1.191
		c-0.658-0.002-1.191,0.527-1.194,1.182C149.152,244.697,149.681,245.227,150.34,245.23z"/>
	<path fill="#474747" d="M136.957,245.179c0.656,0.002,1.189-0.524,1.191-1.185c0.002-0.655-0.527-1.189-1.182-1.191
		c-0.655-0.002-1.191,0.527-1.194,1.182C135.769,244.646,136.301,245.177,136.957,245.179z"/>
	<path fill="#474747" d="M123.574,245.129c0.658,0.002,1.188-0.524,1.191-1.185c0.002-0.656-0.524-1.189-1.182-1.191
		c-0.658-0.002-1.192,0.527-1.194,1.182C122.386,244.596,122.915,245.126,123.574,245.129z"/>
	<path fill="#474747" d="M110.194,245.078c0.653,0.002,1.186-0.524,1.188-1.185c0.002-0.653-0.527-1.186-1.179-1.188
		c-0.658-0.002-1.192,0.527-1.194,1.179C109.006,244.546,109.535,245.076,110.194,245.078z"/>
	<path fill="#474747" d="M96.808,245.028c0.658,0.002,1.192-0.524,1.194-1.185c0.002-0.653-0.527-1.186-1.185-1.188
		c-0.653-0.002-1.186,0.527-1.188,1.179C95.626,244.495,96.155,245.026,96.808,245.028z"/>
	<path fill="#474747" d="M83.427,244.978c0.655,0.002,1.189-0.524,1.191-1.185c0.002-0.653-0.527-1.186-1.182-1.188
		c-0.658-0.002-1.189,0.527-1.191,1.179C82.243,244.445,82.769,244.975,83.427,244.978z"/>
	<path fill="#474747" d="M70.045,244.927c0.656,0.002,1.188-0.524,1.191-1.185c0.002-0.653-0.527-1.186-1.182-1.188
		c-0.653-0.002-1.189,0.527-1.191,1.179C68.86,244.395,69.392,244.925,70.045,244.927z"/>
	<path fill="#474747" d="M56.661,244.877c0.661,0.002,1.189-0.524,1.191-1.185c0.002-0.653-0.521-1.186-1.182-1.188
		c-0.655-0.002-1.186,0.527-1.188,1.179C55.48,244.344,56.006,244.875,56.661,244.877z"/>
	<path fill="#474747" d="M43.281,244.827c0.653,0.002,1.192-0.524,1.194-1.185c0.002-0.653-0.533-1.186-1.185-1.188
		c-0.658-0.002-1.191,0.527-1.194,1.179C42.094,244.294,42.623,244.824,43.281,244.827z"/>
	<path fill="#474747" d="M29.898,244.776c0.655,0.002,1.191-0.524,1.194-1.185c0.002-0.653-0.53-1.186-1.185-1.188
		c-0.655-0.002-1.189,0.527-1.191,1.179C28.714,244.244,29.243,244.774,29.898,244.776z"/>
	<path fill="#474747" d="M16.515,244.726c0.658,0.002,1.191-0.524,1.194-1.185c0.002-0.653-0.527-1.186-1.185-1.188
		c-0.655-0.002-1.186,0.527-1.188,1.179C15.333,244.193,15.86,244.724,16.515,244.726z"/>
	<path fill="#474747" d="M3.132,244.676c0.655,0.002,1.194-0.524,1.197-1.185c0.002-0.653-0.532-1.186-1.188-1.188
		c-0.655-0.002-1.189,0.527-1.191,1.179C1.948,244.143,2.477,244.673,3.132,244.676z"/>
	<path fill="#474747" d="M177.156,231.947c0.653,0.002,1.186-0.527,1.188-1.182c0.002-0.658-0.527-1.192-1.179-1.194
		c-0.658-0.002-1.191,0.527-1.194,1.185C175.968,231.411,176.498,231.945,177.156,231.947z"/>
	<circle fill="#474747" cx="163.778" cy="230.709" r="1.188"/>
	<path fill="#474747" d="M150.39,231.846c0.653,0.002,1.189-0.527,1.191-1.182c0.002-0.658-0.53-1.192-1.182-1.194
		c-0.658-0.002-1.191,0.527-1.194,1.185C149.202,231.311,149.732,231.844,150.39,231.846z"/>
	<circle fill="#474747" cx="137.011" cy="230.608" r="1.188"/>
	<path fill="#474747" d="M123.624,231.746c0.658,0.002,1.189-0.527,1.191-1.182c0.002-0.658-0.524-1.192-1.182-1.194
		c-0.658-0.002-1.192,0.527-1.194,1.185C122.436,231.21,122.966,231.743,123.624,231.746z"/>
	<path fill="#474747" d="M110.244,231.695c0.653,0.002,1.186-0.527,1.188-1.182c0.002-0.656-0.527-1.189-1.179-1.191
		c-0.658-0.002-1.192,0.527-1.194,1.182C109.056,231.16,109.585,231.693,110.244,231.695z"/>
	<path fill="#474747" d="M96.858,231.645c0.658,0.002,1.192-0.527,1.194-1.182c0.002-0.656-0.527-1.189-1.185-1.191
		c-0.653-0.002-1.186,0.527-1.188,1.182C95.676,231.109,96.205,231.643,96.858,231.645z"/>
	<circle fill="#474747" cx="83.482" cy="230.408" r="1.187"/>
	<circle fill="#474747" cx="70.099" cy="230.358" r="1.187"/>
	<path fill="#474747" d="M56.712,231.494c0.661,0.002,1.189-0.527,1.191-1.182c0.002-0.655-0.521-1.189-1.182-1.191
		c-0.655-0.002-1.186,0.527-1.188,1.182C55.53,230.958,56.056,231.492,56.712,231.494z"/>
	<path fill="#474747" d="M43.332,231.444c0.653,0.002,1.192-0.527,1.194-1.182c0.002-0.656-0.533-1.189-1.185-1.191
		c-0.658-0.002-1.191,0.527-1.194,1.182C42.144,230.908,42.673,231.441,43.332,231.444z"/>
	<circle fill="#474747" cx="29.953" cy="230.207" r="1.187"/>
	<circle fill="#474747" cx="16.57" cy="230.156" r="1.187"/>
	<path fill="#474747" d="M3.183,231.293c0.655,0.002,1.194-0.527,1.197-1.182c0.002-0.656-0.532-1.189-1.188-1.191
		s-1.189,0.527-1.191,1.182C1.998,230.757,2.527,231.29,3.183,231.293z"/>
	<path fill="#474747" d="M177.206,218.564c0.653,0.002,1.186-0.53,1.188-1.185c0.002-0.653-0.527-1.189-1.179-1.191
		c-0.658-0.002-1.191,0.53-1.194,1.182C176.019,218.026,176.548,218.562,177.206,218.564z"/>
	<path fill="#474747" d="M163.823,218.514c0.655,0.002,1.189-0.53,1.191-1.185c0.002-0.653-0.527-1.189-1.182-1.191
		c-0.653-0.002-1.192,0.529-1.194,1.182C162.636,217.975,163.171,218.511,163.823,218.514z"/>
	<path fill="#474747" d="M150.44,218.464c0.653,0.002,1.189-0.53,1.191-1.185c0.002-0.653-0.53-1.189-1.182-1.191
		c-0.658-0.002-1.191,0.53-1.194,1.182C149.253,217.925,149.782,218.461,150.44,218.464z"/>
	<path fill="#474747" d="M137.057,218.413c0.656,0.002,1.189-0.53,1.191-1.185c0.002-0.653-0.527-1.189-1.182-1.191
		c-0.655-0.002-1.191,0.529-1.194,1.182C135.87,217.874,136.402,218.411,137.057,218.413z"/>
	<path fill="#474747" d="M123.674,218.363c0.658,0.002,1.189-0.53,1.191-1.185c0.002-0.653-0.524-1.189-1.182-1.191
		c-0.658-0.002-1.192,0.529-1.194,1.182C122.487,217.824,123.016,218.36,123.674,218.363z"/>
	<path fill="#474747" d="M110.294,218.315c0.653,0.002,1.186-0.532,1.188-1.188c0.002-0.653-0.527-1.189-1.179-1.191
		c-0.658-0.002-1.192,0.53-1.194,1.182C109.107,217.774,109.636,218.313,110.294,218.315z"/>
	<path fill="#474747" d="M96.908,218.265c0.658,0.002,1.192-0.532,1.194-1.188c0.002-0.653-0.527-1.189-1.185-1.191
		c-0.653-0.002-1.186,0.53-1.188,1.182C95.726,217.723,96.256,218.262,96.908,218.265z"/>
	<path fill="#474747" d="M83.528,218.215c0.655,0.002,1.189-0.532,1.191-1.188c0.002-0.653-0.527-1.189-1.182-1.191
		c-0.658-0.002-1.189,0.53-1.191,1.182C82.344,217.673,82.87,218.212,83.528,218.215z"/>
	<path fill="#474747" d="M70.145,218.164c0.656,0.002,1.189-0.532,1.191-1.188c0.002-0.653-0.527-1.189-1.182-1.191
		c-0.653-0.002-1.189,0.53-1.191,1.182C68.96,217.623,69.493,218.162,70.145,218.164z"/>
	<path fill="#474747" d="M56.762,218.114c0.661,0.002,1.189-0.532,1.191-1.188c0.002-0.653-0.521-1.188-1.182-1.191
		c-0.655-0.002-1.186,0.53-1.188,1.182C55.58,217.572,56.107,218.111,56.762,218.114z"/>
	<path fill="#474747" d="M43.382,218.063c0.653,0.002,1.192-0.532,1.194-1.188c0.002-0.653-0.533-1.189-1.185-1.191
		c-0.658-0.002-1.191,0.529-1.194,1.182C42.194,217.522,42.724,218.061,43.382,218.063z"/>
	<path fill="#474747" d="M29.999,218.013c0.655,0.002,1.191-0.532,1.194-1.188c0.002-0.653-0.53-1.189-1.185-1.191
		c-0.655-0.002-1.189,0.53-1.191,1.182C28.814,217.472,29.344,218.011,29.999,218.013z"/>
	<path fill="#474747" d="M16.616,217.963c0.658,0.002,1.191-0.532,1.194-1.188c0.002-0.653-0.527-1.189-1.185-1.191
		c-0.655-0.002-1.186,0.53-1.188,1.182C15.434,217.421,15.961,217.96,16.616,217.963z"/>
	<path fill="#474747" d="M3.233,217.912c0.655,0.002,1.194-0.532,1.197-1.188c0.002-0.653-0.532-1.189-1.188-1.191
		c-0.655-0.002-1.189,0.53-1.191,1.182C2.048,217.371,2.577,217.91,3.233,217.912z"/>
	<path fill="#474747" d="M177.257,205.181c0.653,0.002,1.186-0.524,1.188-1.182c0.002-0.656-0.527-1.189-1.179-1.191
		c-0.658-0.002-1.191,0.527-1.194,1.182C176.069,204.648,176.598,205.179,177.257,205.181z"/>
	<path fill="#474747" d="M163.874,205.131c0.656,0.002,1.189-0.524,1.191-1.182c0.002-0.655-0.527-1.189-1.182-1.191
		c-0.653-0.002-1.192,0.527-1.194,1.182C162.686,204.598,163.221,205.128,163.874,205.131z"/>
	<path fill="#474747" d="M150.491,205.08c0.653,0.002,1.189-0.524,1.191-1.182c0.002-0.656-0.53-1.189-1.182-1.191
		c-0.658-0.002-1.191,0.527-1.194,1.182C149.303,204.548,149.833,205.078,150.491,205.08z"/>
	<path fill="#474747" d="M137.108,205.03c0.655,0.002,1.189-0.524,1.191-1.182c0.002-0.655-0.527-1.189-1.182-1.191
		c-0.655-0.002-1.191,0.527-1.194,1.182C135.92,204.497,136.452,205.028,137.108,205.03z"/>
	<path fill="#474747" d="M123.725,204.98c0.658,0.002,1.189-0.524,1.191-1.182c0.002-0.655-0.524-1.188-1.182-1.191
		c-0.658-0.002-1.192,0.527-1.194,1.182C122.537,204.447,123.066,204.977,123.725,204.98z"/>
	<path fill="#474747" d="M110.345,204.932c0.653,0.002,1.186-0.527,1.188-1.185c0.002-0.656-0.527-1.189-1.179-1.191
		c-0.658-0.002-1.192,0.527-1.194,1.182C109.157,204.397,109.686,204.93,110.345,204.932z"/>
	<path fill="#474747" d="M96.959,204.882c0.658,0.002,1.192-0.527,1.194-1.185c0.002-0.655-0.527-1.189-1.185-1.191
		c-0.653-0.002-1.186,0.527-1.188,1.182C95.777,204.346,96.306,204.88,96.959,204.882z"/>
	<circle fill="#474747" cx="83.583" cy="203.644" r="1.188"/>
	<circle fill="#474747" cx="70.2" cy="203.593" r="1.188"/>
	<path fill="#474747" d="M56.812,204.731c0.661,0.002,1.189-0.527,1.191-1.185c0.002-0.655-0.521-1.188-1.182-1.191
		c-0.655-0.002-1.186,0.527-1.188,1.182C55.631,204.195,56.157,204.729,56.812,204.731z"/>
	<path fill="#474747" d="M43.432,204.681c0.653,0.002,1.192-0.527,1.194-1.185c0.002-0.655-0.533-1.189-1.185-1.191
		c-0.658-0.002-1.191,0.527-1.194,1.182C42.245,204.145,42.774,204.678,43.432,204.681z"/>
	<circle fill="#474747" cx="30.054" cy="203.442" r="1.188"/>
	<path fill="#474747" d="M16.666,204.58c0.658,0.002,1.191-0.527,1.194-1.185c0.002-0.655-0.527-1.189-1.185-1.191
		c-0.655-0.002-1.186,0.527-1.188,1.182C15.485,204.044,16.011,204.578,16.666,204.58z"/>
	<path fill="#474747" d="M3.283,204.53c0.655,0.002,1.194-0.527,1.197-1.185c0.002-0.655-0.532-1.189-1.188-1.191
		c-0.655-0.002-1.189,0.527-1.191,1.182C2.099,203.994,2.628,204.527,3.283,204.53z"/>
	<path fill="#474747" d="M177.307,191.798c0.653,0.002,1.186-0.527,1.188-1.179c0.002-0.655-0.527-1.191-1.179-1.194
		c-0.658-0.002-1.191,0.53-1.194,1.185C176.119,191.262,176.649,191.796,177.307,191.798z"/>
	<path fill="#474747" d="M163.924,191.748c0.655,0.002,1.189-0.527,1.191-1.179c0.002-0.655-0.527-1.191-1.182-1.194
		c-0.653-0.002-1.192,0.53-1.194,1.185C162.736,191.212,163.272,191.745,163.924,191.748z"/>
	<path fill="#474747" d="M150.541,191.697c0.653,0.002,1.189-0.527,1.191-1.179c0.002-0.655-0.53-1.191-1.182-1.194
		c-0.658-0.002-1.191,0.53-1.194,1.185C149.354,191.162,149.883,191.695,150.541,191.697z"/>
	<path fill="#474747" d="M137.158,191.647c0.656,0.002,1.189-0.527,1.191-1.179c0.002-0.655-0.527-1.191-1.182-1.194
		c-0.655-0.002-1.191,0.53-1.194,1.185C135.97,191.111,136.503,191.645,137.158,191.647z"/>
	<path fill="#474747" d="M123.775,191.597c0.658,0.002,1.189-0.527,1.191-1.179c0.002-0.655-0.524-1.191-1.182-1.194
		c-0.658-0.002-1.192,0.53-1.194,1.185C122.587,191.061,123.117,191.594,123.775,191.597z"/>
	<path fill="#474747" d="M110.395,191.549c0.653,0.002,1.186-0.53,1.188-1.182c0.002-0.653-0.527-1.191-1.179-1.194
		c-0.658-0.002-1.192,0.532-1.194,1.185S109.736,191.547,110.395,191.549z"/>
	<path fill="#474747" d="M97.009,191.499c0.658,0.002,1.192-0.53,1.194-1.182c0.002-0.653-0.527-1.191-1.185-1.194
		c-0.653-0.002-1.186,0.532-1.188,1.185C95.827,190.96,96.356,191.496,97.009,191.499z"/>
	<path fill="#474747" d="M83.629,191.449c0.655,0.002,1.189-0.53,1.191-1.182c0.002-0.653-0.527-1.191-1.182-1.194
		c-0.658-0.002-1.189,0.532-1.191,1.185S82.971,191.446,83.629,191.449z"/>
	<path fill="#474747" d="M70.246,191.398c0.656,0.002,1.189-0.53,1.191-1.182c0.002-0.653-0.526-1.191-1.182-1.194
		c-0.653-0.002-1.189,0.532-1.191,1.185C69.061,190.86,69.593,191.396,70.246,191.398z"/>
	<path fill="#474747" d="M56.863,191.348c0.661,0.002,1.189-0.53,1.191-1.182c0.002-0.653-0.521-1.191-1.182-1.194
		c-0.655-0.002-1.186,0.532-1.188,1.185C55.681,190.809,56.207,191.345,56.863,191.348z"/>
	<path fill="#474747" d="M43.483,191.298c0.653,0.002,1.192-0.53,1.194-1.182c0.002-0.653-0.533-1.191-1.185-1.194
		c-0.658-0.002-1.191,0.532-1.194,1.185C42.295,190.759,42.824,191.295,43.483,191.298z"/>
	<path fill="#474747" d="M30.1,191.247c0.655,0.002,1.191-0.53,1.194-1.182s-0.53-1.191-1.185-1.194
		c-0.655-0.002-1.189,0.532-1.191,1.185S29.444,191.245,30.1,191.247z"/>
	<path fill="#474747" d="M16.717,191.197c0.658,0.002,1.191-0.53,1.194-1.182c0.002-0.653-0.527-1.191-1.185-1.194
		c-0.655-0.002-1.186,0.532-1.188,1.185C15.535,190.658,16.061,191.194,16.717,191.197z"/>
	<path fill="#474747" d="M3.334,191.147c0.655,0.002,1.194-0.53,1.197-1.182c0.002-0.653-0.532-1.191-1.188-1.194
		c-0.655-0.002-1.189,0.532-1.191,1.185C2.149,190.608,2.678,191.144,3.334,191.147z"/>
	<path fill="#474747" d="M177.357,178.415c0.653,0.002,1.186-0.524,1.188-1.179c0.002-0.656-0.527-1.189-1.179-1.191
		c-0.658-0.002-1.191,0.527-1.194,1.182C176.17,177.882,176.699,178.413,177.357,178.415z"/>
	<circle fill="#474747" cx="163.979" cy="177.18" r="1.185"/>
	<path fill="#474747" d="M150.591,178.315c0.653,0.002,1.189-0.524,1.191-1.179c0.002-0.655-0.53-1.189-1.182-1.191
		c-0.658-0.002-1.191,0.527-1.194,1.182C149.404,177.781,149.933,178.312,150.591,178.315z"/>
	<circle fill="#474747" cx="137.213" cy="177.079" r="1.185"/>
	<path fill="#474747" d="M123.825,178.214c0.658,0.002,1.188-0.524,1.191-1.179c0.002-0.656-0.524-1.189-1.182-1.191
		c-0.658-0.002-1.192,0.527-1.194,1.182C122.638,177.681,123.167,178.211,123.825,178.214z"/>
	<path fill="#474747" d="M110.445,178.169c0.653,0.002,1.186-0.53,1.188-1.185c0.002-0.653-0.527-1.189-1.179-1.191
		c-0.658-0.002-1.192,0.53-1.194,1.182C109.258,177.63,109.787,178.167,110.445,178.169z"/>
	<path fill="#474747" d="M97.059,178.119c0.658,0.002,1.192-0.53,1.194-1.185c0.002-0.653-0.527-1.189-1.185-1.191
		c-0.653-0.002-1.186,0.53-1.188,1.182C95.877,177.58,96.407,178.116,97.059,178.119z"/>
	<path fill="#474747" d="M83.679,178.068c0.655,0.002,1.189-0.53,1.191-1.185c0.002-0.653-0.527-1.189-1.182-1.191
		c-0.658-0.002-1.189,0.53-1.191,1.182C82.495,177.53,83.021,178.066,83.679,178.068z"/>
	<path fill="#474747" d="M70.296,178.018c0.656,0.002,1.189-0.53,1.191-1.185c0.002-0.653-0.527-1.189-1.182-1.191
		c-0.653-0.002-1.189,0.53-1.191,1.182C69.111,177.479,69.644,178.016,70.296,178.018z"/>
	<path fill="#474747" d="M56.913,177.968c0.661,0.002,1.189-0.53,1.191-1.185c0.002-0.653-0.521-1.189-1.182-1.191
		c-0.655-0.002-1.186,0.53-1.188,1.182C55.731,177.429,56.258,177.965,56.913,177.968z"/>
	<path fill="#474747" d="M43.533,177.917c0.653,0.002,1.192-0.53,1.194-1.185c0.002-0.653-0.533-1.189-1.185-1.191
		c-0.658-0.002-1.191,0.53-1.194,1.182C42.346,177.379,42.875,177.915,43.533,177.917z"/>
	<path fill="#474747" d="M30.15,177.867c0.655,0.002,1.191-0.53,1.194-1.185c0.002-0.653-0.53-1.189-1.185-1.191
		c-0.655-0.002-1.189,0.53-1.191,1.182C28.965,177.328,29.495,177.865,30.15,177.867z"/>
	<path fill="#474747" d="M16.767,177.817c0.658,0.002,1.191-0.53,1.194-1.185c0.002-0.653-0.527-1.189-1.185-1.191
		c-0.655-0.002-1.186,0.53-1.188,1.182C15.585,177.278,16.112,177.814,16.767,177.817z"/>
	<path fill="#474747" d="M3.384,177.766c0.655,0.002,1.194-0.53,1.197-1.185c0.002-0.653-0.532-1.189-1.188-1.191
		s-1.189,0.53-1.191,1.182C2.199,177.228,2.728,177.764,3.384,177.766z"/>
	<path fill="#474747" d="M177.408,165.035c0.653,0.002,1.186-0.524,1.188-1.182c0.002-0.658-0.527-1.191-1.179-1.194
		c-0.658-0.002-1.191,0.527-1.194,1.185C176.22,164.502,176.749,165.033,177.408,165.035z"/>
	<circle fill="#474747" cx="164.029" cy="163.797" r="1.188"/>
	<path fill="#474747" d="M150.642,164.934c0.653,0.002,1.189-0.524,1.191-1.182c0.002-0.658-0.53-1.191-1.182-1.194
		c-0.658-0.002-1.191,0.527-1.194,1.185C149.454,164.402,149.984,164.932,150.642,164.934z"/>
	<circle fill="#474747" cx="137.263" cy="163.696" r="1.188"/>
	<path fill="#474747" d="M123.876,164.834c0.658,0.002,1.189-0.524,1.191-1.182c0.002-0.658-0.524-1.191-1.182-1.194
		c-0.658-0.002-1.192,0.527-1.194,1.185C122.688,164.301,123.217,164.831,123.876,164.834z"/>
	<path fill="#474747" d="M110.496,164.786c0.653,0.002,1.186-0.527,1.188-1.182c0.002-0.661-0.527-1.194-1.179-1.197
		c-0.658-0.002-1.192,0.527-1.194,1.188C109.308,164.251,109.837,164.784,110.496,164.786z"/>
	<path fill="#474747" d="M97.11,164.736c0.658,0.002,1.192-0.527,1.194-1.182c0.002-0.661-0.527-1.194-1.185-1.197
		c-0.653-0.002-1.186,0.527-1.188,1.188C95.928,164.2,96.457,164.733,97.11,164.736z"/>
	<path fill="#474747" d="M83.729,164.685c0.655,0.002,1.189-0.527,1.191-1.182c0.002-0.661-0.527-1.194-1.182-1.197
		c-0.658-0.002-1.189,0.527-1.191,1.188C82.545,164.15,83.071,164.683,83.729,164.685z"/>
	<path fill="#474747" d="M70.347,164.635c0.656,0.002,1.189-0.527,1.191-1.182c0.002-0.661-0.526-1.194-1.182-1.197
		c-0.653-0.002-1.189,0.527-1.191,1.188C69.162,164.1,69.694,164.633,70.347,164.635z"/>
	<path fill="#474747" d="M56.963,164.585c0.661,0.002,1.189-0.527,1.191-1.182c0.002-0.661-0.521-1.194-1.182-1.197
		c-0.655-0.002-1.186,0.527-1.188,1.188C55.782,164.049,56.308,164.582,56.963,164.585z"/>
	<path fill="#474747" d="M43.583,164.534c0.653,0.002,1.192-0.527,1.194-1.182c0.002-0.661-0.533-1.194-1.185-1.197
		c-0.658-0.002-1.191,0.527-1.194,1.188C42.396,163.999,42.925,164.532,43.583,164.534z"/>
	<path fill="#474747" d="M30.201,164.484c0.655,0.002,1.191-0.527,1.194-1.182c0.002-0.661-0.53-1.194-1.185-1.197
		c-0.655-0.002-1.189,0.527-1.191,1.188C29.016,163.948,29.545,164.482,30.201,164.484z"/>
	<path fill="#474747" d="M16.817,164.434c0.658,0.002,1.191-0.527,1.194-1.182c0.002-0.661-0.527-1.194-1.185-1.197
		c-0.655-0.002-1.186,0.527-1.188,1.188C15.636,163.898,16.162,164.431,16.817,164.434z"/>
	<path fill="#474747" d="M3.434,164.383c0.655,0.002,1.194-0.527,1.197-1.182c0.002-0.661-0.532-1.194-1.188-1.197
		c-0.655-0.002-1.189,0.527-1.191,1.188C2.25,163.848,2.779,164.381,3.434,164.383z"/>
	<path fill="#474747" d="M177.458,151.652c0.653,0.002,1.186-0.527,1.188-1.182c0.002-0.655-0.527-1.189-1.179-1.191
		c-0.658-0.002-1.191,0.527-1.194,1.182C176.27,151.116,176.8,151.65,177.458,151.652z"/>
	<circle fill="#474747" cx="164.08" cy="150.415" r="1.187"/>
	<path fill="#474747" d="M150.692,151.551c0.653,0.002,1.189-0.527,1.191-1.182c0.002-0.655-0.53-1.189-1.182-1.191
		c-0.658-0.002-1.191,0.527-1.194,1.182C149.505,151.016,150.034,151.549,150.692,151.551z"/>
	<circle fill="#474747" cx="137.313" cy="150.314" r="1.187"/>
	<path fill="#474747" d="M123.926,151.451c0.658,0.002,1.189-0.527,1.191-1.182c0.002-0.655-0.524-1.188-1.182-1.191
		c-0.658-0.002-1.192,0.527-1.194,1.182C122.738,150.915,123.268,151.448,123.926,151.451z"/>
	<path fill="#474747" d="M110.546,151.4c0.653,0.002,1.186-0.527,1.188-1.179c0.002-0.656-0.527-1.191-1.179-1.194
		c-0.658-0.002-1.192,0.53-1.194,1.185C109.358,150.864,109.888,151.398,110.546,151.4z"/>
	<path fill="#474747" d="M97.16,151.35c0.658,0.002,1.192-0.527,1.194-1.179c0.002-0.656-0.527-1.191-1.185-1.194
		c-0.653-0.002-1.186,0.53-1.188,1.185C95.978,150.814,96.507,151.347,97.16,151.35z"/>
	<path fill="#474747" d="M83.78,151.3c0.655,0.002,1.189-0.527,1.191-1.179c0.002-0.655-0.527-1.191-1.182-1.194
		c-0.658-0.002-1.189,0.53-1.191,1.185C82.595,150.764,83.122,151.297,83.78,151.3z"/>
	<path fill="#474747" d="M70.397,151.249c0.656,0.002,1.189-0.527,1.191-1.179c0.002-0.656-0.526-1.191-1.182-1.194
		c-0.653-0.002-1.189,0.53-1.191,1.185C69.212,150.713,69.744,151.247,70.397,151.249z"/>
	<path fill="#474747" d="M57.014,151.199c0.661,0.002,1.189-0.527,1.191-1.179c0.002-0.656-0.521-1.191-1.182-1.194
		c-0.655-0.002-1.186,0.53-1.188,1.185C55.832,150.663,56.358,151.196,57.014,151.199z"/>
	<path fill="#474747" d="M43.634,151.149c0.653,0.002,1.192-0.527,1.194-1.179c0.002-0.656-0.533-1.191-1.185-1.194
		c-0.658-0.002-1.191,0.53-1.194,1.185C42.446,150.613,42.976,151.146,43.634,151.149z"/>
	<path fill="#474747" d="M30.251,151.098c0.655,0.002,1.191-0.527,1.194-1.179c0.002-0.655-0.53-1.191-1.185-1.194
		c-0.655-0.002-1.189,0.53-1.191,1.185C29.066,150.562,29.595,151.096,30.251,151.098z"/>
	<path fill="#474747" d="M16.868,151.048c0.658,0.002,1.191-0.527,1.194-1.179c0.002-0.656-0.527-1.191-1.185-1.194
		c-0.655-0.002-1.186,0.53-1.188,1.185C15.686,150.512,16.212,151.045,16.868,151.048z"/>
	<path fill="#474747" d="M3.485,150.998c0.655,0.002,1.194-0.527,1.197-1.179c0.002-0.656-0.532-1.191-1.188-1.194
		c-0.655-0.002-1.189,0.53-1.191,1.185C2.3,150.462,2.829,150.995,3.485,150.998z"/>
	<path fill="#474747" d="M177.508,138.272c0.653,0.002,1.186-0.524,1.188-1.185c0.002-0.656-0.527-1.189-1.179-1.191
		c-0.658-0.002-1.191,0.527-1.194,1.182C176.321,137.739,176.85,138.269,177.508,138.272z"/>
	<path fill="#474747" d="M164.125,138.222c0.655,0.002,1.188-0.524,1.191-1.185c0.002-0.655-0.527-1.189-1.182-1.191
		c-0.653-0.002-1.192,0.527-1.194,1.182C162.938,137.689,163.473,138.219,164.125,138.222z"/>
	<path fill="#474747" d="M150.742,138.171c0.653,0.002,1.189-0.524,1.191-1.185c0.002-0.656-0.53-1.189-1.182-1.191
		c-0.658-0.002-1.191,0.527-1.194,1.182C149.555,137.638,150.084,138.169,150.742,138.171z"/>
	<path fill="#474747" d="M137.359,138.121c0.656,0.002,1.189-0.524,1.191-1.185c0.002-0.656-0.527-1.189-1.182-1.191
		c-0.655-0.002-1.191,0.527-1.194,1.182C136.172,137.588,136.704,138.118,137.359,138.121z"/>
	<path fill="#474747" d="M123.976,138.07c0.658,0.002,1.189-0.524,1.191-1.185c0.002-0.655-0.524-1.189-1.182-1.191
		c-0.658-0.002-1.192,0.527-1.194,1.182C122.789,137.538,123.318,138.068,123.976,138.07z"/>
	<path fill="#474747" d="M110.596,138.02c0.653,0.002,1.186-0.524,1.188-1.182c0.002-0.658-0.527-1.191-1.179-1.194
		c-0.658-0.002-1.192,0.527-1.194,1.185C109.409,137.487,109.938,138.018,110.596,138.02z"/>
	<path fill="#474747" d="M97.21,137.97c0.658,0.002,1.192-0.524,1.194-1.182c0.002-0.658-0.527-1.191-1.185-1.194
		c-0.653-0.002-1.186,0.527-1.188,1.185C96.028,137.437,96.558,137.967,97.21,137.97z"/>
	<circle fill="#474747" cx="83.835" cy="136.731" r="1.188"/>
	<circle fill="#474747" cx="70.452" cy="136.681" r="1.188"/>
	<path fill="#474747" d="M57.064,137.819c0.661,0.002,1.189-0.524,1.191-1.182c0.002-0.658-0.521-1.191-1.182-1.194
		c-0.655-0.002-1.186,0.527-1.188,1.185C55.882,137.286,56.409,137.816,57.064,137.819z"/>
	<path fill="#474747" d="M43.684,137.768c0.653,0.002,1.192-0.524,1.194-1.182c0.002-0.658-0.533-1.191-1.185-1.194
		c-0.658-0.002-1.191,0.527-1.194,1.185C42.497,137.236,43.026,137.766,43.684,137.768z"/>
	<circle fill="#474747" cx="30.306" cy="136.53" r="1.188"/>
	<circle fill="#474747" cx="16.923" cy="136.48" r="1.188"/>
	<path fill="#474747" d="M3.535,137.617c0.655,0.002,1.194-0.524,1.197-1.182c0.002-0.658-0.532-1.191-1.188-1.194
		c-0.655-0.002-1.189,0.527-1.191,1.185C2.35,137.085,2.88,137.615,3.535,137.617z"/>
	<path fill="#474747" d="M177.559,124.889c0.653,0.002,1.186-0.527,1.188-1.182c0.002-0.655-0.527-1.192-1.179-1.194
		c-0.658-0.002-1.191,0.53-1.194,1.185C176.371,124.353,176.9,124.886,177.559,124.889z"/>
	<circle fill="#474747" cx="164.18" cy="123.65" r="1.188"/>
	<path fill="#474747" d="M150.793,124.788c0.653,0.002,1.189-0.527,1.191-1.182c0.002-0.655-0.53-1.192-1.182-1.194
		c-0.658-0.002-1.191,0.53-1.194,1.185C149.605,124.253,150.135,124.786,150.793,124.788z"/>
	<circle fill="#474747" cx="137.414" cy="123.55" r="1.188"/>
	<path fill="#474747" d="M124.027,124.687c0.658,0.002,1.189-0.527,1.191-1.182c0.002-0.655-0.524-1.192-1.182-1.194
		c-0.658-0.002-1.192,0.53-1.194,1.185C122.839,124.152,123.368,124.685,124.027,124.687z"/>
	<path fill="#474747" d="M110.647,124.637c0.653,0.002,1.186-0.527,1.188-1.179c0.002-0.658-0.527-1.195-1.179-1.197
		c-0.658-0.002-1.192,0.53-1.194,1.188C109.459,124.102,109.988,124.635,110.647,124.637z"/>
	<path fill="#474747" d="M97.261,124.587c0.658,0.002,1.192-0.527,1.194-1.179c0.002-0.658-0.527-1.195-1.185-1.197
		c-0.653-0.002-1.186,0.53-1.188,1.188C96.079,124.051,96.608,124.584,97.261,124.587z"/>
	<path fill="#474747" d="M83.88,124.536c0.655,0.002,1.189-0.527,1.191-1.179c0.002-0.658-0.527-1.195-1.182-1.197
		c-0.658-0.002-1.189,0.53-1.191,1.188C82.696,124.001,83.222,124.534,83.88,124.536z"/>
	<path fill="#474747" d="M70.498,124.486c0.656,0.002,1.189-0.527,1.191-1.179c0.002-0.658-0.526-1.195-1.182-1.197
		c-0.653-0.002-1.189,0.53-1.191,1.188C69.313,123.95,69.845,124.484,70.498,124.486z"/>
	<path fill="#474747" d="M57.115,124.436c0.661,0.002,1.189-0.527,1.191-1.179c0.002-0.658-0.521-1.195-1.182-1.197
		c-0.655-0.002-1.186,0.53-1.188,1.188C55.933,123.9,56.459,124.433,57.115,124.436z"/>
	<path fill="#474747" d="M43.734,124.385c0.653,0.002,1.192-0.527,1.194-1.179c0.002-0.658-0.533-1.195-1.185-1.197
		c-0.658-0.002-1.191,0.53-1.194,1.188C42.547,123.85,43.076,124.383,43.734,124.385z"/>
	<path fill="#474747" d="M30.352,124.335c0.655,0.002,1.191-0.527,1.194-1.179c0.002-0.658-0.53-1.195-1.185-1.197
		c-0.655-0.002-1.189,0.53-1.191,1.188C29.167,123.799,29.696,124.332,30.352,124.335z"/>
	<path fill="#474747" d="M16.968,124.285c0.658,0.002,1.191-0.527,1.194-1.179c0.002-0.658-0.527-1.195-1.185-1.197
		c-0.655-0.002-1.186,0.53-1.188,1.188C15.787,123.749,16.313,124.282,16.968,124.285z"/>
	<path fill="#474747" d="M3.585,124.234c0.655,0.002,1.194-0.527,1.197-1.179c0.002-0.658-0.532-1.195-1.188-1.197
		s-1.189,0.53-1.191,1.188C2.401,123.699,2.93,124.232,3.585,124.234z"/>
	<path fill="#474747" d="M177.609,111.506c0.653,0.002,1.186-0.527,1.188-1.185c0.002-0.653-0.527-1.186-1.179-1.188
		c-0.658-0.002-1.191,0.527-1.194,1.179C176.422,110.97,176.951,111.503,177.609,111.506z"/>
	<path fill="#474747" d="M164.226,111.456c0.655,0.002,1.189-0.527,1.191-1.185c0.002-0.653-0.527-1.186-1.182-1.188
		c-0.653-0.002-1.192,0.527-1.194,1.179C163.038,110.92,163.574,111.453,164.226,111.456z"/>
	<path fill="#474747" d="M150.843,111.405c0.653,0.002,1.189-0.527,1.191-1.185c0.002-0.653-0.53-1.186-1.182-1.188
		c-0.658-0.002-1.191,0.527-1.194,1.179C149.656,110.869,150.185,111.403,150.843,111.405z"/>
	<path fill="#474747" d="M137.46,111.355c0.656,0.002,1.189-0.527,1.191-1.185c0.002-0.653-0.527-1.186-1.182-1.188
		c-0.655-0.002-1.191,0.527-1.194,1.179C136.272,110.819,136.805,111.352,137.46,111.355z"/>
	<path fill="#474747" d="M124.077,111.305c0.658,0.002,1.189-0.527,1.191-1.185c0.002-0.653-0.524-1.186-1.182-1.188
		c-0.658-0.002-1.192,0.527-1.194,1.179C122.889,110.769,123.419,111.302,124.077,111.305z"/>
	<path fill="#474747" d="M110.697,111.254c0.653,0.002,1.186-0.527,1.188-1.179c0.002-0.655-0.527-1.192-1.179-1.194
		c-0.658-0.002-1.192,0.53-1.194,1.185C109.509,110.718,110.039,111.252,110.697,111.254z"/>
	<path fill="#474747" d="M97.311,111.204c0.658,0.002,1.192-0.527,1.194-1.179c0.002-0.655-0.527-1.192-1.185-1.194
		c-0.653-0.002-1.186,0.53-1.188,1.185C96.129,110.668,96.658,111.201,97.311,111.204z"/>
	<path fill="#474747" d="M83.931,111.154c0.655,0.002,1.189-0.527,1.191-1.179c0.002-0.655-0.527-1.192-1.182-1.194
		c-0.658-0.002-1.189,0.53-1.191,1.185C82.746,110.618,83.273,111.151,83.931,111.154z"/>
	<path fill="#474747" d="M70.548,111.103c0.656,0.002,1.189-0.527,1.191-1.179c0.002-0.655-0.526-1.192-1.182-1.194
		c-0.653-0.002-1.189,0.53-1.191,1.185C69.363,110.567,69.895,111.101,70.548,111.103z"/>
	<path fill="#474747" d="M57.165,111.053c0.661,0.002,1.189-0.527,1.191-1.179c0.002-0.655-0.521-1.192-1.182-1.194
		c-0.655-0.002-1.186,0.53-1.188,1.185C55.983,110.517,56.509,111.05,57.165,111.053z"/>
	<path fill="#474747" d="M43.785,111.002c0.653,0.002,1.192-0.527,1.194-1.179c0.002-0.655-0.533-1.192-1.185-1.194
		c-0.658-0.002-1.191,0.53-1.194,1.185C42.597,110.467,43.127,111,43.785,111.002z"/>
	<path fill="#474747" d="M30.402,110.952c0.655,0.002,1.191-0.527,1.194-1.179c0.002-0.655-0.53-1.192-1.185-1.194
		c-0.655-0.002-1.189,0.53-1.191,1.185C29.217,110.416,29.746,110.95,30.402,110.952z"/>
	<path fill="#474747" d="M17.019,110.902c0.658,0.002,1.191-0.527,1.194-1.179c0.002-0.655-0.527-1.192-1.185-1.194
		c-0.655-0.002-1.186,0.53-1.188,1.185C15.837,110.366,16.363,110.899,17.019,110.902z"/>
	<path fill="#474747" d="M3.636,110.851c0.655,0.002,1.194-0.527,1.197-1.179c0.002-0.655-0.532-1.192-1.188-1.194
		s-1.189,0.53-1.191,1.185C2.451,110.316,2.98,110.849,3.636,110.851z"/>
	<path fill="#474747" d="M177.659,98.123c0.653,0.002,1.186-0.527,1.188-1.182c0.002-0.655-0.527-1.191-1.179-1.194
		c-0.658-0.002-1.191,0.53-1.194,1.185C176.472,97.587,177.001,98.12,177.659,98.123z"/>
	<circle fill="#474747" cx="164.281" cy="96.884" r="1.188"/>
	<path fill="#474747" d="M150.893,98.022c0.653,0.002,1.189-0.527,1.191-1.182c0.002-0.655-0.53-1.191-1.182-1.194
		c-0.658-0.002-1.191,0.53-1.194,1.185C149.706,97.486,150.235,98.02,150.893,98.022z"/>
	<circle fill="#474747" cx="137.515" cy="96.784" r="1.188"/>
	<path fill="#474747" d="M124.128,97.921c0.658,0.002,1.189-0.527,1.191-1.182c0.002-0.655-0.524-1.191-1.182-1.194
		c-0.658-0.002-1.192,0.53-1.194,1.185C122.94,97.386,123.469,97.919,124.128,97.921z"/>
	<path fill="#474747" d="M110.747,97.871c0.653,0.002,1.186-0.527,1.188-1.182c0.002-0.653-0.527-1.191-1.179-1.194
		c-0.658-0.002-1.192,0.532-1.194,1.185C109.56,97.335,110.089,97.869,110.747,97.871z"/>
	<path fill="#474747" d="M97.361,97.821c0.658,0.002,1.192-0.527,1.194-1.182c0.002-0.653-0.527-1.191-1.185-1.194
		c-0.653-0.002-1.186,0.532-1.188,1.185C96.179,97.285,96.709,97.818,97.361,97.821z"/>
	<path fill="#474747" d="M83.981,97.77c0.655,0.002,1.189-0.527,1.191-1.182c0.002-0.653-0.527-1.191-1.182-1.194
		c-0.658-0.002-1.189,0.532-1.191,1.185C82.797,97.235,83.323,97.768,83.981,97.77z"/>
	<path fill="#474747" d="M70.598,97.72c0.656,0.002,1.189-0.527,1.191-1.182c0.002-0.653-0.526-1.191-1.182-1.194
		c-0.653-0.002-1.189,0.532-1.191,1.185C69.414,97.184,69.946,97.718,70.598,97.72z"/>
	<path fill="#474747" d="M57.215,97.67c0.661,0.002,1.189-0.527,1.191-1.182c0.002-0.653-0.521-1.191-1.182-1.194
		c-0.655-0.002-1.186,0.532-1.188,1.185C56.033,97.134,56.56,97.667,57.215,97.67z"/>
	<path fill="#474747" d="M43.835,97.619c0.653,0.002,1.192-0.527,1.194-1.182c0.002-0.653-0.533-1.191-1.185-1.194
		c-0.658-0.002-1.191,0.532-1.194,1.185C42.648,97.084,43.177,97.617,43.835,97.619z"/>
	<path fill="#474747" d="M30.452,97.569c0.655,0.002,1.191-0.527,1.194-1.182c0.002-0.653-0.53-1.191-1.185-1.194
		c-0.655-0.002-1.189,0.532-1.191,1.185C29.267,97.033,29.797,97.567,30.452,97.569z"/>
	<path fill="#474747" d="M17.069,97.519c0.658,0.002,1.191-0.527,1.194-1.182c0.002-0.653-0.527-1.191-1.185-1.194
		c-0.655-0.002-1.186,0.532-1.188,1.185C15.887,96.983,16.414,97.516,17.069,97.519z"/>
	<path fill="#474747" d="M3.686,97.468c0.655,0.002,1.194-0.527,1.197-1.182c0.002-0.653-0.532-1.191-1.188-1.194
		c-0.655-0.002-1.189,0.532-1.191,1.185C2.502,96.933,3.031,97.466,3.686,97.468z"/>
	<path fill="#474747" d="M177.71,84.74c0.653,0.002,1.186-0.527,1.188-1.182c0.002-0.656-0.527-1.189-1.179-1.191
		c-0.658-0.002-1.191,0.527-1.194,1.182C176.522,84.204,177.052,84.737,177.71,84.74z"/>
	<circle fill="#474747" cx="164.331" cy="83.503" r="1.187"/>
	<path fill="#474747" d="M150.944,84.639c0.653,0.002,1.189-0.527,1.191-1.182s-0.53-1.189-1.182-1.191
		c-0.658-0.002-1.191,0.527-1.194,1.182S150.286,84.637,150.944,84.639z"/>
	<circle fill="#474747" cx="137.565" cy="83.402" r="1.187"/>
	<path fill="#474747" d="M124.178,84.538c0.658,0.002,1.189-0.527,1.191-1.182c0.002-0.655-0.524-1.189-1.182-1.191
		c-0.658-0.002-1.192,0.527-1.194,1.182S123.519,84.536,124.178,84.538z"/>
	<path fill="#474747" d="M110.798,84.488c0.653,0.002,1.186-0.524,1.188-1.179c0.002-0.655-0.527-1.189-1.179-1.191
		c-0.658-0.002-1.192,0.527-1.194,1.182C109.61,83.955,110.139,84.486,110.798,84.488z"/>
	<path fill="#474747" d="M97.412,84.438c0.658,0.002,1.192-0.524,1.194-1.179c0.002-0.655-0.527-1.189-1.185-1.191
		c-0.653-0.002-1.186,0.527-1.188,1.182C96.23,83.905,96.759,84.435,97.412,84.438z"/>
	<circle fill="#474747" cx="84.036" cy="83.202" r="1.185"/>
	<circle fill="#474747" cx="70.653" cy="83.152" r="1.185"/>
	<path fill="#474747" d="M57.266,84.287c0.661,0.002,1.189-0.524,1.191-1.179c0.002-0.655-0.521-1.189-1.182-1.191
		c-0.655-0.002-1.186,0.527-1.188,1.182C56.084,83.754,56.61,84.284,57.266,84.287z"/>
	<path fill="#474747" d="M43.885,84.236c0.653,0.002,1.192-0.524,1.194-1.179c0.002-0.656-0.533-1.189-1.185-1.191
		c-0.658-0.002-1.191,0.527-1.194,1.182C42.698,83.703,43.227,84.234,43.885,84.236z"/>
	<circle fill="#474747" cx="30.507" cy="83.001" r="1.185"/>
	<circle fill="#474747" cx="17.124" cy="82.95" r="1.185"/>
	<path fill="#474747" d="M3.736,84.085c0.655,0.002,1.194-0.524,1.197-1.179c0.002-0.656-0.532-1.189-1.188-1.191
		s-1.189,0.527-1.191,1.182C2.552,83.552,3.081,84.083,3.736,84.085z"/>
	<path fill="#474747" d="M177.76,71.357c0.653,0.002,1.186-0.524,1.188-1.179c0.002-0.653-0.527-1.189-1.179-1.191
		c-0.658-0.002-1.191,0.53-1.194,1.182C176.573,70.824,177.102,71.354,177.76,71.357z"/>
	<circle fill="#474747" cx="164.382" cy="70.121" r="1.185"/>
	<path fill="#474747" d="M150.994,71.256c0.653,0.002,1.189-0.524,1.191-1.179c0.002-0.653-0.53-1.189-1.182-1.191
		c-0.658-0.002-1.191,0.53-1.194,1.182C149.807,70.723,150.336,71.254,150.994,71.256z"/>
	<circle fill="#474747" cx="137.615" cy="70.021" r="1.185"/>
	<path fill="#474747" d="M124.228,71.156c0.658,0.002,1.188-0.524,1.191-1.179c0.002-0.653-0.524-1.189-1.182-1.191
		c-0.658-0.002-1.192,0.53-1.194,1.182C123.04,70.623,123.57,71.153,124.228,71.156z"/>
	<path fill="#474747" d="M110.848,71.105c0.653,0.002,1.186-0.524,1.188-1.179c0.002-0.653-0.527-1.189-1.179-1.191
		c-0.658-0.002-1.192,0.53-1.194,1.182C109.66,70.572,110.19,71.103,110.848,71.105z"/>
	<path fill="#474747" d="M97.462,71.055c0.658,0.002,1.192-0.524,1.194-1.179c0.002-0.653-0.527-1.189-1.185-1.191
		c-0.653-0.002-1.186,0.53-1.188,1.182C96.28,70.522,96.809,71.052,97.462,71.055z"/>
	<circle fill="#474747" cx="84.086" cy="69.819" r="1.185"/>
	<circle fill="#474747" cx="70.703" cy="69.769" r="1.185"/>
	<path fill="#474747" d="M57.316,70.904c0.661,0.002,1.189-0.524,1.191-1.179c0.002-0.653-0.521-1.189-1.182-1.191
		c-0.655-0.002-1.186,0.53-1.188,1.182C56.134,70.371,56.66,70.901,57.316,70.904z"/>
	<path fill="#474747" d="M43.936,70.853c0.653,0.002,1.192-0.524,1.194-1.179c0.002-0.653-0.533-1.189-1.185-1.191
		c-0.658-0.002-1.191,0.53-1.194,1.182C42.748,70.321,43.278,70.851,43.936,70.853z"/>
	<circle fill="#474747" cx="30.557" cy="69.618" r="1.185"/>
	<circle fill="#474747" cx="17.174" cy="69.567" r="1.185"/>
	<path fill="#474747" d="M3.787,70.702c0.655,0.002,1.194-0.524,1.197-1.179c0.002-0.653-0.532-1.189-1.188-1.191
		s-1.189,0.53-1.191,1.182C2.602,70.17,3.131,70.7,3.787,70.702z"/>
	<path fill="#474747" d="M177.81,57.977c0.653,0.002,1.186-0.521,1.188-1.182c0.002-0.655-0.527-1.189-1.179-1.191
		c-0.658-0.002-1.191,0.527-1.194,1.182C176.623,57.447,177.152,57.974,177.81,57.977z"/>
	<path fill="#474747" d="M164.428,57.926c0.656,0.002,1.188-0.521,1.191-1.182c0.002-0.655-0.527-1.189-1.182-1.191
		c-0.653-0.002-1.192,0.527-1.194,1.182C163.24,57.397,163.775,57.924,164.428,57.926z"/>
	<path fill="#474747" d="M151.044,57.876c0.653,0.002,1.189-0.521,1.191-1.182c0.002-0.655-0.53-1.189-1.182-1.191
		c-0.658-0.002-1.191,0.527-1.194,1.182C149.857,57.346,150.386,57.874,151.044,57.876z"/>
	<path fill="#474747" d="M137.661,57.826c0.655,0.002,1.189-0.521,1.191-1.182c0.002-0.655-0.527-1.189-1.182-1.191
		c-0.655-0.002-1.191,0.527-1.194,1.182C136.474,57.296,137.006,57.823,137.661,57.826z"/>
	<path fill="#474747" d="M124.279,57.775c0.658,0.002,1.188-0.521,1.191-1.182c0.002-0.655-0.524-1.188-1.182-1.191
		c-0.658-0.002-1.192,0.527-1.194,1.182C123.091,57.245,123.62,57.773,124.279,57.775z"/>
	<path fill="#474747" d="M110.898,57.725c0.653,0.002,1.186-0.521,1.188-1.182c0.002-0.655-0.527-1.189-1.179-1.191
		c-0.658-0.002-1.192,0.527-1.194,1.182C109.711,57.195,110.24,57.723,110.898,57.725z"/>
	<path fill="#474747" d="M97.512,57.675c0.658,0.002,1.192-0.521,1.194-1.182c0.002-0.655-0.527-1.189-1.185-1.191
		c-0.653-0.002-1.186,0.527-1.188,1.182C96.33,57.145,96.86,57.672,97.512,57.675z"/>
	<path fill="#474747" d="M84.132,57.624c0.655,0.002,1.189-0.521,1.191-1.182c0.002-0.655-0.527-1.189-1.182-1.191
		c-0.658-0.002-1.189,0.527-1.191,1.182C82.948,57.094,83.474,57.622,84.132,57.624z"/>
	<path fill="#474747" d="M70.749,57.574c0.656,0.002,1.188-0.521,1.191-1.182c0.002-0.655-0.527-1.189-1.182-1.191
		c-0.653-0.002-1.189,0.527-1.191,1.182C69.565,57.044,70.097,57.572,70.749,57.574z"/>
	<path fill="#474747" d="M57.366,57.524c0.661,0.002,1.189-0.521,1.191-1.182c0.002-0.655-0.521-1.188-1.182-1.191
		c-0.655-0.002-1.186,0.527-1.188,1.182C56.184,56.994,56.711,57.521,57.366,57.524z"/>
	<path fill="#474747" d="M43.986,57.473c0.653,0.002,1.192-0.521,1.194-1.182c0.002-0.655-0.533-1.189-1.185-1.191
		c-0.658-0.002-1.191,0.527-1.194,1.182C42.799,56.943,43.328,57.471,43.986,57.473z"/>
	<path fill="#474747" d="M30.603,57.423c0.655,0.002,1.191-0.521,1.194-1.182c0.002-0.655-0.53-1.189-1.185-1.191
		c-0.655-0.002-1.189,0.527-1.191,1.182C29.418,56.893,29.948,57.42,30.603,57.423z"/>
	<path fill="#474747" d="M17.22,57.373c0.658,0.002,1.191-0.521,1.194-1.182c0.002-0.655-0.527-1.189-1.185-1.191
		c-0.655-0.002-1.186,0.527-1.188,1.182C16.038,56.843,16.565,57.37,17.22,57.373z"/>
	<path fill="#474747" d="M3.837,57.322c0.655,0.002,1.194-0.521,1.197-1.182c0.002-0.655-0.532-1.189-1.188-1.191
		c-0.655-0.002-1.189,0.527-1.191,1.182C2.653,56.792,3.182,57.32,3.837,57.322z"/>
	<path fill="#474747" d="M177.861,44.594c0.653,0.002,1.186-0.527,1.188-1.182c0.002-0.653-0.527-1.189-1.179-1.191
		c-0.658-0.002-1.191,0.53-1.194,1.182C176.673,44.058,177.203,44.591,177.861,44.594z"/>
	<circle fill="#474747" cx="164.482" cy="43.357" r="1.187"/>
	<path fill="#474747" d="M151.095,44.493c0.653,0.002,1.189-0.527,1.191-1.182c0.002-0.653-0.53-1.189-1.182-1.191
		c-0.658-0.002-1.191,0.529-1.194,1.182C149.907,43.957,150.437,44.49,151.095,44.493z"/>
	<circle fill="#474747" cx="137.716" cy="43.256" r="1.187"/>
	<path fill="#474747" d="M124.329,44.392c0.658,0.002,1.189-0.527,1.191-1.182c0.002-0.653-0.524-1.189-1.182-1.191
		c-0.658-0.002-1.192,0.529-1.194,1.182C123.141,43.856,123.67,44.39,124.329,44.392z"/>
	<path fill="#474747" d="M110.949,44.342c0.653,0.002,1.186-0.527,1.188-1.182c0.002-0.653-0.527-1.189-1.179-1.191
		c-0.658-0.002-1.192,0.529-1.194,1.182C109.761,43.806,110.29,44.339,110.949,44.342z"/>
	<path fill="#474747" d="M97.563,44.292c0.658,0.002,1.192-0.527,1.194-1.182c0.002-0.653-0.527-1.189-1.185-1.191
		c-0.653-0.002-1.186,0.53-1.188,1.182C96.381,43.756,96.91,44.289,97.563,44.292z"/>
	<circle fill="#474747" cx="84.187" cy="43.055" r="1.187"/>
	<circle fill="#474747" cx="70.804" cy="43.004" r="1.187"/>
	<path fill="#474747" d="M57.417,44.141c0.661,0.002,1.189-0.527,1.191-1.182c0.002-0.653-0.521-1.189-1.182-1.191
		c-0.655-0.002-1.186,0.53-1.188,1.182C56.235,43.605,56.761,44.138,57.417,44.141z"/>
	<path fill="#474747" d="M44.036,44.09c0.653,0.002,1.192-0.527,1.194-1.182c0.002-0.653-0.533-1.189-1.185-1.191
		c-0.658-0.002-1.191,0.53-1.194,1.182C42.849,43.554,43.378,44.088,44.036,44.09z"/>
	<circle fill="#474747" cx="30.658" cy="42.853" r="1.187"/>
	<circle fill="#474747" cx="17.275" cy="42.803" r="1.187"/>
	<path fill="#474747" d="M3.887,43.939c0.655,0.002,1.194-0.527,1.197-1.182c0.002-0.653-0.532-1.189-1.188-1.191
		c-0.655-0.002-1.189,0.53-1.191,1.182C2.703,43.403,3.232,43.937,3.887,43.939z"/>
	<path fill="#474747" d="M177.911,31.211c0.653,0.002,1.186-0.521,1.188-1.179c0.002-0.655-0.527-1.192-1.179-1.194
		c-0.658-0.002-1.191,0.53-1.194,1.185C176.724,30.681,177.253,31.208,177.911,31.211z"/>
	<path fill="#474747" d="M164.528,31.16c0.656,0.002,1.188-0.521,1.191-1.179c0.002-0.655-0.527-1.192-1.182-1.194
		c-0.653-0.002-1.192,0.53-1.194,1.185C163.34,30.63,163.876,31.158,164.528,31.16z"/>
	<path fill="#474747" d="M151.145,31.11c0.653,0.002,1.189-0.521,1.191-1.179c0.002-0.655-0.53-1.192-1.182-1.194
		c-0.658-0.002-1.191,0.53-1.194,1.185C149.958,30.58,150.487,31.108,151.145,31.11z"/>
	<path fill="#474747" d="M137.762,31.06c0.655,0.002,1.189-0.521,1.191-1.179c0.002-0.655-0.527-1.192-1.182-1.194
		c-0.655-0.002-1.191,0.53-1.194,1.185C136.575,30.53,137.107,31.057,137.762,31.06z"/>
	<path fill="#474747" d="M124.379,31.009c0.658,0.002,1.188-0.521,1.191-1.179c0.002-0.655-0.524-1.192-1.182-1.194
		c-0.658-0.002-1.192,0.53-1.194,1.185C123.191,30.479,123.721,31.007,124.379,31.009z"/>
	<path fill="#474747" d="M110.999,30.959c0.653,0.002,1.186-0.521,1.188-1.179c0.002-0.655-0.527-1.192-1.179-1.194
		c-0.658-0.002-1.192,0.53-1.194,1.185C109.811,30.429,110.341,30.957,110.999,30.959z"/>
	<path fill="#474747" d="M97.613,30.909c0.658,0.002,1.192-0.521,1.194-1.179c0.002-0.655-0.527-1.192-1.185-1.194
		c-0.653-0.002-1.186,0.53-1.188,1.185C96.431,30.379,96.96,30.906,97.613,30.909z"/>
	<circle fill="#474747" cx="84.237" cy="29.672" r="1.187"/>
	<circle fill="#474747" cx="70.854" cy="29.621" r="1.187"/>
	<path fill="#474747" d="M57.467,30.758c0.661,0.002,1.189-0.521,1.191-1.179c0.002-0.655-0.521-1.192-1.182-1.194
		c-0.655-0.002-1.186,0.53-1.188,1.185C56.285,30.228,56.811,30.755,57.467,30.758z"/>
	<path fill="#474747" d="M44.087,30.707c0.653,0.002,1.192-0.521,1.194-1.179c0.002-0.655-0.533-1.192-1.185-1.194
		c-0.658-0.002-1.191,0.53-1.194,1.185C42.899,30.177,43.429,30.705,44.087,30.707z"/>
	<circle fill="#474747" cx="30.708" cy="29.47" r="1.187"/>
	<circle fill="#474747" cx="17.325" cy="29.42" r="1.187"/>
	<path fill="#474747" d="M3.938,30.556c0.655,0.002,1.194-0.521,1.197-1.179c0.002-0.655-0.532-1.192-1.188-1.194
		s-1.189,0.53-1.191,1.185C2.753,30.026,3.282,30.554,3.938,30.556z"/>
	<path fill="#474747" d="M177.961,17.831c0.653,0.002,1.186-0.527,1.188-1.182c0.002-0.655-0.527-1.192-1.179-1.194
		c-0.658-0.002-1.191,0.53-1.194,1.185C176.774,17.295,177.303,17.828,177.961,17.831z"/>
	<circle fill="#474747" cx="164.583" cy="16.592" r="1.188"/>
	<path fill="#474747" d="M151.195,17.73c0.653,0.002,1.189-0.527,1.191-1.182c0.002-0.655-0.53-1.192-1.182-1.194
		c-0.658-0.002-1.191,0.53-1.194,1.185C150.008,17.194,150.537,17.728,151.195,17.73z"/>
	<circle fill="#474747" cx="137.817" cy="16.491" r="1.188"/>
	<path fill="#474747" d="M124.43,17.629c0.658,0.002,1.189-0.527,1.191-1.182c0.002-0.655-0.524-1.192-1.182-1.194
		c-0.658-0.002-1.192,0.53-1.194,1.185C123.242,17.094,123.771,17.627,124.43,17.629z"/>
	<path fill="#474747" d="M111.049,17.579c0.653,0.002,1.186-0.527,1.188-1.182c0.002-0.655-0.527-1.192-1.179-1.194
		c-0.658-0.002-1.192,0.53-1.194,1.185C109.862,17.043,110.391,17.576,111.049,17.579z"/>
	<path fill="#474747" d="M97.663,17.529c0.658,0.002,1.192-0.527,1.194-1.182c0.002-0.655-0.527-1.192-1.185-1.194
		c-0.653-0.002-1.186,0.53-1.188,1.185C96.481,16.993,97.011,17.526,97.663,17.529z"/>
	<circle fill="#474747" cx="84.288" cy="16.29" r="1.188"/>
	<circle fill="#474747" cx="70.905" cy="16.24" r="1.188"/>
	<path fill="#474747" d="M57.517,17.378c0.661,0.002,1.189-0.527,1.191-1.182c0.002-0.655-0.521-1.192-1.182-1.194
		c-0.655-0.002-1.186,0.53-1.188,1.185C56.335,16.842,56.862,17.375,57.517,17.378z"/>
	<path fill="#474747" d="M44.137,17.327c0.653,0.002,1.192-0.527,1.194-1.182c0.002-0.655-0.533-1.192-1.185-1.194
		c-0.658-0.002-1.191,0.53-1.194,1.185C42.95,16.791,43.479,17.325,44.137,17.327z"/>
	<circle fill="#474747" cx="30.759" cy="16.089" r="1.188"/>
	<circle fill="#474747" cx="17.376" cy="16.038" r="1.188"/>
	<path fill="#474747" d="M3.988,17.176c0.655,0.002,1.194-0.527,1.197-1.182c0.002-0.655-0.532-1.192-1.188-1.194
		c-0.655-0.002-1.189,0.53-1.191,1.185C2.804,16.64,3.333,17.174,3.988,17.176z"/>
	<path fill="#474747" d="M178.012,4.448c0.653,0.002,1.186-0.527,1.188-1.185c0.002-0.653-0.527-1.186-1.179-1.188
		c-0.658-0.002-1.191,0.527-1.194,1.179C176.824,3.912,177.354,4.445,178.012,4.448z"/>
	<path fill="#474747" d="M164.629,4.397c0.655,0.002,1.189-0.527,1.191-1.185c0.002-0.653-0.527-1.186-1.182-1.188
		c-0.653-0.002-1.192,0.527-1.194,1.179C163.441,3.861,163.976,4.395,164.629,4.397z"/>
	<path fill="#474747" d="M151.246,4.347c0.653,0.002,1.189-0.527,1.191-1.185c0.002-0.653-0.53-1.186-1.182-1.188
		c-0.658-0.002-1.191,0.527-1.194,1.179C150.058,3.811,150.588,4.344,151.246,4.347z"/>
	<path fill="#474747" d="M137.863,4.297c0.656,0.002,1.189-0.527,1.191-1.185c0.002-0.653-0.527-1.186-1.182-1.188
		c-0.655-0.002-1.191,0.527-1.194,1.179C136.675,3.761,137.208,4.294,137.863,4.297z"/>
	<path fill="#474747" d="M124.48,4.246c0.658,0.002,1.189-0.527,1.191-1.185c0.002-0.653-0.524-1.186-1.182-1.188
		c-0.658-0.002-1.192,0.527-1.194,1.179C123.292,3.71,123.821,4.244,124.48,4.246z"/>
	<path fill="#474747" d="M111.1,4.196c0.653,0.002,1.186-0.527,1.188-1.185c0.002-0.653-0.527-1.186-1.179-1.188
		c-0.658-0.002-1.192,0.527-1.194,1.179C109.912,3.66,110.441,4.193,111.1,4.196z"/>
	<path fill="#474747" d="M97.714,4.145c0.658,0.002,1.192-0.527,1.194-1.185c0.002-0.653-0.527-1.186-1.185-1.188
		c-0.653-0.002-1.186,0.527-1.188,1.179C96.532,3.61,97.061,4.143,97.714,4.145z"/>
	<path fill="#474747" d="M84.334,4.095c0.655,0.002,1.189-0.527,1.191-1.185c0.002-0.653-0.527-1.186-1.182-1.188
		c-0.658-0.002-1.189,0.527-1.191,1.179C83.149,3.559,83.675,4.093,84.334,4.095z"/>
	<path fill="#474747" d="M70.951,4.045c0.656,0.002,1.189-0.527,1.191-1.185c0.002-0.653-0.527-1.186-1.182-1.188
		c-0.653-0.002-1.189,0.527-1.191,1.179C69.766,3.509,70.298,4.042,70.951,4.045z"/>
	<path fill="#474747" d="M57.568,3.994c0.661,0.002,1.189-0.527,1.191-1.185c0.002-0.653-0.521-1.186-1.182-1.188
		c-0.655-0.002-1.186,0.527-1.188,1.179C56.386,3.459,56.912,3.992,57.568,3.994z"/>
	<path fill="#474747" d="M44.187,3.944c0.653,0.002,1.192-0.527,1.194-1.185c0.002-0.653-0.533-1.186-1.185-1.188
		c-0.658-0.002-1.191,0.527-1.194,1.179C43,3.408,43.529,3.942,44.187,3.944z"/>
	<path fill="#474747" d="M30.805,3.894c0.655,0.002,1.191-0.527,1.194-1.185c0.002-0.653-0.53-1.186-1.185-1.188
		c-0.655-0.002-1.189,0.527-1.191,1.179C29.62,3.358,30.149,3.891,30.805,3.894z"/>
	<path fill="#474747" d="M17.422,3.843c0.658,0.002,1.191-0.527,1.194-1.185c0.002-0.653-0.527-1.186-1.185-1.188
		c-0.655-0.002-1.186,0.527-1.188,1.179C16.24,3.308,16.766,3.841,17.422,3.843z"/>
	<path fill="#474747" d="M4.038,3.793c0.655,0.002,1.194-0.527,1.197-1.185C5.238,1.955,4.703,1.422,4.047,1.42
		C3.392,1.417,2.859,1.946,2.856,2.599C2.854,3.257,3.383,3.791,4.038,3.793z"/>
</g>
</svg>
