<?xml version="1.0" encoding="utf-8"?>
<!-- Generator: Adobe Illustrator 17.0.0, SVG Export Plug-In . SVG Version: 6.00 Build 0)  -->
<!DOCTYPE svg PUBLIC "-//W3C//DTD SVG 1.1//EN" "http://www.w3.org/Graphics/SVG/1.1/DTD/svg11.dtd">
<svg version="1.1" id="Layer_1" xmlns="http://www.w3.org/2000/svg" xmlns:xlink="http://www.w3.org/1999/xlink" x="0px" y="0px"
	 width="384px" height="358.333px" viewBox="0 0 384 358.333" enable-background="new 0 0 384 358.333" xml:space="preserve">
<g>
	<circle fill="#696969" cx="147.651" cy="56.059" r="1.472"/>
	<circle fill="#696969" cx="95.807" cy="56.059" r="1.472"/>
	<circle fill="#696969" cx="121.729" cy="56.059" r="1.472"/>
	<circle fill="#696969" cx="108.768" cy="56.059" r="1.472"/>
	<circle fill="#696969" cx="329.104" cy="146.786" r="1.472"/>
	<circle fill="#696969" cx="290.221" cy="56.059" r="1.472"/>
	<circle fill="#696969" cx="316.143" cy="69.02" r="1.472"/>
	<circle fill="#696969" cx="303.182" cy="69.02" r="1.472"/>
	<circle fill="#696969" cx="69.885" cy="56.059" r="1.472"/>
	<circle fill="#696969" cx="329.104" cy="69.02" r="1.472"/>
	<circle fill="#696969" cx="342.065" cy="69.02" r="1.472"/>
	<circle fill="#696969" cx="134.69" cy="56.059" r="1.472"/>
	<circle fill="#696969" cx="160.612" cy="56.059" r="1.472"/>
	<circle fill="#696969" cx="251.338" cy="56.059" r="1.472"/>
	<circle fill="#696969" cx="238.377" cy="56.059" r="1.472"/>
	<circle fill="#696969" cx="277.26" cy="56.059" r="1.472"/>
	<circle fill="#696969" cx="264.299" cy="56.059" r="1.472"/>
	<circle fill="#696969" cx="225.416" cy="56.059" r="1.472"/>
	<circle fill="#696969" cx="173.573" cy="56.059" r="1.472"/>
	<circle fill="#696969" cx="186.533" cy="56.059" r="1.472"/>
	<circle fill="#696969" cx="199.494" cy="56.059" r="1.472"/>
	<circle fill="#696969" cx="212.455" cy="56.059" r="1.472"/>
	<circle fill="#696969" cx="82.846" cy="56.059" r="1.472"/>
	<circle fill="#696969" cx="82.846" cy="69.02" r="1.472"/>
	<circle fill="#696969" cx="342.065" cy="81.981" r="1.472"/>
	<circle fill="#696969" cx="134.69" cy="69.02" r="1.472"/>
	<circle fill="#696969" cx="121.729" cy="69.02" r="1.472"/>
	<circle fill="#696969" cx="108.768" cy="69.02" r="1.472"/>
	<circle fill="#696969" cx="95.807" cy="69.02" r="1.472"/>
	<circle fill="#696969" cx="303.182" cy="81.981" r="1.472"/>
	<circle fill="#696969" cx="290.221" cy="81.981" r="1.472"/>
	<circle fill="#696969" cx="277.26" cy="69.02" r="1.472"/>
	<circle fill="#696969" cx="329.104" cy="81.981" r="1.472"/>
	<circle fill="#696969" cx="316.143" cy="81.981" r="1.472"/>
	<circle fill="#696969" cx="355.026" cy="81.981" r="1.472"/>
	<circle fill="#696969" cx="225.416" cy="69.02" r="1.472"/>
	<circle fill="#696969" cx="238.377" cy="69.02" r="1.472"/>
	<circle fill="#696969" cx="251.338" cy="69.02" r="1.472"/>
	<circle fill="#696969" cx="264.299" cy="69.02" r="1.472"/>
	<circle fill="#696969" cx="147.651" cy="69.02" r="1.472"/>
	<circle fill="#696969" cx="212.455" cy="69.02" r="1.472"/>
	<circle fill="#696969" cx="199.494" cy="69.02" r="1.472"/>
	<circle fill="#696969" cx="160.612" cy="69.02" r="1.472"/>
	<circle fill="#696969" cx="173.573" cy="69.02" r="1.472"/>
	<circle fill="#696969" cx="186.533" cy="69.02" r="1.472"/>
	<circle fill="#696969" cx="108.768" cy="43.099" r="1.472"/>
	<circle fill="#696969" cx="277.26" cy="43.099" r="1.472"/>
	<circle fill="#696969" cx="69.885" cy="30.138" r="1.472"/>
	<circle fill="#696969" cx="82.846" cy="30.138" r="1.472"/>
	<circle fill="#696969" cx="95.807" cy="30.138" r="1.472"/>
	<circle fill="#696969" cx="43.963" cy="30.138" r="1.472"/>
	<circle fill="#696969" cx="303.182" cy="43.099" r="1.472"/>
	<circle fill="#696969" cx="108.768" cy="30.138" r="1.472"/>
	<circle fill="#696969" cx="329.104" cy="43.099" r="1.472"/>
	<circle fill="#696969" cx="290.221" cy="43.099" r="1.472"/>
	<circle fill="#696969" cx="316.143" cy="43.099" r="1.472"/>
	<circle fill="#696969" cx="342.065" cy="43.099" r="1.472"/>
	<circle fill="#696969" cx="56.924" cy="30.138" r="1.472"/>
	<circle fill="#696969" cx="199.494" cy="30.138" r="1.472"/>
	<circle fill="#696969" cx="212.455" cy="30.138" r="1.472"/>
	<circle fill="#696969" cx="238.377" cy="30.138" r="1.472"/>
	<circle fill="#696969" cx="186.533" cy="30.138" r="1.472"/>
	<circle fill="#696969" cx="225.416" cy="30.138" r="1.472"/>
	<circle fill="#696969" cx="147.651" cy="30.138" r="1.472"/>
	<circle fill="#696969" cx="134.69" cy="30.138" r="1.472"/>
	<circle fill="#696969" cx="121.729" cy="30.138" r="1.472"/>
	<circle fill="#696969" cx="173.573" cy="30.138" r="1.472"/>
	<circle fill="#696969" cx="160.612" cy="30.138" r="1.472"/>
	<circle fill="#696969" cx="199.494" cy="43.099" r="1.472"/>
	<circle fill="#696969" cx="56.924" cy="43.099" r="1.472"/>
	<circle fill="#696969" cx="82.846" cy="43.099" r="1.472"/>
	<circle fill="#696969" cx="69.885" cy="43.099" r="1.472"/>
	<circle fill="#696969" cx="95.807" cy="43.099" r="1.472"/>
	<circle fill="#696969" cx="277.26" cy="81.981" r="1.472"/>
	<circle fill="#696969" cx="316.143" cy="56.059" r="1.472"/>
	<circle fill="#696969" cx="264.299" cy="43.099" r="1.472"/>
	<circle fill="#696969" cx="342.065" cy="56.059" r="1.472"/>
	<circle fill="#696969" cx="329.104" cy="56.059" r="1.472"/>
	<circle fill="#696969" cx="251.338" cy="30.138" r="1.472"/>
	<circle fill="#696969" cx="212.455" cy="43.099" r="1.472"/>
	<circle fill="#696969" cx="303.182" cy="56.059" r="1.472"/>
	<circle fill="#696969" cx="225.416" cy="43.099" r="1.472"/>
	<circle fill="#696969" cx="134.69" cy="43.099" r="1.472"/>
	<circle fill="#696969" cx="238.377" cy="43.099" r="1.472"/>
	<circle fill="#696969" cx="251.338" cy="43.099" r="1.472"/>
	<circle fill="#696969" cx="186.533" cy="43.099" r="1.472"/>
	<circle fill="#696969" cx="160.612" cy="43.099" r="1.472"/>
	<circle fill="#696969" cx="147.651" cy="43.099" r="1.472"/>
	<circle fill="#696969" cx="173.573" cy="43.099" r="1.472"/>
	<circle fill="#696969" cx="121.729" cy="43.099" r="1.472"/>
	<circle fill="#696969" cx="264.299" cy="120.864" r="1.472"/>
	<circle fill="#696969" cx="277.26" cy="120.864" r="1.472"/>
	<circle fill="#696969" cx="316.143" cy="120.864" r="1.472"/>
	<circle fill="#696969" cx="251.338" cy="120.864" r="1.472"/>
	<circle fill="#696969" cx="303.182" cy="120.864" r="1.472"/>
	<circle fill="#696969" cx="212.455" cy="107.903" r="1.472"/>
	<circle fill="#696969" cx="186.533" cy="120.864" r="1.472"/>
	<circle fill="#696969" cx="238.377" cy="120.864" r="1.472"/>
	<circle fill="#696969" cx="199.494" cy="120.864" r="1.472"/>
	<circle fill="#696969" cx="225.416" cy="120.864" r="1.472"/>
	<circle fill="#696969" cx="212.455" cy="120.864" r="1.472"/>
	<circle fill="#696969" cx="173.573" cy="107.903" r="1.472"/>
	<circle fill="#696969" cx="160.612" cy="107.903" r="1.472"/>
	<circle fill="#696969" cx="173.573" cy="120.864" r="1.472"/>
	<circle fill="#696969" cx="186.533" cy="107.903" r="1.472"/>
	<circle fill="#696969" cx="199.494" cy="107.903" r="1.472"/>
	<circle fill="#696969" cx="147.651" cy="107.903" r="1.472"/>
	<circle fill="#696969" cx="329.104" cy="120.864" r="1.472"/>
	<circle fill="#696969" cx="342.065" cy="120.864" r="1.472"/>
	<circle fill="#696969" cx="134.69" cy="107.903" r="1.472"/>
	<circle fill="#696969" cx="355.026" cy="120.864" r="1.472"/>
	<circle fill="#696969" cx="121.729" cy="107.903" r="1.472"/>
	<circle fill="#696969" cx="290.221" cy="120.864" r="1.472"/>
	<circle fill="#696969" cx="212.455" cy="133.825" r="1.472"/>
	<circle fill="#696969" cx="199.494" cy="133.825" r="1.472"/>
	<circle fill="#696969" cx="186.533" cy="133.825" r="1.472"/>
	<circle fill="#696969" cx="251.338" cy="133.825" r="1.472"/>
	<circle fill="#696969" cx="225.416" cy="133.825" r="1.472"/>
	<circle fill="#696969" cx="238.377" cy="133.825" r="1.472"/>
	<circle fill="#696969" cx="342.065" cy="146.786" r="1.472"/>
	<circle fill="#696969" cx="355.026" cy="146.786" r="1.472"/>
	<circle fill="#696969" cx="173.573" cy="133.825" r="1.472"/>
	<circle fill="#696969" cx="147.651" cy="133.825" r="1.472"/>
	<circle fill="#696969" cx="160.612" cy="133.825" r="1.472"/>
	<circle fill="#696969" cx="264.299" cy="133.825" r="1.472"/>
	<circle fill="#696969" cx="160.612" cy="120.864" r="1.472"/>
	<circle fill="#696969" cx="355.026" cy="133.825" r="1.472"/>
	<circle fill="#696969" cx="342.065" cy="133.825" r="1.472"/>
	<circle fill="#696969" cx="147.651" cy="120.864" r="1.472"/>
	<circle fill="#696969" cx="134.69" cy="120.864" r="1.472"/>
	<circle fill="#696969" cx="329.104" cy="133.825" r="1.472"/>
	<circle fill="#696969" cx="290.221" cy="133.825" r="1.472"/>
	<circle fill="#696969" cx="277.26" cy="133.825" r="1.472"/>
	<circle fill="#696969" cx="316.143" cy="133.825" r="1.472"/>
	<circle fill="#696969" cx="303.182" cy="133.825" r="1.472"/>
	<circle fill="#696969" cx="212.455" cy="94.942" r="1.472"/>
	<circle fill="#696969" cx="355.026" cy="94.942" r="1.472"/>
	<circle fill="#696969" cx="329.104" cy="94.942" r="1.472"/>
	<circle fill="#696969" cx="342.065" cy="94.942" r="1.472"/>
	<circle fill="#696969" cx="95.807" cy="81.981" r="1.472"/>
	<circle fill="#696969" cx="108.768" cy="81.981" r="1.472"/>
	<circle fill="#696969" cx="290.221" cy="94.942" r="1.472"/>
	<circle fill="#696969" cx="264.299" cy="94.942" r="1.472"/>
	<circle fill="#696969" cx="277.26" cy="94.942" r="1.472"/>
	<circle fill="#696969" cx="316.143" cy="94.942" r="1.472"/>
	<circle fill="#696969" cx="121.729" cy="81.981" r="1.472"/>
	<circle fill="#696969" cx="303.182" cy="94.942" r="1.472"/>
	<circle fill="#696969" cx="251.338" cy="94.942" r="1.472"/>
	<circle fill="#696969" cx="134.69" cy="81.981" r="1.472"/>
	<circle fill="#696969" cx="225.416" cy="81.981" r="1.472"/>
	<circle fill="#696969" cx="199.494" cy="81.981" r="1.472"/>
	<circle fill="#696969" cx="251.338" cy="81.981" r="1.472"/>
	<circle fill="#696969" cx="238.377" cy="81.981" r="1.472"/>
	<circle fill="#696969" cx="212.455" cy="81.981" r="1.472"/>
	<circle fill="#696969" cx="147.651" cy="81.981" r="1.472"/>
	<circle fill="#696969" cx="160.612" cy="81.981" r="1.472"/>
	<circle fill="#696969" cx="186.533" cy="81.981" r="1.472"/>
	<circle fill="#696969" cx="173.573" cy="81.981" r="1.472"/>
	<circle fill="#696969" cx="147.651" cy="94.942" r="1.472"/>
	<circle fill="#696969" cx="303.182" cy="107.903" r="1.472"/>
	<circle fill="#696969" cx="316.143" cy="107.903" r="1.472"/>
	<circle fill="#696969" cx="290.221" cy="107.903" r="1.472"/>
	<circle fill="#696969" cx="329.104" cy="107.903" r="1.472"/>
	<circle fill="#696969" cx="355.026" cy="107.903" r="1.472"/>
	<circle fill="#696969" cx="264.299" cy="107.903" r="1.472"/>
	<circle fill="#696969" cx="251.338" cy="107.903" r="1.472"/>
	<circle fill="#696969" cx="238.377" cy="107.903" r="1.472"/>
	<circle fill="#696969" cx="277.26" cy="107.903" r="1.472"/>
	<circle fill="#696969" cx="342.065" cy="107.903" r="1.472"/>
	<circle fill="#696969" cx="225.416" cy="107.903" r="1.472"/>
	<circle fill="#696969" cx="199.494" cy="94.942" r="1.472"/>
	<circle fill="#696969" cx="173.573" cy="94.942" r="1.472"/>
	<circle fill="#696969" cx="186.533" cy="94.942" r="1.472"/>
	<circle fill="#696969" cx="225.416" cy="94.942" r="1.472"/>
	<circle fill="#696969" cx="264.299" cy="81.981" r="1.472"/>
	<circle fill="#696969" cx="160.612" cy="94.942" r="1.472"/>
	<circle fill="#696969" cx="121.729" cy="94.942" r="1.472"/>
	<circle fill="#696969" cx="108.768" cy="94.942" r="1.472"/>
	<circle fill="#696969" cx="134.69" cy="94.942" r="1.472"/>
	<circle fill="#696969" cx="238.377" cy="94.942" r="1.472"/>
	<circle fill="#696969" cx="290.221" cy="69.02" r="1.472"/>
	<path fill="#696969" d="M32.449,30.266c0.004-0.044,0.025-0.082,0.025-0.129c0-0.814-0.658-1.475-1.473-1.475
		c-0.072,0-0.135,0.032-0.202,0.042L32.449,30.266z"/>
	<path fill="#696969" d="M265.712,250.775c0.021-0.099,0.059-0.194,0.059-0.302c0-0.814-0.658-1.475-1.473-1.475
		c-0.135,0-0.259,0.044-0.384,0.078L265.712,250.775z"/>
	<path fill="#696969" d="M252.536,238.322c0.161-0.236,0.274-0.504,0.274-0.81c0-0.814-0.658-1.475-1.473-1.475
		c-0.335,0-0.629,0.133-0.877,0.321L252.536,238.322z"/>
	<circle fill="#696969" cx="316.143" cy="17.177" r="1.472"/>
	<circle fill="#696969" cx="18.041" cy="4.216" r="1.472"/>
	<circle fill="#696969" cx="329.104" cy="17.177" r="1.472"/>
	<circle fill="#696969" cx="303.182" cy="17.177" r="1.472"/>
	<circle fill="#696969" cx="31.002" cy="4.216" r="1.472"/>
	<circle fill="#696969" cx="238.377" cy="17.177" r="1.472"/>
	<circle fill="#696969" cx="251.338" cy="17.177" r="1.472"/>
	<circle fill="#696969" cx="290.221" cy="17.177" r="1.472"/>
	<circle fill="#696969" cx="225.416" cy="17.177" r="1.472"/>
	<circle fill="#696969" cx="264.299" cy="17.177" r="1.472"/>
	<circle fill="#696969" cx="277.26" cy="17.177" r="1.472"/>
	<circle fill="#696969" cx="121.729" cy="4.216" r="1.472"/>
	<circle fill="#696969" cx="134.69" cy="4.216" r="1.472"/>
	<circle fill="#696969" cx="43.963" cy="4.216" r="1.472"/>
	<circle fill="#696969" cx="108.768" cy="4.216" r="1.472"/>
	<circle fill="#696969" cx="160.612" cy="4.216" r="1.472"/>
	<circle fill="#696969" cx="147.651" cy="4.216" r="1.472"/>
	<circle fill="#696969" cx="95.807" cy="4.216" r="1.472"/>
	<circle fill="#696969" cx="56.924" cy="4.216" r="1.472"/>
	<circle fill="#696969" cx="69.885" cy="4.216" r="1.472"/>
	<circle fill="#696969" cx="82.846" cy="4.216" r="1.472"/>
	<circle fill="#696969" cx="329.104" cy="30.138" r="1.472"/>
	<circle fill="#696969" cx="173.573" cy="4.216" r="1.472"/>
	<circle fill="#696969" cx="31.002" cy="17.177" r="1.472"/>
	<circle fill="#696969" cx="69.885" cy="17.177" r="1.472"/>
	<circle fill="#696969" cx="43.963" cy="17.177" r="1.472"/>
	<circle fill="#696969" cx="342.065" cy="30.138" r="1.472"/>
	<circle fill="#696969" cx="56.924" cy="17.177" r="1.472"/>
	<circle fill="#696969" cx="316.143" cy="30.138" r="1.472"/>
	<circle fill="#696969" cx="277.26" cy="30.138" r="1.472"/>
	<circle fill="#696969" cx="290.221" cy="30.138" r="1.472"/>
	<circle fill="#696969" cx="303.182" cy="30.138" r="1.472"/>
	<circle fill="#696969" cx="82.846" cy="17.177" r="1.472"/>
	<circle fill="#696969" cx="147.651" cy="17.177" r="1.472"/>
	<circle fill="#696969" cx="160.612" cy="17.177" r="1.472"/>
	<circle fill="#696969" cx="173.573" cy="17.177" r="1.472"/>
	<circle fill="#696969" cx="186.533" cy="17.177" r="1.472"/>
	<circle fill="#696969" cx="199.494" cy="17.177" r="1.472"/>
	<circle fill="#696969" cx="121.729" cy="17.177" r="1.472"/>
	<circle fill="#696969" cx="134.69" cy="17.177" r="1.472"/>
	<circle fill="#696969" cx="95.807" cy="17.177" r="1.472"/>
	<circle fill="#696969" cx="108.768" cy="17.177" r="1.472"/>
	<circle fill="#696969" cx="212.455" cy="17.177" r="1.472"/>
	<circle fill="#696969" cx="342.065" cy="17.177" r="1.472"/>
	<circle fill="#696969" cx="264.299" cy="30.138" r="1.472"/>
	<circle fill="#696969" cx="199.494" cy="4.216" r="1.472"/>
	<circle fill="#696969" cx="264.299" cy="4.216" r="1.472"/>
	<circle fill="#696969" cx="277.26" cy="4.216" r="1.472"/>
	<circle fill="#696969" cx="251.338" cy="4.216" r="1.472"/>
	<circle fill="#696969" cx="303.182" cy="4.216" r="1.472"/>
	<circle fill="#696969" cx="290.221" cy="4.216" r="1.472"/>
	<circle fill="#696969" cx="225.416" cy="4.216" r="1.472"/>
	<circle fill="#696969" cx="212.455" cy="4.216" r="1.472"/>
	<circle fill="#696969" cx="238.377" cy="4.216" r="1.472"/>
	<circle fill="#696969" cx="186.533" cy="4.216" r="1.472"/>
	<circle fill="#696969" cx="316.143" cy="4.216" r="1.472"/>
	<circle fill="#696969" cx="342.065" cy="4.216" r="1.472"/>
	<path fill="#696969" d="M6.049,5.308c0.306-0.27,0.504-0.654,0.504-1.093c0-0.814-0.658-1.475-1.473-1.475
		c-0.468,0-0.869,0.234-1.139,0.574L6.049,5.308z"/>
	<circle fill="#696969" cx="329.104" cy="4.216" r="1.472"/>
	<path fill="#696969" d="M19.326,17.858c0.11-0.207,0.188-0.43,0.188-0.681c0-0.814-0.658-1.475-1.473-1.475
		c-0.278,0-0.527,0.099-0.749,0.234L19.326,17.858z"/>
	<circle fill="#696969" cx="329.104" cy="289.356" r="1.472"/>
	<circle fill="#696969" cx="329.104" cy="198.63" r="1.472"/>
	<circle fill="#696969" cx="303.182" cy="198.63" r="1.472"/>
	<circle fill="#696969" cx="316.143" cy="198.63" r="1.472"/>
	<circle fill="#696969" cx="342.065" cy="198.63" r="1.472"/>
	<circle fill="#696969" cx="367.986" cy="198.63" r="1.472"/>
	<circle fill="#696969" cx="251.338" cy="198.63" r="1.472"/>
	<circle fill="#696969" cx="290.221" cy="198.63" r="1.472"/>
	<circle fill="#696969" cx="355.026" cy="198.63" r="1.472"/>
	<circle fill="#696969" cx="238.377" cy="198.63" r="1.472"/>
	<circle fill="#696969" cx="277.26" cy="198.63" r="1.472"/>
	<circle fill="#696969" cx="264.299" cy="198.63" r="1.472"/>
	<path fill="#696969" d="M210.983,198.63c0,0.179,0.042,0.346,0.101,0.504l0.932,0.882c0.139,0.044,0.283,0.089,0.439,0.089
		c0.814,0,1.473-0.66,1.473-1.475c0-0.814-0.658-1.475-1.473-1.475C211.641,197.155,210.983,197.815,210.983,198.63z"/>
	<circle fill="#696969" cx="264.299" cy="185.669" r="1.472"/>
	<circle fill="#696969" cx="277.26" cy="185.669" r="1.472"/>
	<circle fill="#696969" cx="290.221" cy="185.669" r="1.472"/>
	<circle fill="#696969" cx="251.338" cy="185.669" r="1.472"/>
	<circle fill="#696969" cx="303.182" cy="185.669" r="1.472"/>
	<circle fill="#696969" cx="225.416" cy="185.669" r="1.472"/>
	<circle fill="#696969" cx="212.455" cy="185.669" r="1.472"/>
	<circle fill="#696969" cx="238.377" cy="185.669" r="1.472"/>
	<circle fill="#696969" cx="199.494" cy="185.669" r="1.472"/>
	<circle fill="#696969" cx="225.416" cy="198.63" r="1.472"/>
	<circle fill="#696969" cx="316.143" cy="224.551" r="1.472"/>
	<circle fill="#696969" cx="329.104" cy="224.551" r="1.472"/>
	<path fill="#696969" d="M223.994,211.337l1.755,1.66c0.648-0.154,1.139-0.711,1.139-1.407c0-0.814-0.658-1.475-1.473-1.475
		C224.691,210.116,224.117,210.65,223.994,211.337z"/>
	<circle fill="#696969" cx="367.986" cy="224.551" r="1.472"/>
	<circle fill="#696969" cx="238.377" cy="211.59" r="1.472"/>
	<circle fill="#696969" cx="355.026" cy="224.551" r="1.472"/>
	<path fill="#696969" d="M239.217,225.731c0.375-0.268,0.633-0.683,0.633-1.179c0-0.814-0.658-1.475-1.473-1.475
		c-0.523,0-0.962,0.289-1.224,0.702L239.217,225.731z"/>
	<circle fill="#696969" cx="277.26" cy="224.551" r="1.472"/>
	<circle fill="#696969" cx="264.299" cy="224.551" r="1.472"/>
	<circle fill="#696969" cx="290.221" cy="224.551" r="1.472"/>
	<circle fill="#696969" cx="316.143" cy="185.669" r="1.472"/>
	<circle fill="#696969" cx="303.182" cy="224.551" r="1.472"/>
	<circle fill="#696969" cx="342.065" cy="224.551" r="1.472"/>
	<circle fill="#696969" cx="329.104" cy="211.59" r="1.472"/>
	<circle fill="#696969" cx="251.338" cy="211.59" r="1.472"/>
	<circle fill="#696969" cx="316.143" cy="211.59" r="1.472"/>
	<circle fill="#696969" cx="367.986" cy="211.59" r="1.472"/>
	<circle fill="#696969" cx="355.026" cy="211.59" r="1.472"/>
	<circle fill="#696969" cx="342.065" cy="211.59" r="1.472"/>
	<circle fill="#696969" cx="264.299" cy="211.59" r="1.472"/>
	<circle fill="#696969" cx="277.26" cy="211.59" r="1.472"/>
	<circle fill="#696969" cx="290.221" cy="211.59" r="1.472"/>
	<circle fill="#696969" cx="303.182" cy="211.59" r="1.472"/>
	<circle fill="#696969" cx="199.494" cy="159.747" r="1.472"/>
	<circle fill="#696969" cx="355.026" cy="159.747" r="1.472"/>
	<circle fill="#696969" cx="329.104" cy="185.669" r="1.472"/>
	<circle fill="#696969" cx="173.573" cy="146.786" r="1.472"/>
	<circle fill="#696969" cx="160.612" cy="146.786" r="1.472"/>
	<circle fill="#696969" cx="238.377" cy="159.747" r="1.472"/>
	<circle fill="#696969" cx="342.065" cy="159.747" r="1.472"/>
	<circle fill="#696969" cx="251.338" cy="159.747" r="1.472"/>
	<circle fill="#696969" cx="264.299" cy="159.747" r="1.472"/>
	<circle fill="#696969" cx="277.26" cy="159.747" r="1.472"/>
	<circle fill="#696969" cx="290.221" cy="159.747" r="1.472"/>
	<circle fill="#696969" cx="303.182" cy="159.747" r="1.472"/>
	<circle fill="#696969" cx="316.143" cy="159.747" r="1.472"/>
	<circle fill="#696969" cx="264.299" cy="146.786" r="1.472"/>
	<circle fill="#696969" cx="277.26" cy="146.786" r="1.472"/>
	<circle fill="#696969" cx="303.182" cy="146.786" r="1.472"/>
	<circle fill="#696969" cx="290.221" cy="146.786" r="1.472"/>
	<circle fill="#696969" cx="251.338" cy="146.786" r="1.472"/>
	<circle fill="#696969" cx="199.494" cy="146.786" r="1.472"/>
	<circle fill="#696969" cx="212.455" cy="146.786" r="1.472"/>
	<circle fill="#696969" cx="186.533" cy="146.786" r="1.472"/>
	<circle fill="#696969" cx="238.377" cy="146.786" r="1.472"/>
	<circle fill="#696969" cx="225.416" cy="146.786" r="1.472"/>
	<circle fill="#696969" cx="329.104" cy="159.747" r="1.472"/>
	<circle fill="#696969" cx="225.416" cy="159.747" r="1.472"/>
	<circle fill="#696969" cx="212.455" cy="172.708" r="1.472"/>
	<circle fill="#696969" cx="225.416" cy="172.708" r="1.472"/>
	<circle fill="#696969" cx="251.338" cy="172.708" r="1.472"/>
	<circle fill="#696969" cx="264.299" cy="172.708" r="1.472"/>
	<circle fill="#696969" cx="199.494" cy="172.708" r="1.472"/>
	<circle fill="#696969" cx="342.065" cy="185.669" r="1.472"/>
	<circle fill="#696969" cx="355.026" cy="185.669" r="1.472"/>
	<circle fill="#696969" cx="186.533" cy="172.708" r="1.472"/>
	<circle fill="#696969" cx="277.26" cy="172.708" r="1.472"/>
	<circle fill="#696969" cx="238.377" cy="172.708" r="1.472"/>
	<circle fill="#696969" cx="173.573" cy="159.747" r="1.472"/>
	<circle fill="#696969" cx="186.533" cy="159.747" r="1.472"/>
	<circle fill="#696969" cx="342.065" cy="172.708" r="1.472"/>
	<circle fill="#696969" cx="251.338" cy="224.551" r="1.472"/>
	<circle fill="#696969" cx="212.455" cy="159.747" r="1.472"/>
	<circle fill="#696969" cx="329.104" cy="172.708" r="1.472"/>
	<circle fill="#696969" cx="303.182" cy="172.708" r="1.472"/>
	<circle fill="#696969" cx="316.143" cy="172.708" r="1.472"/>
	<circle fill="#696969" cx="290.221" cy="172.708" r="1.472"/>
	<circle fill="#696969" cx="355.026" cy="172.708" r="1.472"/>
	<path fill="#696969" d="M366.514,185.669c0,0.814,0.658,1.475,1.472,1.475c0.62,0,1.143-0.384,1.363-0.926l-0.156-1.344
		c-0.262-0.399-0.692-0.679-1.207-0.679C367.172,184.194,366.514,184.854,366.514,185.669z"/>
	<path fill="#696969" d="M354.547,57.437l-0.297-2.599c-0.409,0.264-0.696,0.701-0.696,1.222
		C353.553,56.703,353.971,57.236,354.547,57.437z"/>
	<circle fill="#696969" cx="380.947" cy="341.2" r="1.472"/>
	<circle fill="#696969" cx="367.986" cy="341.2" r="1.472"/>
	<path fill="#696969" d="M353.553,69.02c0,0.814,0.658,1.475,1.472,1.475c0.38,0,0.717-0.154,0.977-0.388l-0.27-2.354
		c-0.213-0.12-0.445-0.207-0.707-0.207C354.211,67.546,353.553,68.206,353.553,69.02z"/>
	<circle fill="#696969" cx="380.947" cy="328.239" r="1.472"/>
	<circle fill="#696969" cx="355.026" cy="328.239" r="1.472"/>
	<circle fill="#696969" cx="380.947" cy="354.161" r="1.472"/>
	<path fill="#696969" d="M379.475,289.356c0,0.814,0.658,1.475,1.472,1.475c0.148,0,0.283-0.044,0.418-0.084l-0.329-2.846
		c-0.03-0.002-0.057-0.019-0.089-0.019C380.133,287.882,379.475,288.542,379.475,289.356z"/>
	<path fill="#696969" d="M366.514,172.708c0,0.806,0.648,1.458,1.451,1.47l-0.329-2.873
		C366.995,171.465,366.514,172.018,366.514,172.708z"/>
	<path fill="#696969" d="M379.821,277.311l-0.181-1.563c-0.097,0.198-0.165,0.411-0.165,0.648
		C379.475,276.748,379.614,277.058,379.821,277.311z"/>
	<circle fill="#696969" cx="355.026" cy="237.512" r="1.472"/>
	<circle fill="#696969" cx="367.986" cy="328.239" r="1.472"/>
	<circle fill="#696969" cx="277.26" cy="250.473" r="1.472"/>
	<circle fill="#696969" cx="303.182" cy="250.473" r="1.472"/>
	<circle fill="#696969" cx="290.221" cy="250.473" r="1.472"/>
	<circle fill="#696969" cx="329.104" cy="250.473" r="1.472"/>
	<circle fill="#696969" cx="316.143" cy="250.473" r="1.472"/>
	<circle fill="#696969" cx="367.986" cy="263.434" r="1.472"/>
	<circle fill="#696969" cx="329.104" cy="263.434" r="1.472"/>
	<circle fill="#696969" cx="316.143" cy="263.434" r="1.472"/>
	<circle fill="#696969" cx="342.065" cy="263.434" r="1.472"/>
	<circle fill="#696969" cx="355.026" cy="263.434" r="1.472"/>
	<circle fill="#696969" cx="342.065" cy="250.473" r="1.472"/>
	<circle fill="#696969" cx="316.143" cy="237.512" r="1.472"/>
	<circle fill="#696969" cx="303.182" cy="237.512" r="1.472"/>
	<circle fill="#696969" cx="367.986" cy="250.473" r="1.472"/>
	<circle fill="#696969" cx="329.104" cy="237.512" r="1.472"/>
	<circle fill="#696969" cx="342.065" cy="237.512" r="1.472"/>
	<circle fill="#696969" cx="367.986" cy="237.512" r="1.472"/>
	<circle fill="#696969" cx="303.182" cy="263.434" r="1.472"/>
	<circle fill="#696969" cx="290.221" cy="237.512" r="1.472"/>
	<circle fill="#696969" cx="355.026" cy="250.473" r="1.472"/>
	<circle fill="#696969" cx="264.299" cy="237.512" r="1.472"/>
	<circle fill="#696969" cx="277.26" cy="237.512" r="1.472"/>
	<circle fill="#696969" cx="367.986" cy="315.278" r="1.472"/>
	<circle fill="#696969" cx="380.947" cy="302.317" r="1.472"/>
	<circle fill="#696969" cx="355.026" cy="302.317" r="1.472"/>
	<circle fill="#696969" cx="316.143" cy="146.786" r="1.472"/>
	<circle fill="#696969" cx="316.143" cy="289.356" r="1.472"/>
	<circle fill="#696969" cx="342.065" cy="302.317" r="1.472"/>
	<circle fill="#696969" cx="367.986" cy="302.317" r="1.472"/>
	<circle fill="#696969" cx="329.104" cy="302.317" r="1.472"/>
	<circle fill="#696969" cx="380.947" cy="315.278" r="1.472"/>
	<circle fill="#696969" cx="355.026" cy="315.278" r="1.472"/>
	<circle fill="#696969" cx="342.065" cy="315.278" r="1.472"/>
	<circle fill="#696969" cx="342.065" cy="289.356" r="1.472"/>
	<circle fill="#696969" cx="342.065" cy="276.395" r="1.472"/>
	<circle fill="#696969" cx="367.986" cy="276.395" r="1.472"/>
	<path fill="#696969" d="M277.619,262.033l1.029,0.971C278.496,262.519,278.112,262.16,277.619,262.033z"/>
	<circle fill="#696969" cx="329.104" cy="276.395" r="1.472"/>
	<circle fill="#696969" cx="355.026" cy="276.395" r="1.472"/>
	<circle fill="#696969" cx="303.182" cy="276.395" r="1.472"/>
	<circle fill="#696969" cx="367.986" cy="289.356" r="1.472"/>
	<circle fill="#696969" cx="316.143" cy="276.395" r="1.472"/>
	<circle fill="#696969" cx="355.026" cy="289.356" r="1.472"/>
	<circle fill="#696969" cx="290.221" cy="263.434" r="1.472"/>
</g>
</svg>
