<?xml version="1.0" encoding="utf-8"?>
<!-- Generator: Adobe Illustrator 17.0.0, SVG Export Plug-In . SVG Version: 6.00 Build 0)  -->
<!DOCTYPE svg PUBLIC "-//W3C//DTD SVG 1.1//EN" "http://www.w3.org/Graphics/SVG/1.1/DTD/svg11.dtd">
<svg version="1.1" id="Layer_1" xmlns="http://www.w3.org/2000/svg" xmlns:xlink="http://www.w3.org/1999/xlink" x="0px" y="0px"
	 width="343.167px" height="358px" viewBox="0 0 343.167 358" enable-background="new 0 0 343.167 358" xml:space="preserve">
<pattern  x="-787.917" y="487.5" width="15.948" height="15.786" patternUnits="userSpaceOnUse" id="SVGID_1_" viewBox="0 -15.787 15.948 15.786" overflow="visible">
	<g>
		<polygon fill="none" points="0,-0.001 15.948,-0.001 15.948,-15.787 0,-15.787 		"/>
		<g>
			<polygon fill="none" points="0,-15.787 15.948,-15.787 15.948,-0.001 0,-0.001 			"/>
			<g>
				<polygon fill="none" points="0,-15.787 15.948,-15.787 15.948,0 0,0 				"/>
				<path fill="#F6F6F6" d="M0.021-10.167c-0.007,0-0.014,0.002-0.021,0.002v4.329c0.007,0,0.014,0.002,0.021,0.002
					c1.197,0,2.167-0.97,2.167-2.167C2.188-9.197,1.218-10.167,0.021-10.167z"/>
				<path fill="#F6F6F6" d="M5.608-15.787c0,0.012-0.004,0.024-0.004,0.036c0,1.197,0.97,2.167,2.167,2.167s2.167-0.97,2.167-2.167
					c0-0.013-0.003-0.024-0.004-0.036C9.934-15.787,5.608-15.787,5.608-15.787z"/>
				<path fill="#F6F6F6" d="M15.948-10.16c-1.162,0.04-2.093,0.988-2.093,2.16s0.932,2.12,2.094,2.159L15.948-10.16L15.948-10.16z"
					/>
				<path fill="#F6F6F6" d="M8.021-2.167c-1.197,0-2.167,0.97-2.167,2.167h4.333C10.188-1.197,9.218-2.167,8.021-2.167z"/>
			</g>
		</g>
	</g>
</pattern>
<pattern  id="SVGID_2_" xlink:href="#SVGID_1_" patternTransform="matrix(1 0 0 1 266.6415 17241.7305)">
</pattern>
<circle fill="url(#SVGID_2_)" cx="172.769" cy="182.579" r="168"/>
<g>
	<path fill="#2854FF" d="M152.784,166.824l5.097-35.853c-0.126-0.454-0.544-1.916-2.385-8.359l-2.274-7.959l-1.13,0.323l2.029,7.101
		l-14.407-5.403l2.553-11.147L162.6,95.191h31.119l20.333,10.336l2.222,9.698l-13.883,6.17l1.836-6.419l-1.13-0.323
		c0,0-4.546,15.909-4.66,16.318l5.098,35.852L152.784,166.824L152.784,166.824z M137.696,125.473l1.752-7.642l14.312,5.367
		l-4.063,7.075L137.696,125.473z M202.294,122.727l14.249-6.333l2.081,9.078l-12.001,4.8L202.294,122.727z M163.425,94.016
		l4.74-9.176h20.157l4.588,9.176H163.425z"/>
	<path d="M195.793,92.683l-5.509-11.019h-24.051l-5.689,11.011l-21.04,10.695l-5.51,24.042l17.082,6.833l2.966-5.163
		c0.261,0.913,0.471,1.649,0.602,2.107c-0.237,1.669-5.518,38.811-5.518,38.811h58.068c0,0-5.28-37.141-5.518-38.811
		c0.131-0.46,0.341-1.195,0.602-2.109l2.965,5.165l17.083-6.833l-5.51-24.042L195.793,92.683z M187.085,86.84l2.588,5.176h-22.964
		l2.674-5.176H187.085z M140.028,124.252l0.858-3.745l9.966,3.737l-2.026,3.527L140.028,124.252z M155.089,164.824l4.83-33.974
		c-0.199-0.745,0.453,1.549-5.324-18.669l-4.976,1.422c0,0,0.649,2.273,1.488,5.208l-9.054-3.395l1.954-8.53l19.072-9.695h30.161
		l19.072,9.695l1.645,7.181l-8.465,3.762c0.699-2.444,1.208-4.226,1.208-4.226l-4.976-1.422
		c-5.761,20.164-5.125,17.922-5.324,18.669l4.83,33.974L155.089,164.824L155.089,164.824z M207.494,127.77l-2.362-4.116
		l10.004-4.446l1.156,5.043L207.494,127.77z"/>
	<path fill="#2854FF" d="M187.085,86.84l2.588,5.176h-22.964l2.674-5.176H187.085z M140.028,124.252l0.858-3.745l9.966,3.737
		l-2.026,3.527L140.028,124.252z M155.089,164.824l4.83-33.974c-0.199-0.745,0.453,1.549-5.324-18.669l-4.976,1.422
		c0,0,0.649,2.273,1.488,5.208l-9.054-3.395l1.954-8.53l19.072-9.695h30.161l19.072,9.695l1.645,7.181l-8.465,3.762
		c0.699-2.444,1.208-4.226,1.208-4.226l-4.976-1.422c-5.761,20.164-5.125,17.922-5.324,18.669l4.83,33.974L155.089,164.824
		L155.089,164.824z M207.494,127.77l-2.362-4.116l10.004-4.446l1.156,5.043L207.494,127.77z"/>
</g>
<image display="none" overflow="visible" enable-background="new    " width="1920" height="617" xlink:href="3-5-2019-apparelad-v1_02.jpg"  transform="matrix(1 0 0 1 -79.5 -175)">
</image>
<g display="none">
	<path display="inline" fill="#F6F6F6" d="M796.667,102.667c-0.007,0-0.014,0.002-0.021,0.002v4.329
		c0.007,0,0.014,0.002,0.021,0.002c1.197,0,2.167-0.97,2.167-2.167C798.833,103.637,797.863,102.667,796.667,102.667z"/>
	<path display="inline" fill="#F6F6F6" d="M802.254,97.047c0,0.012-0.004,0.024-0.004,0.036c0,1.197,0.97,2.167,2.167,2.167
		s2.167-0.97,2.167-2.167c0-0.013-0.003-0.024-0.004-0.036H802.254z"/>
	<path display="inline" fill="#F6F6F6" d="M812.594,102.674c-1.162,0.039-2.094,0.988-2.094,2.159c0,1.172,0.932,2.12,2.094,2.159
		V102.674z"/>
	<path display="inline" fill="#F6F6F6" d="M804.667,110.667c-1.197,0-2.167,0.97-2.167,2.167h4.333
		C806.833,111.637,805.863,110.667,804.667,110.667z"/>
</g>
<rect x="20.094" y="56.031" transform="matrix(0.7071 -0.7071 0.7071 0.7071 -44.8296 57.4067)" fill="#F16D9A" width="53.573" height="53.573"/>
<polygon fill="#FFFFFF" points="171.066,213.513 148.042,226.771 168.597,137.5 227.676,207.508 201.139,206.239 204.678,220.868 
	174.604,228.141 "/>
<polygon fill="#010000" points="174.357,205.849 155.489,216.714 171.225,148.367 216.457,201.966 194.709,200.927 198.642,217.184 
	178.289,222.105 "/>
<polygon fill="#2854FF" points="205.238,196.424 173.854,159.234 162.935,206.656 177.647,198.185 181.974,216.071 192.607,213.499 
	188.28,195.613 "/>
<path fill="#010000" d="M88.517,136.277"/>
<polygon fill="#020000" points="74.77,206.479 74.77,160.048 61.382,146.66 76.764,131.277 103.648,131.277 103.641,131.289 
	107.804,131.277 126.174,131.277 141.556,146.66 128.169,160.048 128.169,206.479 "/>
<path fill="#FFFFFF" d="M124.103,136.277h-16.299c0.377,0.658,0.609,1.41,0.609,2.223c0,2.485-2.015,4.5-4.5,4.5h-5
	c-2.485,0-4.5-2.015-4.5-4.5c0-0.813,0.232-1.565,0.609-2.223H78.835L68.452,146.66l11.317,11.317v43.503h43.399v-43.503
	l11.317-11.317L124.103,136.277z"/>
<path fill="#020000" d="M89.292,136.277c-0.197,0.766-0.308,1.552-0.308,2.341c0,5.304,4.314,9.619,9.618,9.619h6.274
	c5.304,0,9.619-4.315,9.619-9.619c0-0.789-0.111-1.575-0.308-2.341H89.292z"/>
<path fill="#FFFFFF" d="M94.371,136.277c-0.408,0.689-0.658,1.483-0.658,2.341c0,2.551,2.068,4.619,4.619,4.619h6.274
	c2.551,0,4.619-2.068,4.619-4.619c0-0.859-0.25-1.653-0.658-2.341H94.371z"/>
<circle fill="#020000" cx="101.469" cy="172.578" r="13.344"/>
<circle fill="#FFFFFF" cx="101.469" cy="172.578" r="6.242"/>
<polygon fill="#000100" points="222.676,212.508 222.676,173.879 210.52,173.879 210.52,145.302 228.511,127.311 269.292,127.608 
	287.85,146.166 287.85,174.917 275.768,174.917 275.768,212.508 "/>
<polygon fill="#FFFFFF" points="230.568,132.326 215.52,147.373 215.52,168.878 227.676,168.878 227.676,207.508 270.768,207.508 
	270.768,169.917 282.85,169.917 282.85,148.237 267.206,132.593 "/>
<polygon fill="#000100" points="232.674,131.25 248.864,149.878 268.198,131.25 "/>
<polygon fill="#FFFFFF" points="240.233,132.326 249.185,142.625 259.875,132.326 "/>
<rect x="222.676" y="154.25" fill="#000100" width="5" height="23"/>
<rect x="210.825" y="159.824" fill="#000100" width="15.8" height="5"/>
<rect x="270.916" y="154.25" fill="#000100" width="5" height="23"/>
<rect x="272.051" y="159.824" fill="#000100" width="15.8" height="5"/>
<circle fill="#000100" cx="260.792" cy="156.458" r="4.375"/>
<rect x="222.676" y="195" fill="#000100" width="52.157" height="5.333"/>
<g>
	<path fill="#202020" d="M162.652,38.551h7.98V17.603c0-1.026,0.028-2.099,0.085-3.22l-4.703,3.904
		c-0.304,0.247-0.608,0.423-0.912,0.527s-0.598,0.157-0.883,0.157c-0.494,0-0.936-0.109-1.325-0.328
		c-0.39-0.218-0.68-0.451-0.869-0.698l-2.793-3.705l12.939-10.859h7.296V38.55h6.84v6.384h-23.655V38.551z"/>
</g>
</svg>
