<?xml version="1.0" encoding="utf-8"?>
<!-- Generator: Adobe Illustrator 17.0.0, SVG Export Plug-In . SVG Version: 6.00 Build 0)  -->
<!DOCTYPE svg PUBLIC "-//W3C//DTD SVG 1.1//EN" "http://www.w3.org/Graphics/SVG/1.1/DTD/svg11.dtd">
<svg version="1.1" id="Layer_1" xmlns="http://www.w3.org/2000/svg" xmlns:xlink="http://www.w3.org/1999/xlink" x="0px" y="0px"
	 width="343.167px" height="358px" viewBox="0 0 343.167 358" enable-background="new 0 0 343.167 358" xml:space="preserve">
<pattern  x="-787.917" y="487.5" width="15.948" height="15.786" patternUnits="userSpaceOnUse" id="New_Pattern_3" viewBox="0 -15.786 15.948 15.786" overflow="visible">
	<g>
		<polygon fill="none" points="0,0 15.948,0 15.948,-15.786 0,-15.786 		"/>
		<g>
			<polygon fill="none" points="0,0 15.948,0 15.948,-15.787 0,-15.787 			"/>
			<path fill="#F6F6F6" d="M0.021-5.62C0.014-5.62,0.007-5.622,0-5.622v-4.329c0.007,0,0.014-0.002,0.021-0.002
				c1.197,0,2.167,0.97,2.167,2.167C2.188-6.59,1.218-5.62,0.021-5.62z"/>
			<path fill="#F6F6F6" d="M5.608,0c0-0.012-0.004-0.024-0.004-0.036c0-1.197,0.97-2.167,2.167-2.167s2.167,0.97,2.167,2.167
				c0,0.013-0.003,0.024-0.004,0.036H5.608z"/>
			<path fill="#F6F6F6" d="M15.948-5.627c-1.162-0.04-2.093-0.988-2.093-2.16s0.932-2.12,2.094-2.159L15.948-5.627L15.948-5.627z"/>
			<path fill="#F6F6F6" d="M8.021-13.62c-1.197,0-2.167-0.97-2.167-2.167h4.333C10.188-14.59,9.218-13.62,8.021-13.62z"/>
		</g>
	</g>
</pattern>
<pattern  id="SVGID_1_" xlink:href="#New_Pattern_3" patternTransform="matrix(1 0 0 -1 485.1445 -17134.1465)">
</pattern>
<circle fill="url(#SVGID_1_)" cx="171.082" cy="185" r="168"/>
<image display="none" overflow="visible" enable-background="new    " width="1920" height="617" xlink:href="3-5-2019-apparelad-v1_02.jpg"  transform="matrix(1 0 0 1 -79.5 -175)">
</image>
<g display="none">
	<path display="inline" fill="#F6F6F6" d="M796.667,102.667c-0.007,0-0.014,0.002-0.021,0.002v4.329
		c0.007,0,0.014,0.002,0.021,0.002c1.197,0,2.167-0.97,2.167-2.167C798.833,103.637,797.863,102.667,796.667,102.667z"/>
	<path display="inline" fill="#F6F6F6" d="M802.254,97.047c0,0.012-0.004,0.024-0.004,0.036c0,1.197,0.97,2.167,2.167,2.167
		s2.167-0.97,2.167-2.167c0-0.013-0.003-0.024-0.004-0.036H802.254z"/>
	<path display="inline" fill="#F6F6F6" d="M812.594,102.674c-1.162,0.039-2.094,0.988-2.094,2.159c0,1.172,0.932,2.12,2.094,2.159
		V102.674z"/>
	<path display="inline" fill="#F6F6F6" d="M804.667,110.667c-1.197,0-2.167,0.97-2.167,2.167h4.333
		C806.833,111.637,805.863,110.667,804.667,110.667z"/>
</g>
<path fill="#010000" d="M88.517,136.277"/>
<g>
	<path d="M172.695,1.687c2.052,0,3.876,0.29,5.472,0.869c1.596,0.58,2.945,1.364,4.047,2.352c1.102,0.988,1.938,2.133,2.508,3.434
		c0.57,1.302,0.855,2.674,0.855,4.118c0,1.311-0.133,2.465-0.399,3.463s-0.66,1.862-1.183,2.593
		c-0.523,0.732-1.168,1.354-1.938,1.867s-1.648,0.94-2.636,1.283c4.598,1.596,6.897,4.722,6.897,9.376
		c0,2.204-0.399,4.123-1.197,5.757s-1.867,2.993-3.206,4.076s-2.893,1.895-4.66,2.437s-3.61,0.813-5.529,0.813
		c-1.976,0-3.733-0.214-5.272-0.641c-1.539-0.428-2.907-1.093-4.104-1.995s-2.247-2.057-3.149-3.463
		c-0.903-1.406-1.687-3.078-2.352-5.016l3.933-1.596c0.342-0.152,0.679-0.257,1.012-0.313c0.332-0.057,0.66-0.085,0.983-0.085
		c0.608,0,1.154,0.119,1.639,0.356c0.484,0.238,0.85,0.584,1.097,1.041c0.855,1.577,1.762,2.722,2.722,3.434
		s2.085,1.069,3.377,1.069c0.988,0,1.848-0.166,2.579-0.499c0.731-0.332,1.339-0.76,1.824-1.282c0.484-0.522,0.85-1.116,1.097-1.781
		s0.371-1.34,0.371-2.023c0-0.893-0.062-1.696-0.186-2.408c-0.124-0.713-0.47-1.326-1.04-1.838c-0.57-0.513-1.43-0.907-2.579-1.183
		c-1.15-0.275-2.75-0.414-4.802-0.414v-6.099c1.729,0,3.125-0.132,4.189-0.399c1.063-0.266,1.885-0.631,2.465-1.097
		c0.58-0.465,0.964-1.03,1.154-1.696c0.19-0.665,0.285-1.396,0.285-2.194c0-1.634-0.395-2.893-1.183-3.776
		c-0.789-0.883-1.991-1.325-3.605-1.325c-0.665,0-1.273,0.095-1.824,0.285c-0.551,0.19-1.045,0.446-1.482,0.77
		c-0.438,0.323-0.813,0.703-1.126,1.14c-0.313,0.438-0.565,0.912-0.755,1.425c-0.304,0.855-0.689,1.473-1.154,1.853
		c-0.466,0.38-1.097,0.57-1.895,0.57c-0.19,0-0.395-0.009-0.613-0.028c-0.219-0.019-0.442-0.047-0.67-0.085l-4.674-0.827
		c0.304-2.071,0.888-3.876,1.753-5.415c0.864-1.539,1.938-2.821,3.22-3.848c1.283-1.026,2.75-1.791,4.403-2.294
		S170.794,1.687,172.695,1.687z"/>
</g>
<g>
	<path fill="#4A5A96" d="M105.319,105.766c5.099-3.143,8.533-8.959,8.533-15.633c0-10.006-7.697-18.117-17.193-18.117
		s-17.193,8.111-17.193,18.117s7.697,18.117,17.193,18.117c0.523,0,1.039-0.034,1.551-0.083L109.618,116L105.319,105.766z"/>
	<path fill="#5FABF2" d="M186.402,86.024c-5.099-3.143-8.533-8.959-8.533-15.633c0-10.006,7.697-18.117,17.193-18.117
		s17.193,8.111,17.193,18.117s-7.697,18.117-17.193,18.117c-0.523,0-1.039-0.034-1.551-0.083l-11.409,7.833L186.402,86.024z"/>
	<path fill="#D24528" d="M165.538,60.25h-39.75c-1.105,0-2,0.919-2,2.053v27.394c0,1.134,0.895,2.053,2,2.053h18.9l13.1,7l-2.574-7
		h10.324c1.105,0,2-0.919,2-2.053V62.303C167.538,61.169,166.643,60.25,165.538,60.25z"/>
	<path fill="#D24528" d="M223.121,74.972h39.75c1.105,0,2,0.919,2,2.053v27.394c0,1.134-0.895,2.053-2,2.053h-18.9l-13.1,7l2.574-7
		h-10.324c-1.105,0-2-0.919-2-2.053V77.025C221.121,75.891,222.017,74.972,223.121,74.972z"/>
	<g>
		<path fill="#FDFFFD" d="M101.987,78.947l-2.764-0.004c-3.106,0-5.113,2.059-5.113,5.246v2.419h-2.78
			c-0.24,0-0.435,0.195-0.435,0.435v3.505c0,0.24,0.195,0.435,0.435,0.435h2.78v8.844c0,0.24,0.195,0.435,0.435,0.435h3.627
			c0.24,0,0.435-0.195,0.435-0.435v-8.844h3.25c0.24,0,0.435-0.195,0.435-0.435l0.001-3.505c0-0.115-0.046-0.226-0.127-0.307
			c-0.081-0.082-0.192-0.128-0.308-0.128h-3.251v-2.051c0-0.986,0.235-1.486,1.519-1.486l1.862-0.001
			c0.24,0,0.434-0.195,0.434-0.435v-3.254C102.421,79.142,102.227,78.948,101.987,78.947z"/>
	</g>
	<g>
		<path fill="#FEFFFF" d="M154.195,63.606H137.92c-1.859,0-3.372,1.513-3.372,3.372v16.275c0,1.859,1.513,3.372,3.372,3.372h16.275
			c1.859,0,3.372-1.513,3.372-3.372V66.978C157.567,65.118,156.054,63.606,154.195,63.606z M146.102,81.14
			c-3.347,0-6.07-2.723-6.07-6.07s2.723-6.07,6.07-6.07s6.07,2.723,6.07,6.07C152.172,78.417,149.449,81.14,146.102,81.14z
			 M152.846,70.35c-1.116,0-2.023-0.908-2.023-2.023s0.908-2.023,2.023-2.023c1.116,0,2.023,0.908,2.023,2.023
			S153.962,70.35,152.846,70.35z"/>
		<path fill="#FEFFFF" d="M152.846,67.652c-0.372,0-0.674,0.302-0.674,0.674S152.474,69,152.846,69s0.674-0.302,0.674-0.674
			S153.218,67.652,152.846,67.652z"/>
	</g>
	<path fill="#FEFFFF" d="M146.057,70.574c-2.504,0-4.541,2.038-4.541,4.541c0,2.504,2.038,4.541,4.541,4.541
		c2.504,0,4.541-2.038,4.541-4.541C150.599,72.612,148.561,70.574,146.057,70.574z"/>
	<g>
		<g>
			<path fill="#FFFFFF" d="M208.215,63.348c-0.858,0.38-1.778,0.638-2.746,0.753c0.988-0.591,1.743-1.529,2.102-2.644
				c-0.926,0.548-1.949,0.945-3.038,1.161c-0.872-0.931-2.113-1.51-3.49-1.51c-2.641,0-4.782,2.141-4.782,4.78
				c0,0.374,0.042,0.74,0.124,1.089c-3.973-0.2-7.497-2.103-9.855-4.996c-0.412,0.705-0.647,1.526-0.647,2.403
				c0,1.659,0.845,3.123,2.127,3.979c-0.784-0.026-1.521-0.242-2.166-0.6v0.06c0,2.316,1.649,4.249,3.835,4.688
				c-0.401,0.108-0.823,0.167-1.26,0.167c-0.309,0-0.607-0.031-0.9-0.089c0.609,1.901,2.374,3.283,4.466,3.321
				c-1.636,1.282-3.698,2.043-5.938,2.043c-0.386,0-0.766-0.023-1.14-0.066c2.116,1.359,4.629,2.151,7.329,2.151
				c8.796,0,13.604-7.285,13.604-13.604l-0.016-0.619C206.763,65.148,207.576,64.306,208.215,63.348z"/>
		</g>
	</g>
	<g>
		<path fill="#FFFFFF" d="M240.967,95.635c-0.607,3.178-1.346,6.224-3.539,7.816c-0.676-4.803,0.994-8.41,1.77-12.24
			c-1.322-2.226,0.159-6.708,2.949-5.604c3.432,1.358-2.973,8.278,1.327,9.143c4.49,0.902,6.323-7.791,3.539-10.617
			c-4.022-4.082-11.71-0.093-10.764,5.751c0.23,1.429,1.706,1.862,0.59,3.834c-2.574-0.571-3.343-2.601-3.244-5.309
			c0.159-4.431,3.982-7.533,7.816-7.962c4.849-0.543,9.399,1.78,10.027,6.341c0.707,5.148-2.188,10.723-7.373,10.322
			C242.659,97.001,242.069,96.304,240.967,95.635z"/>
	</g>
</g>
<g>
	<g>
		<g>
			
				<ellipse transform="matrix(-0.7071 -0.7071 0.7071 -0.7071 -32.1674 423.6785)" fill="#F16D9A" cx="71.663" cy="218.501" rx="5.423" ry="22.296"/>
		</g>
		<path fill="#93E3ED" d="M75.5,222.337c-8.707,8.707-17.483,14.049-19.601,11.931l7.67,7.67
			c2.118,2.118,10.894-3.224,19.601-11.931s14.049-17.483,11.931-19.601l-7.67-7.67C89.549,204.854,84.207,213.63,75.5,222.337z"/>
	</g>
	<path fill="#424242" d="M61.838,208.675c-8.153,8.153-14.869,17.945-11.931,20.883l7.67,7.67
		c2.939,2.939,12.73-3.777,20.883-11.931c8.153-8.153,14.87-17.945,11.931-20.884l-7.67-7.67
		C79.783,193.805,69.991,200.522,61.838,208.675z M53.229,222.059c2.217-3.642,5.73-7.94,9.891-12.101
		c4.161-4.162,8.459-7.674,12.102-9.892c4.06-2.471,5.841-2.414,6.216-2.039s0.431,2.157-2.039,6.216
		c-2.217,3.642-5.73,7.94-9.892,12.102c-4.162,4.162-8.459,7.674-12.101,9.891c-4.059,2.471-5.841,2.414-6.216,2.039
		C50.815,227.9,50.758,226.119,53.229,222.059z M89.109,205.697c0.375,0.375,0.432,2.157-2.039,6.217
		c-2.217,3.642-5.73,7.94-9.892,12.102c-4.162,4.162-8.459,7.674-12.101,9.891c-4.059,2.471-5.841,2.415-6.216,2.039l-5.816-5.816
		c0.046-0.009,0.094-0.022,0.14-0.033c0.052-0.012,0.104-0.024,0.157-0.037c0.13-0.032,0.262-0.068,0.396-0.107
		c0.039-0.011,0.077-0.021,0.117-0.033c0.173-0.053,0.35-0.111,0.53-0.175c0.041-0.015,0.083-0.031,0.124-0.046
		c0.143-0.052,0.287-0.108,0.434-0.167c0.059-0.024,0.118-0.048,0.177-0.073c0.142-0.059,0.286-0.122,0.432-0.188
		c0.051-0.023,0.101-0.045,0.152-0.068c0.195-0.09,0.392-0.184,0.593-0.284c0.033-0.016,0.066-0.034,0.099-0.051
		c0.17-0.086,0.341-0.175,0.515-0.267c0.064-0.034,0.129-0.07,0.194-0.105c0.152-0.083,0.306-0.168,0.461-0.257
		c0.061-0.035,0.122-0.069,0.184-0.105c0.212-0.122,0.426-0.248,0.643-0.38c0.011-0.007,0.023-0.015,0.035-0.021
		c0.206-0.125,0.414-0.256,0.623-0.389c0.066-0.042,0.133-0.086,0.2-0.129c0.162-0.104,0.325-0.211,0.489-0.32
		c0.069-0.046,0.137-0.091,0.206-0.137c0.202-0.136,0.406-0.275,0.611-0.417c0.024-0.016,0.047-0.032,0.071-0.049
		c0.228-0.159,0.458-0.323,0.689-0.489c0.066-0.048,0.132-0.096,0.198-0.144c0.17-0.124,0.341-0.25,0.513-0.377
		c0.075-0.055,0.149-0.111,0.223-0.167c0.19-0.142,0.38-0.287,0.57-0.434c0.046-0.035,0.092-0.07,0.138-0.105
		c0.235-0.182,0.471-0.367,0.707-0.555c0.063-0.05,0.125-0.101,0.188-0.151c0.178-0.143,0.356-0.287,0.535-0.433
		c0.077-0.063,0.153-0.125,0.23-0.189c0.183-0.151,0.366-0.303,0.549-0.457c0.058-0.049,0.116-0.097,0.174-0.146
		c0.239-0.201,0.477-0.405,0.716-0.611c0.051-0.044,0.101-0.088,0.152-0.132c0.19-0.165,0.38-0.331,0.57-0.499
		c0.077-0.068,0.154-0.137,0.231-0.205c0.175-0.156,0.35-0.314,0.525-0.472c0.067-0.061,0.135-0.122,0.202-0.183
		c0.237-0.216,0.473-0.433,0.709-0.653c0.035-0.032,0.069-0.065,0.103-0.097c0.203-0.19,0.406-0.381,0.608-0.573
		c0.074-0.07,0.147-0.141,0.221-0.211c0.171-0.163,0.34-0.327,0.51-0.492c0.07-0.069,0.141-0.137,0.211-0.205
		c0.232-0.228,0.464-0.456,0.694-0.686s0.458-0.462,0.686-0.694c0.069-0.07,0.137-0.141,0.205-0.211
		c0.165-0.17,0.329-0.339,0.492-0.51c0.07-0.074,0.141-0.147,0.211-0.221c0.192-0.202,0.383-0.405,0.573-0.608
		c0.032-0.034,0.065-0.069,0.097-0.103c0.219-0.236,0.437-0.472,0.652-0.709c0.062-0.067,0.122-0.135,0.184-0.203
		c0.158-0.175,0.315-0.35,0.471-0.525c0.069-0.077,0.137-0.154,0.206-0.231c0.168-0.19,0.334-0.379,0.499-0.569
		c0.044-0.051,0.089-0.101,0.132-0.152c0.206-0.239,0.41-0.477,0.611-0.716c0.049-0.058,0.098-0.117,0.147-0.175
		c0.153-0.183,0.306-0.366,0.456-0.549c0.063-0.077,0.126-0.154,0.189-0.231c0.146-0.178,0.289-0.356,0.432-0.534
		c0.05-0.063,0.102-0.126,0.152-0.189c0.188-0.236,0.372-0.471,0.554-0.706c0.036-0.047,0.071-0.093,0.107-0.14
		c0.146-0.19,0.29-0.379,0.432-0.568c0.056-0.075,0.112-0.15,0.168-0.225c0.127-0.171,0.252-0.341,0.376-0.51
		c0.049-0.067,0.098-0.134,0.146-0.2c0.166-0.23,0.329-0.46,0.488-0.688c0.018-0.025,0.034-0.05,0.052-0.075
		c0.141-0.203,0.279-0.405,0.414-0.606c0.047-0.07,0.093-0.139,0.139-0.209c0.108-0.163,0.214-0.325,0.318-0.486
		c0.043-0.067,0.087-0.135,0.13-0.202c0.132-0.208,0.261-0.414,0.385-0.618c0.008-0.013,0.017-0.027,0.025-0.04
		c0.131-0.216,0.257-0.429,0.379-0.641c0.036-0.062,0.071-0.124,0.106-0.186c0.088-0.154,0.173-0.307,0.255-0.458
		c0.036-0.065,0.071-0.13,0.106-0.195c0.092-0.173,0.181-0.343,0.266-0.512c0.017-0.034,0.035-0.068,0.052-0.101
		c0.1-0.2,0.194-0.397,0.283-0.592c0.024-0.052,0.046-0.103,0.069-0.154c0.065-0.145,0.127-0.288,0.187-0.43
		c0.025-0.06,0.05-0.119,0.073-0.179c0.059-0.146,0.114-0.29,0.167-0.432c0.015-0.041,0.032-0.084,0.047-0.125
		c0.064-0.18,0.122-0.356,0.175-0.529c0.012-0.039,0.022-0.077,0.033-0.116c0.039-0.135,0.075-0.267,0.107-0.397
		c0.013-0.052,0.025-0.104,0.036-0.156c0.01-0.047,0.023-0.095,0.033-0.141L89.109,205.697z"/>
</g>
<g>
	<polygon fill="#424242" points="202.467,238.788 193.465,233.264 194.802,231.085 202.467,235.788 210.801,230.674 
		219.136,235.788 227.471,230.674 235.807,235.788 244.142,230.674 252.479,235.788 260.147,231.084 261.484,233.264 
		252.479,238.788 244.142,233.674 235.807,238.788 227.471,233.674 219.136,238.788 210.801,233.674 	"/>
</g>
<path fill="#2854FF" d="M151.281,183.417h-1.143c-0.271-0.189-6.701-4.688-11.458-10.163c-7.44-8.292-5.359-12.667-4.47-14.536
	l0.1-0.167c1.682-2.263,4.368-3.614,7.185-3.614c4.595,0,8.393,3.482,8.891,7.947h0.649c0.499-4.464,4.296-7.947,8.891-7.947
	c2.816,0,5.502,1.351,7.185,3.614l0.1,0.167c0.889,1.869,2.97,6.245-4.481,14.548C157.982,178.729,151.552,183.228,151.281,183.417z
	 M135.973,159.668c-0.792,1.67-2.235,5.083,4.207,12.262c3.803,4.376,8.85,8.206,10.531,9.434c1.681-1.229,6.729-5.06,10.521-9.421
	c6.453-7.191,5.009-10.604,4.217-12.274c-1.327-1.737-3.334-2.731-5.522-2.731c-3.831,0-6.947,3.116-6.947,6.947l-1,1h-2.538l-1-1
	c0-3.831-3.116-6.947-6.947-6.947C139.307,156.938,137.299,157.932,135.973,159.668z"/>
<g>
	<path d="M226.051,134.055c-0.803-8.995-7.361-26.007-26.431-26.007h-19.036V116h-19.5v-7.952h-17.536
		c-19.07,0-25.628,17.012-26.431,26.007l-0.02,30.445h17.728V218l37.362-1.014L208.343,218v-53.5h17.728L226.051,134.055z"/>
	<path fill="#FFFFFF" d="M199.62,113.049c-13.191,0-14.645,0-6.846,0c2.446,0-4.685,0-4.66,0h-33.06c0.025,0-0.78,0-3.226,0
		c-1.78,0-4.423,0-8.281,0c-19.536,0-21.451,21.451-21.451,21.451v25h17.728V213h63.519v-53.5h17.728v-25
		C221.071,134.5,219.156,113.049,199.62,113.049z"/>
	<path d="M170.208,139.775c-8.34,0-15.125-6.785-15.125-15.125V112h30.25v12.65C185.333,132.99,178.548,139.775,170.208,139.775z"/>
	<path fill="#FFFFFF" d="M160.083,116v8.651c0,5.592,4.533,10.125,10.125,10.125s10.125-4.533,10.125-10.125V116H160.083z"/>
	<polygon opacity="0.9" points="134.824,140.909 134.824,147.287 117.096,147.287 117.096,152.287 134.824,152.287 134.824,186.7 
		139.824,186.7 139.824,140.909 	"/>
	<polygon opacity="0.9" points="222.364,147.287 208.34,147.287 208.34,140.909 203.34,140.909 203.34,147.287 203.34,152.287 
		203.34,186.7 208.34,186.7 208.34,152.287 222.364,152.287 	"/>
	<path d="M170.21,188.667c0,0-9.968-6.943-15.049-12.788c-8.222-9.161-6.83-15.165-5.063-18.878l0.502-0.834
		c2.433-3.274,6.319-5.229,10.395-5.229c3.603,0,6.866,1.479,9.215,3.862c2.35-2.383,5.613-3.862,9.216-3.862
		c4.076,0,7.962,1.955,10.395,5.229l0.502,0.834c1.767,3.713,3.158,9.717-5.117,18.938
		C180.178,181.723,170.21,188.667,170.21,188.667z"/>
	<path fill="#2854FF" d="M170.21,182.595c0,0,6.544-4.553,11.275-9.997c6.958-7.754,5.18-11.647,4.322-13.451
		c-1.448-1.948-3.768-3.211-6.382-3.211c-4.389,0-7.947,3.558-7.947,7.947h-2.538c0-4.389-3.558-7.947-7.947-7.947
		c-2.614,0-4.934,1.262-6.382,3.211c-0.858,1.803-2.636,5.697,4.322,13.451C163.666,178.042,170.21,182.595,170.21,182.595"/>
</g>
</svg>
