<?xml version="1.0" encoding="utf-8"?>
<!-- Generator: Adobe Illustrator 17.0.0, SVG Export Plug-In . SVG Version: 6.00 Build 0)  -->
<!DOCTYPE svg PUBLIC "-//W3C//DTD SVG 1.1//EN" "http://www.w3.org/Graphics/SVG/1.1/DTD/svg11.dtd">
<svg version="1.1" id="Layer_1" xmlns="http://www.w3.org/2000/svg" xmlns:xlink="http://www.w3.org/1999/xlink" x="0px" y="0px"
	 width="343.167px" height="358px" viewBox="0 0 343.167 358" enable-background="new 0 0 343.167 358" xml:space="preserve">
<pattern  x="-79.5" y="442" width="15.948" height="15.786" patternUnits="userSpaceOnUse" id="New_Pattern_3" viewBox="0 -15.787 15.948 15.786" overflow="visible">
	<g>
		<polygon fill="none" points="0,-15.787 15.948,-15.787 15.948,0 0,0 		"/>
		<path fill="#F6F6F6" d="M0.021-10.167c-0.007,0-0.014,0.002-0.021,0.002v4.329c0.007,0,0.014,0.002,0.021,0.002
			c1.197,0,2.167-0.97,2.167-2.167C2.188-9.197,1.218-10.167,0.021-10.167z"/>
		<path fill="#F6F6F6" d="M5.608-15.787c0,0.012-0.004,0.024-0.004,0.036c0,1.197,0.97,2.167,2.167,2.167
			c1.197,0,2.167-0.97,2.167-2.167c0-0.013-0.003-0.024-0.004-0.036H5.608z"/>
		<path fill="#F6F6F6" d="M15.948-10.16C14.786-10.12,13.855-9.172,13.855-8c0,1.172,0.932,2.12,2.094,2.159V-10.16z"/>
		<path fill="#F6F6F6" d="M8.021-2.167c-1.197,0-2.167,0.97-2.167,2.167h4.333C10.188-1.197,9.218-2.167,8.021-2.167z"/>
	</g>
</pattern>
<circle fill="url(#New_Pattern_3)" cx="171.082" cy="185" r="168"/>
<path d="M122.5,203c-3.86,0-7-3.141-7-7v-85.917c0-3.86,3.14-7,7-7H248c3.86,0,7,3.14,7,7V196c0,3.859-3.14,7-7,7H122.5z"/>
<path fill="#2854FF" d="M250,170c0,1.105-0.895,2-2,2H122.5c-1.105,0-2-0.895-2-2v-59.917c0-1.105,0.895-2,2-2H248
	c1.105,0,2,0.895,2,2V170z"/>
<rect x="148.167" y="97.063" width="90.333" height="63"/>
<rect x="153.167" y="102.062" fill="#FFFFFF" width="80.333" height="53"/>
<path fill="#FFFFFF" d="M250.333,196.859c0,0.354-0.895,0.641-2,0.641h-125.5c-1.105,0-2-0.287-2-0.641v-19.217
	c0-0.354,0.895-0.641,2-0.641h125.5c1.105,0,2,0.287,2,0.641V196.859z"/>
<image display="none" overflow="visible" width="1920" height="617" xlink:href="3-5-2019-apparelad-v1_02.jpg"  transform="matrix(1 0 0 1 -79.5 -175)">
</image>
<rect x="134.5" y="84.333" width="90.333" height="63"/>
<rect x="139.5" y="89.333" fill="#FFFFFF" width="80.333" height="53"/>
<path fill="#010000" d="M88.517,136.277"/>
<circle fill="#000100" cx="185.515" cy="188.917" r="3.917"/>
<circle fill="#000100" cx="54.333" cy="233" r="2.75"/>
<g>
	<path fill="#020000" d="M186.601,3.02c2.052,0,3.899,0.299,5.543,0.898c1.643,0.598,3.044,1.43,4.203,2.494
		s2.048,2.333,2.665,3.805c0.617,1.473,0.927,3.092,0.927,4.859c0,1.52-0.214,2.926-0.642,4.218
		c-0.428,1.292-1.012,2.522-1.753,3.691s-1.601,2.299-2.579,3.392s-2.019,2.199-3.121,3.32l-8.122,8.322
		c1.045-0.304,2.075-0.546,3.092-0.727c1.017-0.18,1.972-0.271,2.864-0.271h7.752c0.95,0,1.7,0.261,2.252,0.784
		c0.551,0.523,0.826,1.211,0.826,2.066V45h-29.184v-2.85c0-0.551,0.114-1.14,0.342-1.767c0.229-0.627,0.627-1.197,1.197-1.71
		l11.97-12.055c1.026-1.026,1.919-2.004,2.679-2.936c0.76-0.931,1.387-1.848,1.882-2.75c0.493-0.902,0.864-1.805,1.111-2.708
		c0.246-0.902,0.37-1.857,0.37-2.864c0-1.653-0.395-2.921-1.183-3.805c-0.789-0.883-1.99-1.325-3.605-1.325
		c-0.665,0-1.272,0.095-1.824,0.285c-0.551,0.19-1.045,0.446-1.481,0.77c-0.438,0.323-0.813,0.703-1.126,1.14
		c-0.313,0.438-0.565,0.912-0.755,1.425c-0.305,0.855-0.689,1.473-1.154,1.853c-0.466,0.38-1.098,0.57-1.896,0.57
		c-0.19,0-0.395-0.009-0.612-0.028c-0.219-0.019-0.442-0.047-0.67-0.085l-4.674-0.827c0.304-2.071,0.888-3.876,1.752-5.415
		s1.938-2.821,3.221-3.848c1.282-1.026,2.75-1.791,4.403-2.294S184.7,3.02,186.601,3.02z"/>
</g>
<path fill="#020000" d="M166.083,108.083c0,5.431-4.403,9.833-9.833,9.833s-9.833-4.403-9.833-9.833
	c0-5.431,4.403-9.833,9.833-9.833S166.083,102.653,166.083,108.083z M156.25,104.75c-1.841,0-3.333,1.492-3.333,3.333
	s1.492,3.333,3.333,3.333s3.333-1.492,3.333-3.333S158.091,104.75,156.25,104.75z"/>
<g>
	<defs>
		<rect id="SVGID_1_" x="139.5" y="89.333" width="80.333" height="53"/>
	</defs>
	<clipPath id="SVGID_2_">
		<use xlink:href="#SVGID_1_"  overflow="visible"/>
	</clipPath>
	<g clip-path="url(#SVGID_2_)">
		<polygon fill="#020000" points="189.5,145.667 189.5,127.465 175.167,113.131 142.631,145.667 		"/>
		<polygon fill="#FFFFFF" points="184.5,145.667 200.732,145.768 175.167,120.203 149.703,145.667 		"/>
		<polygon fill="#020000" points="169.762,147.333 210.5,106.595 224.833,120.929 224.833,147.333 		"/>
		<polygon fill="#FFFFFF" points="181.833,142.333 210.5,113.667 219.833,123 219.833,142.333 		"/>
	</g>
</g>
<g>
	<path d="M112.789,243.706v4.117h3.847v2.308h-3.847v4.138h-2.62v-4.138h-3.826v-2.308h3.826v-4.117H112.789z"/>
</g>
<polygon fill="#000100" points="160.439,227.717 167,214.15 167,199.482 203.569,199.482 203.569,214.15 210.13,227.717 "/>
<path d="M227.5,225.717c0,1.105-0.895,2-2,2h-81c-1.105,0-2-0.895-2-2v-1.5c0-1.105,0.895-2,2-2h81c1.105,0,2,0.895,2,2V225.717z"/>
<polygon fill="#FFFFFF" points="198.569,215.296 198.569,204.483 185.515,204.483 185.055,204.483 172,204.483 172,215.296 
	168.411,222.717 185.055,222.717 185.515,222.717 202.158,222.717 "/>
<g>
	<path d="M262.229,74.265v2.865h2.677v1.606h-2.677v2.88h-1.823v-2.88h-2.662V77.13h2.662v-2.865H262.229z"/>
</g>
</svg>
